<svg width="368" height="74" viewBox="0 0 368 74" fill="none" xmlns="http://www.w3.org/2000/svg">
<g filter="url(#filter0_d_3_233)">
<rect x="4" width="360" height="66" fill="#0D1117"/>
</g>
<g clip-path="url(#clip0_3_233)">
<path d="M99.4881 28.7088C99.5001 28.7088 99.9345 28.6786 100.791 28.6183C101.648 28.558 102.088 28.5218 102.112 28.5097C102.257 28.5097 102.329 28.564 102.329 28.6726C102.329 28.8053 102.112 29.7162 101.678 31.4054C101.219 33.191 100.99 34.1019 100.99 34.1381C100.99 34.1622 101.032 34.1321 101.117 34.0476C101.853 33.3961 102.637 33.0704 103.47 33.0704C104.121 33.0704 104.646 33.2332 105.044 33.559C105.442 33.8847 105.647 34.3613 105.659 34.9887C105.659 35.604 105.43 36.5572 104.972 37.8481C104.513 39.1391 104.284 39.9113 104.284 40.1647C104.296 40.3336 104.326 40.4482 104.374 40.5085C104.423 40.5688 104.513 40.599 104.646 40.599C104.984 40.599 105.297 40.418 105.587 40.0561C105.877 39.6941 106.112 39.1994 106.293 38.5721C106.329 38.4393 106.365 38.3609 106.401 38.3368C106.438 38.3127 106.534 38.3006 106.691 38.3006C106.932 38.3006 107.053 38.3488 107.053 38.4454C107.053 38.4574 107.029 38.5479 106.981 38.7168C106.787 39.4287 106.48 40.0138 106.058 40.4723C105.647 40.9911 105.159 41.2505 104.592 41.2505H104.501C103.934 41.2505 103.524 41.0876 103.27 40.7619C103.017 40.4361 102.89 40.0923 102.89 39.7303C102.89 39.5373 103.108 38.8254 103.542 37.5948C103.976 36.3641 104.199 35.4412 104.212 34.8258C104.212 34.114 103.946 33.7581 103.415 33.7581H103.325C102.323 33.7581 101.455 34.3493 100.719 35.5316L100.592 35.7669L99.9767 38.2101C99.5906 39.7786 99.3674 40.6352 99.3071 40.78C99.1502 41.1057 98.8848 41.2686 98.5108 41.2686C98.3419 41.2686 98.1971 41.2143 98.0764 41.1057C97.9558 40.9971 97.8894 40.8886 97.8774 40.78C97.8774 40.6111 98.3177 38.7772 99.1985 35.2783L100.538 29.9214C100.538 29.7645 100.495 29.668 100.411 29.6318C100.327 29.5956 100.091 29.5654 99.7052 29.5413H99.3252C99.2528 29.4689 99.2166 29.4206 99.2166 29.3965C99.2166 29.3724 99.2287 29.2578 99.2528 29.0527C99.3131 28.8234 99.3915 28.7088 99.4881 28.7088Z" fill="white"/>
<path d="M107.868 42.233C107.868 41.3032 108.235 40.4673 108.968 39.7251C109.702 38.983 110.495 38.612 111.348 38.612C111.826 38.612 112.201 38.7143 112.474 38.9191C112.747 39.1238 112.888 39.3925 112.896 39.7251C112.896 39.9725 112.815 40.1815 112.653 40.3521C112.491 40.5227 112.287 40.6123 112.039 40.6208C111.877 40.6208 111.749 40.5782 111.655 40.4929C111.562 40.4076 111.515 40.2796 111.515 40.109C111.515 39.9384 111.562 39.7934 111.655 39.674C111.749 39.5545 111.843 39.465 111.937 39.4053C112.031 39.3456 112.09 39.32 112.116 39.3285H112.129C112.129 39.3114 112.103 39.2859 112.052 39.2517C112.001 39.2176 111.911 39.1835 111.783 39.1494C111.655 39.1153 111.51 39.0982 111.348 39.0982C111.092 39.0982 110.849 39.1579 110.619 39.2773C110.44 39.3541 110.256 39.4863 110.069 39.674C109.693 40.0493 109.42 40.5782 109.25 41.2606C109.079 41.943 108.99 42.4377 108.981 42.7448C108.981 43.1372 109.092 43.4315 109.314 43.6276C109.501 43.8324 109.749 43.9347 110.056 43.9347H110.107C111.062 43.9347 111.852 43.5722 112.474 42.8471C112.551 42.7618 112.602 42.7192 112.628 42.7192C112.662 42.7192 112.717 42.7576 112.794 42.8344C112.871 42.9111 112.914 42.9708 112.922 43.0135C112.931 43.0561 112.892 43.1201 112.807 43.2054C112.722 43.2907 112.598 43.4101 112.436 43.5637C112.274 43.7172 112.082 43.8452 111.86 43.9475C111.638 44.0499 111.365 44.1565 111.041 44.2674C110.717 44.3783 110.376 44.4252 110.018 44.4081C109.378 44.4081 108.862 44.2034 108.469 43.794C108.077 43.3845 107.877 42.8642 107.868 42.233Z" fill="white"/>
<path d="M114.176 41.0686C114.176 40.4801 114.219 39.9213 114.304 39.3925C114.389 38.8636 114.487 38.4073 114.598 38.0234C114.709 37.6396 114.867 37.2642 115.072 36.8974C115.276 36.5306 115.438 36.2449 115.558 36.0402C115.677 35.8354 115.856 35.6137 116.095 35.3748C116.334 35.136 116.475 34.991 116.517 34.9398C116.56 34.8886 116.667 34.799 116.837 34.6711H117.004H117.055C117.174 34.6711 117.234 34.7095 117.234 34.7862C117.234 34.8118 117.161 34.9014 117.016 35.0549C116.871 35.2085 116.697 35.4345 116.492 35.7331C116.287 36.0316 116.078 36.3984 115.865 36.8335C115.652 37.2685 115.473 37.8571 115.328 38.5992C115.183 39.3413 115.11 40.1644 115.11 41.0686C115.11 41.9728 115.183 42.7917 115.328 43.5253C115.473 44.2589 115.647 44.8517 115.852 45.3038C116.057 45.7559 116.266 46.1227 116.479 46.4042C116.692 46.6857 116.871 46.9117 117.016 47.0823C117.161 47.2529 117.234 47.3425 117.234 47.351C117.234 47.4278 117.17 47.4662 117.042 47.4662H117.004H116.837L116.479 47.1591C115.677 46.434 115.093 45.5298 114.726 44.4465C114.359 43.3632 114.176 42.2372 114.176 41.0686Z" fill="white"/>
<path d="M118.616 40.5696C118.676 40.2114 118.906 39.7977 119.307 39.3285C119.708 38.8594 120.202 38.6205 120.791 38.612C121.09 38.612 121.363 38.6888 121.61 38.8423C121.857 38.9958 122.041 39.1878 122.16 39.4181C122.518 38.8807 122.949 38.612 123.452 38.612C123.768 38.612 124.041 38.7058 124.271 38.8935C124.502 39.0811 124.621 39.3328 124.63 39.6484C124.63 39.8958 124.57 40.0962 124.45 40.2497C124.331 40.4033 124.216 40.4971 124.105 40.5312C123.994 40.5654 123.896 40.5824 123.811 40.5824C123.649 40.5824 123.516 40.5355 123.414 40.4417C123.312 40.3478 123.26 40.2242 123.26 40.0706C123.26 39.6782 123.474 39.4095 123.9 39.2645C123.806 39.1536 123.636 39.0982 123.388 39.0982C123.278 39.0982 123.196 39.1067 123.145 39.1238C122.821 39.2603 122.582 39.5418 122.429 39.9683C121.917 41.8534 121.661 42.9538 121.661 43.2694C121.661 43.5082 121.729 43.6788 121.866 43.7812C122.002 43.8836 122.152 43.9347 122.314 43.9347C122.629 43.9347 122.941 43.794 123.248 43.5125C123.555 43.231 123.764 42.8855 123.875 42.4761C123.9 42.3908 123.926 42.3439 123.951 42.3353C123.977 42.3268 124.045 42.3183 124.156 42.3098H124.207C124.335 42.3098 124.399 42.3439 124.399 42.4121C124.399 42.4206 124.391 42.4676 124.374 42.5529C124.237 43.0391 123.973 43.4698 123.58 43.8452C123.188 44.2205 122.732 44.4081 122.211 44.4081C121.614 44.4081 121.162 44.1395 120.855 43.6021C120.505 44.1309 120.104 44.3954 119.652 44.3954H119.575C119.158 44.3954 118.859 44.2845 118.68 44.0627C118.501 43.8409 118.407 43.6063 118.398 43.359C118.398 43.086 118.479 42.8642 118.641 42.6936C118.804 42.523 118.995 42.4377 119.217 42.4377C119.584 42.4377 119.767 42.6168 119.767 42.9751C119.767 43.1457 119.716 43.295 119.614 43.4229C119.512 43.5509 119.413 43.6362 119.32 43.6788C119.226 43.7215 119.17 43.7428 119.153 43.7428L119.115 43.7556C119.115 43.7641 119.14 43.7812 119.192 43.8068C119.243 43.8324 119.311 43.8622 119.396 43.8963C119.482 43.9305 119.563 43.9433 119.639 43.9347C119.947 43.9347 120.211 43.7428 120.433 43.359C120.51 43.2225 120.608 42.9325 120.727 42.4889C120.846 42.0453 120.966 41.5847 121.085 41.107C121.205 40.6293 121.273 40.3478 121.29 40.2625C121.333 40.0322 121.354 39.8659 121.354 39.7635C121.354 39.5247 121.29 39.3541 121.162 39.2517C121.034 39.1494 120.889 39.0982 120.727 39.0982C120.386 39.0982 120.066 39.2347 119.767 39.5076C119.469 39.7806 119.26 40.1303 119.14 40.5568C119.123 40.6336 119.102 40.6763 119.076 40.6848C119.051 40.6933 118.983 40.7018 118.872 40.7104H118.693C118.641 40.6592 118.616 40.6123 118.616 40.5696Z" fill="white"/>
<path d="M126.037 34.6839L126.088 34.6711C126.131 34.6711 126.173 34.6711 126.216 34.6711H126.37L126.728 34.9782C127.53 35.7032 128.114 36.6074 128.481 37.6907C128.848 38.774 129.031 39.9 129.031 41.0686C129.031 41.6487 128.988 42.2074 128.903 42.7448C128.818 43.2822 128.72 43.7385 128.609 44.1139C128.498 44.4892 128.34 44.8645 128.135 45.2398C127.931 45.6152 127.769 45.9009 127.649 46.0971C127.53 46.2933 127.355 46.5108 127.125 46.7496C126.894 46.9885 126.758 47.1292 126.715 47.1719C126.672 47.2145 126.574 47.2956 126.421 47.415C126.395 47.4406 126.378 47.4576 126.37 47.4662H126.216C126.148 47.4662 126.101 47.4662 126.075 47.4662C126.05 47.4662 126.028 47.4534 126.011 47.4278C125.994 47.4022 125.982 47.3638 125.973 47.3126C125.982 47.3041 126.028 47.2487 126.114 47.1463C127.436 45.773 128.097 43.7471 128.097 41.0686C128.097 38.3902 127.436 36.3643 126.114 34.991C126.028 34.8886 125.982 34.8332 125.973 34.8246C125.973 34.7564 125.994 34.7095 126.037 34.6839Z" fill="white"/>
<path d="M131.245 43.8196C131.245 43.8196 131.245 43.7129 131.245 43.4997C131.245 43.2864 131.313 43.103 131.449 42.9495C131.586 42.796 131.769 42.7192 132 42.7192C132.238 42.7192 132.452 42.8258 132.639 43.0391C132.827 43.2523 132.925 43.6276 132.934 44.165C132.934 44.4636 132.895 44.7536 132.818 45.0351C132.742 45.3166 132.652 45.5597 132.55 45.7644C132.447 45.9691 132.336 46.144 132.217 46.289C132.098 46.434 131.995 46.5492 131.91 46.6345C131.825 46.7198 131.769 46.7582 131.744 46.7496C131.709 46.7496 131.654 46.7113 131.577 46.6345C131.5 46.5577 131.462 46.5023 131.462 46.4682C131.462 46.434 131.509 46.3658 131.603 46.2634C131.697 46.1611 131.803 46.0331 131.923 45.8796C132.042 45.726 132.153 45.5128 132.255 45.2398C132.358 44.9669 132.426 44.6555 132.46 44.3058V44.1522L132.447 44.165C132.43 44.1736 132.409 44.1821 132.383 44.1906C132.358 44.1992 132.332 44.212 132.307 44.229C132.281 44.2461 132.243 44.2546 132.191 44.2546C132.14 44.2546 132.089 44.2589 132.038 44.2674C131.808 44.2674 131.62 44.1949 131.475 44.0499L131.245 43.8196Z" fill="white"/>
<path d="M136.158 36.5904C136.158 36.3856 136.239 36.2065 136.401 36.053C136.563 35.8994 136.751 35.8184 136.964 35.8099C137.118 35.8099 137.245 35.861 137.348 35.9634C137.45 36.0658 137.506 36.1937 137.514 36.3473C137.514 36.5434 137.429 36.7226 137.258 36.8846C137.088 37.0467 136.9 37.132 136.695 37.1405C136.567 37.1405 136.448 37.0979 136.337 37.0126C136.226 36.9273 136.166 36.7865 136.158 36.5904ZM134.072 40.5952C134.072 40.527 134.111 40.3948 134.187 40.1986C134.264 40.0024 134.367 39.7849 134.495 39.546C134.622 39.3072 134.81 39.0897 135.058 38.8935C135.305 38.6973 135.561 38.6034 135.825 38.612C136.158 38.612 136.435 38.7101 136.657 38.9063C136.879 39.1025 136.994 39.3669 137.002 39.6996C137.002 39.8446 136.943 40.0834 136.823 40.4161C136.704 40.7488 136.533 41.1966 136.311 41.7596C136.09 42.3226 135.911 42.8045 135.774 43.2054C135.731 43.3931 135.71 43.5296 135.71 43.6149C135.71 43.8281 135.783 43.9347 135.928 43.9347C136.004 43.9347 136.085 43.9219 136.171 43.8963C136.256 43.8708 136.354 43.811 136.465 43.7172C136.576 43.6234 136.691 43.4741 136.81 43.2694C136.93 43.0647 137.036 42.813 137.13 42.5145C137.156 42.4121 137.177 42.3524 137.194 42.3353C137.211 42.3183 137.284 42.3098 137.412 42.3098C137.582 42.3098 137.668 42.3524 137.668 42.4377C137.668 42.5059 137.629 42.6382 137.553 42.8344C137.476 43.0305 137.369 43.2481 137.233 43.4869C137.096 43.7257 136.904 43.939 136.657 44.1267C136.41 44.3143 136.145 44.4081 135.864 44.4081C135.591 44.4081 135.339 44.3186 135.109 44.1395C134.878 43.9603 134.759 43.6874 134.75 43.3206C134.75 43.1756 134.772 43.0391 134.814 42.9111C134.857 42.7832 135.04 42.297 135.365 41.4525C135.689 40.591 135.876 40.0749 135.928 39.9043C135.979 39.7337 136.009 39.5673 136.017 39.4053C136.017 39.2006 135.945 39.0982 135.8 39.0982H135.774C135.518 39.0982 135.284 39.2389 135.07 39.5204C134.857 39.8019 134.695 40.1602 134.584 40.5952C134.576 40.6037 134.567 40.6165 134.559 40.6336C134.55 40.6507 134.546 40.6635 134.546 40.672C134.546 40.6805 134.537 40.689 134.52 40.6976C134.503 40.7061 134.49 40.7104 134.482 40.7104C134.473 40.7104 134.456 40.7104 134.431 40.7104C134.405 40.7104 134.371 40.7104 134.328 40.7104H134.149C134.098 40.6592 134.072 40.6208 134.072 40.5952Z" fill="white"/>
<path d="M145.168 34.7896C145.168 34.6328 145.253 34.5121 145.422 34.4277H156.95C157.131 34.5242 157.222 34.6449 157.222 34.7896C157.222 34.9224 157.137 35.037 156.968 35.1335L151.213 35.1516H145.458C145.265 35.0913 145.168 34.9706 145.168 34.7896ZM145.168 38.3006C145.168 38.1196 145.265 37.999 145.458 37.9386H156.968C157.137 38.0593 157.222 38.1799 157.222 38.3006C157.222 38.4574 157.131 38.5781 156.95 38.6625H145.422C145.253 38.5781 145.168 38.4574 145.168 38.3006Z" fill="white"/>
<path d="M167.371 41.2686C166.43 41.2686 165.633 40.9549 164.982 40.3275C164.33 39.7001 163.999 38.8978 163.986 37.9205C163.986 36.8588 164.27 35.966 164.837 35.2421C165.247 34.6991 165.766 34.2527 166.393 33.9029C167.021 33.553 167.709 33.3479 168.457 33.2875C168.481 33.2755 168.734 33.2694 169.217 33.2694H169.904C170.085 33.3298 170.176 33.4504 170.176 33.6314C170.176 33.9451 169.929 34.1019 169.434 34.1019H169.144H168.909C167.449 34.1019 166.496 34.7534 166.05 36.0565L165.977 36.2736H169.181C169.337 36.3822 169.416 36.4969 169.416 36.6175C169.416 36.8347 169.295 36.9976 169.054 37.1061H165.76V37.1423C165.639 37.5043 165.579 37.9507 165.579 38.4816C165.579 39.2779 165.772 39.8268 166.158 40.1285C166.544 40.4301 166.973 40.5869 167.443 40.599C167.769 40.599 168.089 40.5387 168.402 40.418C168.716 40.2974 168.969 40.1707 169.162 40.038C169.355 39.9053 169.458 39.8389 169.47 39.8389C169.555 39.8389 169.621 39.8992 169.669 40.0199C169.717 40.1405 169.742 40.2551 169.742 40.3637C169.742 40.3999 169.736 40.4241 169.723 40.4361C169.687 40.4844 169.567 40.5688 169.361 40.6895C169.156 40.8101 168.867 40.9368 168.493 41.0695C168.119 41.2023 167.745 41.2686 167.371 41.2686Z" fill="white"/>
<path d="M172.311 36.5451C172.311 35.7126 172.372 34.9224 172.492 34.1743C172.613 33.4263 172.752 32.7808 172.909 32.2379C173.065 31.6949 173.289 31.1641 173.578 30.6453C173.868 30.1265 174.097 29.7223 174.266 29.4327C174.435 29.1432 174.688 28.8295 175.026 28.4916C175.364 28.1538 175.563 27.9487 175.623 27.8763C175.684 27.8039 175.834 27.6772 176.076 27.4963H176.311H176.383C176.552 27.4963 176.637 27.5506 176.637 27.6591C176.637 27.6953 176.534 27.822 176.329 28.0392C176.124 28.2564 175.877 28.5761 175.587 28.9984C175.298 29.4206 175.002 29.9394 174.7 30.5548C174.399 31.1701 174.145 32.0026 173.94 33.0523C173.735 34.1019 173.633 35.2662 173.633 36.5451C173.633 37.824 173.735 38.9823 173.94 40.0199C174.145 41.0575 174.393 41.896 174.682 42.5355C174.972 43.1749 175.267 43.6937 175.569 44.0919C175.871 44.49 176.124 44.8097 176.329 45.051C176.534 45.2923 176.637 45.419 176.637 45.4311C176.637 45.5397 176.546 45.594 176.365 45.594H176.311H176.076L175.569 45.1596C174.435 44.1341 173.608 42.8552 173.09 41.3229C172.571 39.7906 172.311 38.198 172.311 36.5451Z" fill="white"/>
<path d="M178.121 34.1019C178.036 34.0175 177.994 33.9571 177.994 33.9209C177.994 33.8727 178.012 33.7762 178.048 33.6314C178.085 33.4866 178.115 33.4021 178.139 33.378C178.163 33.3177 178.217 33.2875 178.302 33.2875C178.386 33.2875 178.694 33.2815 179.225 33.2694H180.184L180.528 31.8216C180.564 31.6889 180.606 31.514 180.654 31.2968C180.703 31.0796 180.745 30.9228 180.781 30.8262C180.817 30.7297 180.854 30.6091 180.89 30.4643C180.926 30.3195 180.974 30.217 181.035 30.1566C181.095 30.0963 181.155 30.0239 181.215 29.9395C181.276 29.855 181.36 29.8007 181.469 29.7766C181.577 29.7524 181.686 29.7404 181.795 29.7404C182.012 29.7524 182.163 29.8188 182.247 29.9395C182.332 30.0601 182.374 30.1747 182.374 30.2833C182.374 30.3678 182.319 30.6513 182.211 31.1339C182.102 31.6165 181.982 32.0931 181.849 32.5636L181.668 33.2332C181.668 33.2574 181.97 33.2694 182.573 33.2694H183.496C183.58 33.3539 183.622 33.4202 183.622 33.4685C183.622 33.7339 183.544 33.9451 183.387 34.1019H181.451L180.799 36.7261C180.329 38.6565 180.093 39.6941 180.093 39.8389C180.093 40.3456 180.256 40.599 180.582 40.599C181.004 40.599 181.415 40.3939 181.813 39.9837C182.211 39.5735 182.531 39.0667 182.772 38.4635C182.796 38.3911 182.826 38.3489 182.862 38.3368C182.899 38.3247 182.989 38.3127 183.134 38.3006H183.206C183.387 38.3006 183.478 38.3489 183.478 38.4454C183.478 38.4816 183.46 38.554 183.423 38.6625C183.363 38.8556 183.254 39.0848 183.098 39.3503C182.941 39.6157 182.736 39.8992 182.482 40.2009C182.229 40.5025 181.921 40.7558 181.559 40.961C181.197 41.1661 180.829 41.2686 180.455 41.2686C180.093 41.2686 179.75 41.1781 179.424 40.9972C179.098 40.8162 178.863 40.5025 178.718 40.0561C178.694 39.9595 178.682 39.7967 178.682 39.5674V39.2417L179.315 36.708C179.737 35.0068 179.955 34.1502 179.967 34.1381C179.967 34.114 179.659 34.1019 179.044 34.1019H178.121Z" fill="white"/>
<path d="M185.269 27.5144L185.342 27.4963C185.402 27.4963 185.462 27.4963 185.523 27.4963H185.74L186.247 27.9306C187.381 28.9561 188.207 30.235 188.726 31.7673C189.245 33.2996 189.504 34.8922 189.504 36.5451C189.504 37.3655 189.444 38.1558 189.323 38.9159C189.203 39.676 189.064 40.3215 188.907 40.8524C188.75 41.3832 188.527 41.9141 188.237 42.445C187.948 42.9758 187.719 43.38 187.55 43.6575C187.381 43.935 187.133 44.2427 186.808 44.5805C186.482 44.9183 186.289 45.1174 186.229 45.1777C186.168 45.238 186.029 45.3527 185.812 45.5216C185.776 45.5578 185.752 45.5819 185.74 45.594H185.523C185.426 45.594 185.36 45.594 185.324 45.594C185.287 45.594 185.257 45.5759 185.233 45.5397C185.209 45.5035 185.191 45.4492 185.179 45.3768C185.191 45.3647 185.257 45.2863 185.378 45.1415C187.248 43.199 188.183 40.3336 188.183 36.5451C188.183 32.7567 187.248 29.8912 185.378 27.9487C185.257 27.8039 185.191 27.7255 185.179 27.7134C185.179 27.6169 185.209 27.5506 185.269 27.5144Z" fill="white"/>
<path d="M194.481 39.3322C194.481 39.3322 194.481 38.4031 194.481 36.5451C194.481 34.6871 194.632 32.9316 194.934 31.2787C195.235 29.6258 195.603 28.2443 196.038 27.1343C196.472 26.0243 196.997 24.9746 197.612 23.9853C198.227 22.996 198.776 22.2419 199.259 21.7231C199.742 21.2043 200.242 20.7157 200.761 20.2572H201.268C201.34 20.3296 201.376 20.3839 201.376 20.4201C201.376 20.4683 201.28 20.595 201.087 20.8001C200.894 21.0052 200.646 21.2948 200.345 21.6688C200.043 22.0428 199.699 22.5073 199.313 23.0623C198.927 23.6173 198.559 24.3231 198.209 25.1798C197.859 26.0364 197.522 26.9835 197.196 28.0211C196.87 29.0587 196.617 30.3135 196.436 31.7854C196.255 33.2574 196.158 34.8379 196.146 36.527C196.146 37.9507 196.194 39.1271 196.291 40.0561C196.448 41.7814 196.725 43.38 197.123 44.852C197.522 46.3239 197.962 47.5063 198.444 48.3991C198.927 49.2919 199.386 50.052 199.82 50.6794C200.254 51.3068 200.622 51.7773 200.924 52.091C201.226 52.4047 201.376 52.5917 201.376 52.6521C201.376 52.6883 201.34 52.7426 201.268 52.8149H200.761C200.23 52.3685 199.723 51.8799 199.241 51.349C198.758 50.8182 198.215 50.0641 197.612 49.0868C197.009 48.1095 196.484 47.0659 196.038 45.9559C195.591 44.8459 195.223 43.4645 194.934 41.8115L194.481 39.3322Z" fill="white"/>
<path d="M202.734 38.0291C202.734 37.3414 202.848 36.714 203.078 36.147C203.307 35.5799 203.602 35.1094 203.964 34.7353C204.326 34.3613 204.73 34.0476 205.177 33.7943C205.623 33.5409 206.046 33.3539 206.444 33.2332C206.842 33.1126 207.222 33.0583 207.584 33.0704H207.638C208.181 33.0704 208.652 33.2031 209.05 33.4685C209.448 33.7339 209.647 34.1261 209.647 34.6449C209.647 35.7307 208.977 36.4426 207.638 36.7804C207.047 36.9372 206.239 37.0217 205.213 37.0338C204.767 37.0338 204.537 37.0458 204.525 37.0699C204.525 37.0941 204.489 37.3052 204.417 37.7034C204.344 38.1015 204.302 38.4514 204.29 38.753C204.29 39.3201 204.417 39.7665 204.67 40.0923C204.923 40.418 205.304 40.5869 205.81 40.599C206.317 40.6111 206.878 40.4964 207.493 40.2551C208.109 40.0138 208.664 39.6157 209.158 39.0607C209.267 38.94 209.339 38.8797 209.376 38.8797C209.424 38.8797 209.502 38.934 209.611 39.0426C209.719 39.1512 209.78 39.2356 209.792 39.296C209.804 39.3563 209.75 39.4528 209.629 39.5855C209.508 39.7182 209.327 39.8811 209.086 40.0742C208.845 40.2672 208.567 40.4542 208.253 40.6352C207.94 40.8162 207.56 40.967 207.113 41.0876C206.667 41.2083 206.208 41.2686 205.738 41.2686C204.785 41.2686 204.049 40.9489 203.53 40.3094C203.011 39.67 202.746 38.9099 202.734 38.0291ZM208.778 34.6811C208.706 34.0537 208.296 33.74 207.548 33.74C207.149 33.74 206.782 33.8244 206.444 33.9933C206.106 34.1623 205.834 34.3674 205.629 34.6087C205.424 34.85 205.249 35.0973 205.104 35.3507C204.96 35.604 204.863 35.8212 204.815 36.0022C204.767 36.1832 204.736 36.2978 204.724 36.346C204.724 36.3581 204.845 36.3641 205.086 36.3641C206.45 36.3641 207.403 36.2194 207.946 35.9298C208.489 35.6402 208.766 35.224 208.778 34.6811Z" fill="white"/>
<path d="M211.536 26.5107C211.536 26.5107 211.536 26.4552 211.536 26.3443C211.536 26.2335 211.596 26.1481 211.715 26.0884H219.149C219.277 26.1567 219.341 26.242 219.341 26.3443C219.341 26.4467 219.277 26.532 219.149 26.6002H211.715C211.596 26.5405 211.536 26.4552 211.536 26.3443V26.5107Z" fill="white"/>
<path d="M224.488 24.5651H224.47C224.398 24.5651 224.344 24.5229 224.307 24.4385V20.042L224.316 15.6456C224.377 15.5672 224.434 15.528 224.488 15.528C224.567 15.528 224.627 15.5733 224.669 15.6637V24.4385C224.621 24.5229 224.567 24.5651 224.506 24.5651H224.488Z" fill="white"/>
<path d="M225.936 19.7164C225.942 19.6983 225.948 19.6742 225.954 19.644C225.96 19.6139 225.975 19.5475 225.999 19.445C226.023 19.3425 226.053 19.249 226.089 19.1646C226.126 19.0801 226.171 18.9806 226.225 18.866C226.279 18.7515 226.34 18.661 226.406 18.5947C226.472 18.5283 226.551 18.462 226.641 18.3956C226.732 18.3293 226.831 18.3022 226.94 18.3142C227.115 18.3142 227.268 18.3504 227.401 18.4228C227.534 18.4952 227.627 18.5615 227.682 18.6218C227.736 18.6821 227.769 18.7424 227.781 18.8027C227.793 18.8389 227.802 18.857 227.808 18.857C227.814 18.857 227.838 18.8359 227.881 18.7937C228.17 18.4801 228.505 18.3233 228.885 18.3233H228.912C229.201 18.3233 229.418 18.4469 229.563 18.6942C229.611 18.8087 229.636 18.9203 229.636 19.0289C229.636 19.2098 229.596 19.3545 229.518 19.4631C229.44 19.5716 229.361 19.641 229.283 19.6711C229.204 19.7013 229.129 19.7134 229.057 19.7073C228.936 19.7073 228.839 19.6742 228.767 19.6078C228.695 19.5415 228.659 19.454 228.659 19.3455C228.659 19.056 228.827 18.863 229.165 18.7665C229.032 18.6881 228.924 18.6489 228.839 18.6489C228.502 18.6489 228.191 18.8721 227.908 19.3183C227.847 19.4148 227.802 19.5143 227.772 19.6169C227.742 19.7194 227.639 20.1204 227.464 20.82C227.259 21.6643 227.142 22.1136 227.112 22.1679C227.033 22.3307 226.904 22.4121 226.723 22.4121C226.644 22.4121 226.581 22.394 226.533 22.3578C226.484 22.3217 226.451 22.2855 226.433 22.2493C226.415 22.2131 226.409 22.183 226.415 22.1588C226.415 22.0804 226.536 21.5618 226.777 20.6029C227.018 19.644 227.139 19.1103 227.139 19.0017C227.139 18.7665 227.06 18.6489 226.904 18.6489C226.777 18.6489 226.668 18.7334 226.578 18.9022C226.487 19.0711 226.415 19.255 226.361 19.454C226.307 19.6531 226.273 19.7616 226.261 19.7797C226.249 19.7918 226.201 19.7978 226.117 19.7978H225.99C225.954 19.7616 225.936 19.7345 225.936 19.7164Z" fill="white"/>
<path d="M231.49 19.6657C231.49 19.521 231.547 19.3943 231.662 19.2858C231.776 19.1772 231.909 19.1199 232.06 19.1139C232.168 19.1139 232.259 19.1501 232.331 19.2225C232.404 19.2948 232.443 19.3853 232.449 19.4938C232.449 19.6325 232.389 19.7592 232.268 19.8738C232.147 19.9884 232.015 20.0487 231.87 20.0547C231.779 20.0547 231.695 20.0245 231.617 19.9642C231.538 19.9039 231.496 19.8044 231.49 19.6657ZM230.015 22.4972C230.015 22.4489 230.043 22.3554 230.097 22.2167C230.151 22.078 230.224 21.9242 230.314 21.7554C230.404 21.5865 230.537 21.4327 230.712 21.294C230.887 21.1553 231.068 21.089 231.255 21.095C231.49 21.095 231.686 21.1644 231.843 21.3031C232 21.4418 232.081 21.6287 232.087 21.8639C232.087 21.9664 232.045 22.1353 231.96 22.3705C231.876 22.6057 231.755 22.9223 231.599 23.3204C231.442 23.7184 231.315 24.0591 231.219 24.3426C231.188 24.4752 231.173 24.5717 231.173 24.632C231.173 24.7828 231.225 24.8582 231.327 24.8582C231.381 24.8582 231.439 24.8491 231.499 24.8311C231.559 24.813 231.629 24.7707 231.707 24.7044C231.785 24.6381 231.867 24.5325 231.951 24.3878C232.036 24.2431 232.111 24.0651 232.177 23.8541C232.196 23.7817 232.211 23.7395 232.223 23.7274C232.235 23.7154 232.286 23.7093 232.376 23.7093C232.497 23.7093 232.557 23.7395 232.557 23.7998C232.557 23.848 232.53 23.9415 232.476 24.0802C232.422 24.2189 232.346 24.3727 232.25 24.5416C232.153 24.7104 232.018 24.8612 231.843 24.9939C231.668 25.1266 231.481 25.1929 231.282 25.1929C231.089 25.1929 230.911 25.1296 230.748 25.0029C230.585 24.8763 230.501 24.6833 230.495 24.424C230.495 24.3215 230.51 24.225 230.54 24.1345C230.57 24.044 230.7 23.7003 230.929 23.1032C231.158 22.4941 231.291 22.1293 231.327 22.0087C231.363 21.888 231.384 21.7704 231.39 21.6559C231.39 21.5111 231.339 21.4388 231.237 21.4388H231.219C231.038 21.4388 230.872 21.5383 230.721 21.7373C230.57 21.9363 230.456 22.1896 230.377 22.4972C230.371 22.5032 230.365 22.5122 230.359 22.5243C230.353 22.5364 230.35 22.5454 230.35 22.5514C230.35 22.5575 230.344 22.5635 230.332 22.5695C230.32 22.5756 230.311 22.5786 230.305 22.5786C230.299 22.5786 230.287 22.5786 230.269 22.5786C230.251 22.5786 230.227 22.5786 230.196 22.5786H230.07C230.034 22.5424 230.015 22.5152 230.015 22.4972Z" fill="white"/>
<path d="M234.159 20.1687C234.159 20.1687 234.159 20.1295 234.159 20.0511C234.159 19.9727 234.201 19.9124 234.285 19.8702H239.541C239.631 19.9184 239.677 19.9787 239.677 20.0511C239.677 20.1235 239.631 20.1838 239.541 20.232H234.285C234.201 20.1898 234.159 20.1295 234.159 20.0511V20.1687Z" fill="white"/>
<path d="M240.627 19.7164C240.633 19.6983 240.639 19.6742 240.645 19.644C240.651 19.6139 240.666 19.5475 240.69 19.445C240.714 19.3425 240.744 19.249 240.78 19.1646C240.817 19.0801 240.862 18.9806 240.916 18.866C240.97 18.7515 241.031 18.661 241.097 18.5947C241.163 18.5283 241.242 18.462 241.332 18.3956C241.423 18.3293 241.522 18.3022 241.631 18.3142C241.806 18.3142 241.959 18.3504 242.092 18.4228C242.225 18.4952 242.318 18.5615 242.372 18.6218C242.427 18.6821 242.46 18.7424 242.472 18.8027C242.484 18.8389 242.493 18.857 242.499 18.857C242.505 18.857 242.529 18.8359 242.571 18.7937C242.861 18.4801 243.196 18.3233 243.576 18.3233H243.603C243.892 18.3233 244.109 18.4469 244.254 18.6942C244.302 18.8087 244.326 18.9203 244.326 19.0289C244.326 19.2098 244.287 19.3545 244.209 19.4631C244.13 19.5716 244.052 19.641 243.974 19.6711C243.895 19.7013 243.82 19.7134 243.747 19.7073C243.627 19.7073 243.53 19.6742 243.458 19.6078C243.386 19.5415 243.349 19.454 243.349 19.3455C243.349 19.056 243.518 18.863 243.856 18.7665C243.723 18.6881 243.615 18.6489 243.53 18.6489C243.193 18.6489 242.882 18.8721 242.599 19.3183C242.538 19.4148 242.493 19.5143 242.463 19.6169C242.433 19.7194 242.33 20.1204 242.155 20.82C241.95 21.6643 241.833 22.1136 241.803 22.1679C241.724 22.3307 241.594 22.4121 241.414 22.4121C241.335 22.4121 241.272 22.394 241.224 22.3578C241.175 22.3217 241.142 22.2855 241.124 22.2493C241.106 22.2131 241.1 22.183 241.106 22.1588C241.106 22.0804 241.227 21.5618 241.468 20.6029C241.709 19.644 241.83 19.1103 241.83 19.0017C241.83 18.7665 241.751 18.6489 241.594 18.6489C241.468 18.6489 241.359 18.7334 241.269 18.9022C241.178 19.0711 241.106 19.255 241.052 19.454C240.997 19.6531 240.964 19.7616 240.952 19.7797C240.94 19.7918 240.892 19.7978 240.807 19.7978H240.681C240.645 19.7616 240.627 19.7345 240.627 19.7164Z" fill="white"/>
<path d="M244.824 22.2312C244.824 21.5738 245.083 20.9828 245.602 20.4582C246.121 19.9335 246.681 19.6711 247.284 19.6711C247.622 19.6711 247.888 19.7435 248.081 19.8883C248.274 20.033 248.373 20.223 248.379 20.4582C248.379 20.633 248.322 20.7808 248.207 20.9014C248.093 21.022 247.948 21.0854 247.773 21.0914C247.658 21.0914 247.568 21.0612 247.502 21.0009C247.435 20.9406 247.402 20.8502 247.402 20.7295C247.402 20.6089 247.435 20.5064 247.502 20.422C247.568 20.3375 247.634 20.2742 247.701 20.232C247.767 20.1898 247.809 20.1717 247.827 20.1777H247.836C247.836 20.1657 247.818 20.1476 247.782 20.1235C247.746 20.0993 247.683 20.0752 247.592 20.0511C247.502 20.027 247.399 20.0149 247.284 20.0149C247.104 20.0149 246.932 20.0571 246.769 20.1415C246.642 20.1958 246.513 20.2893 246.38 20.422C246.115 20.6873 245.922 21.0612 245.801 21.5437C245.68 22.0262 245.617 22.3759 245.611 22.593C245.611 22.8705 245.689 23.0785 245.846 23.2172C245.979 23.362 246.154 23.4343 246.371 23.4343H246.407C247.082 23.4343 247.64 23.178 248.081 22.6654C248.135 22.6051 248.171 22.5749 248.189 22.5749C248.213 22.5749 248.252 22.6021 248.307 22.6564C248.361 22.7106 248.391 22.7529 248.397 22.783C248.403 22.8132 248.376 22.8584 248.316 22.9187C248.255 22.979 248.168 23.0634 248.053 23.172C247.939 23.2805 247.803 23.371 247.646 23.4434C247.49 23.5157 247.297 23.5911 247.067 23.6695C246.838 23.7479 246.597 23.7811 246.344 23.769C245.891 23.769 245.527 23.6243 245.249 23.3348C244.972 23.0453 244.83 22.6775 244.824 22.2312Z" fill="white"/>
<path d="M250.143 24.5651H250.125C250.053 24.5651 249.998 24.5229 249.962 24.4385V20.042L249.971 15.6456C250.031 15.5672 250.089 15.528 250.143 15.528C250.221 15.528 250.282 15.5733 250.324 15.6637V24.4385C250.276 24.5229 250.221 24.5651 250.161 24.5651H250.143Z" fill="white"/>
<path d="M252.386 15.1481C252.224 15.1481 252.094 15.0938 251.998 14.9853C251.901 14.8767 251.853 14.744 251.853 14.5872C251.853 14.159 252.013 13.7882 252.332 13.4746C252.652 13.161 253.05 13.0042 253.526 13.0042C254.075 13.0042 254.533 13.173 254.901 13.5107C255.269 13.8485 255.456 14.2857 255.462 14.8224C255.462 15.0817 255.402 15.329 255.281 15.5642C255.161 15.7994 255.016 16.0045 254.847 16.1793C254.678 16.3542 254.437 16.5774 254.123 16.8488C253.906 17.0357 253.605 17.3131 253.219 17.681L252.685 18.1876L253.373 18.1966C254.319 18.1966 254.823 18.1816 254.883 18.1514C254.925 18.1393 254.998 17.871 255.1 17.3463V17.3192H255.462V17.3463C255.456 17.3644 255.417 17.6388 255.345 18.1695C255.272 18.7002 255.227 18.9776 255.209 19.0017V19.0289H251.853V18.857V18.7484C251.853 18.7062 251.871 18.661 251.907 18.6128C251.943 18.5645 252.034 18.459 252.178 18.2961C252.353 18.1032 252.504 17.9343 252.631 17.7896C252.685 17.7292 252.788 17.6177 252.938 17.4548C253.089 17.292 253.192 17.1804 253.246 17.1201C253.3 17.0598 253.388 16.9603 253.508 16.8216C253.629 16.6829 253.713 16.5804 253.762 16.5141C253.81 16.4477 253.879 16.3573 253.97 16.2427C254.06 16.1281 254.123 16.0316 254.16 15.9532C254.196 15.8748 254.241 15.7873 254.295 15.6909C254.35 15.5944 254.389 15.4979 254.413 15.4014C254.437 15.3049 254.458 15.2144 254.476 15.13C254.494 15.0456 254.503 14.9461 254.503 14.8315C254.503 14.4515 254.401 14.1229 254.196 13.8454C253.991 13.568 253.698 13.4293 253.318 13.4293C253.119 13.4293 252.944 13.4806 252.794 13.5831C252.643 13.6856 252.537 13.7851 252.477 13.8816C252.417 13.9781 252.386 14.0354 252.386 14.0535C252.386 14.0595 252.402 14.0626 252.432 14.0626C252.54 14.0626 252.652 14.1048 252.766 14.1892C252.881 14.2736 252.938 14.4123 252.938 14.6053C252.938 14.7561 252.89 14.8827 252.794 14.9853C252.697 15.0878 252.561 15.1421 252.386 15.1481Z" fill="white"/>
<path d="M228.306 32.9248C228.143 32.9248 228.014 32.8705 227.917 32.762C227.821 32.6534 227.772 32.5208 227.772 32.364C227.772 31.9358 227.932 31.5649 228.252 31.2513C228.572 30.9377 228.97 30.7809 229.446 30.7809C229.995 30.7809 230.453 30.9497 230.821 31.2875C231.189 31.6252 231.376 32.0624 231.382 32.5991C231.382 32.8585 231.322 33.1057 231.201 33.3409C231.08 33.5761 230.936 33.7812 230.767 33.9561C230.598 34.131 230.357 34.3541 230.043 34.6255C229.826 34.8124 229.524 35.0898 229.138 35.4577L228.605 35.9643L229.292 35.9734C230.239 35.9734 230.743 35.9583 230.803 35.9281C230.845 35.9161 230.917 35.6477 231.02 35.123V35.0959H231.382V35.123C231.376 35.1411 231.337 35.4155 231.264 35.9462C231.192 36.4769 231.147 36.7543 231.129 36.7785V36.8056H227.772V36.6337V36.5252C227.772 36.483 227.791 36.4377 227.827 36.3895C227.863 36.3412 227.953 36.2357 228.098 36.0729C228.273 35.8799 228.424 35.711 228.55 35.5663C228.605 35.506 228.707 35.3944 228.858 35.2316C229.009 35.0687 229.111 34.9572 229.166 34.8969C229.22 34.8366 229.307 34.737 229.428 34.5983C229.549 34.4596 229.633 34.3571 229.681 34.2908C229.729 34.2244 229.799 34.134 229.889 34.0194C229.98 33.9048 230.043 33.8083 230.079 33.7299C230.115 33.6515 230.161 33.5641 230.215 33.4676C230.269 33.3711 230.308 33.2746 230.333 33.1781C230.357 33.0816 230.378 32.9911 230.396 32.9067C230.414 32.8223 230.423 32.7228 230.423 32.6082C230.423 32.2283 230.32 31.8996 230.115 31.6222C229.91 31.3448 229.618 31.206 229.238 31.206C229.039 31.206 228.864 31.2573 228.713 31.3598C228.562 31.4624 228.457 31.5619 228.397 31.6584C228.336 31.7548 228.306 31.8121 228.306 31.8302C228.306 31.8363 228.321 31.8393 228.351 31.8393C228.46 31.8393 228.572 31.8815 228.686 31.9659C228.801 32.0504 228.858 32.1891 228.858 32.382C228.858 32.5328 228.81 32.6595 228.713 32.762C228.617 32.8645 228.481 32.9188 228.306 32.9248Z" fill="white"/>
<path d="M233.508 36.9051C233.098 36.9051 232.766 36.7694 232.513 36.498C232.259 36.2266 232.13 35.8859 232.124 35.4758C232.124 34.8727 232.344 34.3119 232.784 33.7932C233.224 33.2746 233.737 32.9821 234.322 32.9158C234.328 32.9097 234.75 32.9067 235.588 32.9067H236.837C236.843 32.9128 236.852 32.9188 236.864 32.9248C236.876 32.9308 236.888 32.9369 236.9 32.9429C236.912 32.9489 236.921 32.955 236.927 32.961C236.933 32.967 236.942 32.9761 236.954 32.9881C236.966 33.0002 236.972 33.0062 236.972 33.0062C236.972 33.0062 236.978 33.0183 236.99 33.0424C237.003 33.0665 237.006 33.0786 237 33.0786C236.993 33.0786 236.996 33.0937 237.009 33.1238C237.021 33.154 237.024 33.1721 237.018 33.1781C237.018 33.4435 236.822 33.5761 236.43 33.5761C236.387 33.5761 236.336 33.5761 236.276 33.5761C236.216 33.5761 236.173 33.5731 236.149 33.5671H235.606L235.652 33.6575C235.76 33.8867 235.814 34.143 235.814 34.4265C235.814 35.0899 235.573 35.6688 235.091 36.1633C234.608 36.6578 234.081 36.9051 233.508 36.9051ZM235.109 34.2908C235.109 33.8083 234.853 33.5671 234.34 33.5671C233.592 33.5671 233.107 34.0918 232.884 35.1411C232.877 35.1652 232.874 35.1833 232.874 35.1954C232.826 35.4185 232.802 35.6025 232.802 35.7472C232.802 36.0487 232.877 36.2598 233.028 36.3804C233.179 36.501 233.351 36.5644 233.544 36.5704C233.87 36.5704 234.168 36.4287 234.439 36.1452C234.614 35.9643 234.756 35.7231 234.865 35.4215C234.973 35.12 235.04 34.8788 235.064 34.6979C235.088 34.5169 235.103 34.3812 235.109 34.2908Z" fill="white"/>
<path d="M237.859 34.5441C237.859 34.1279 237.889 33.7329 237.949 33.359C238.01 32.9851 238.079 32.6625 238.157 32.3911C238.236 32.1197 238.347 31.8544 238.492 31.595C238.637 31.3357 238.751 31.1337 238.836 30.9889C238.92 30.8442 239.047 30.6874 239.216 30.5185C239.385 30.3497 239.484 30.2472 239.514 30.211C239.544 30.1748 239.62 30.1115 239.74 30.021H239.858H239.894C239.979 30.021 240.021 30.0481 240.021 30.1024C240.021 30.1205 239.97 30.1838 239.867 30.2924C239.765 30.4009 239.641 30.5608 239.496 30.7718C239.351 30.9829 239.204 31.2422 239.053 31.5498C238.902 31.8574 238.776 32.2735 238.673 32.7982C238.571 33.3228 238.519 33.9048 238.519 34.5441C238.519 35.1833 238.571 35.7623 238.673 36.2809C238.776 36.7996 238.899 37.2187 239.044 37.5383C239.189 37.858 239.336 38.1173 239.487 38.3163C239.638 38.5153 239.765 38.6751 239.867 38.7957C239.97 38.9164 240.021 38.9797 240.021 38.9857C240.021 39.04 239.976 39.0671 239.885 39.0671H239.858H239.74L239.487 38.85C238.92 38.3374 238.507 37.6981 238.248 36.9322C237.989 36.1663 237.859 35.3703 237.859 34.5441Z" fill="white"/>
<path d="M240.763 33.3228C240.72 33.2806 240.699 33.2505 240.699 33.2324C240.699 33.2083 240.708 33.16 240.726 33.0876C240.745 33.0153 240.76 32.9731 240.772 32.961C240.784 32.9308 240.811 32.9158 240.853 32.9158C240.895 32.9158 241.049 32.9128 241.314 32.9067H241.794L241.966 32.183C241.984 32.1167 242.005 32.0292 242.029 31.9207C242.053 31.8121 242.074 31.7337 242.092 31.6855C242.111 31.6372 242.129 31.5769 242.147 31.5046C242.165 31.4322 242.189 31.3809 242.219 31.3508C242.249 31.3206 242.279 31.2845 242.31 31.2422C242.34 31.2 242.382 31.1729 242.436 31.1608C242.49 31.1488 242.545 31.1427 242.599 31.1427C242.708 31.1488 242.783 31.1819 242.825 31.2422C242.867 31.3025 242.889 31.3598 242.889 31.4141C242.889 31.4563 242.861 31.598 242.807 31.8393C242.753 32.0805 242.693 32.3187 242.626 32.5539L242.536 32.8886C242.536 32.9007 242.686 32.9067 242.988 32.9067H243.449C243.492 32.9489 243.513 32.9821 243.513 33.0062C243.513 33.1389 243.473 33.2444 243.395 33.3228H242.427L242.102 34.6345C241.866 35.5994 241.749 36.1181 241.749 36.1905C241.749 36.4438 241.83 36.5704 241.993 36.5704C242.204 36.5704 242.409 36.4679 242.608 36.2628C242.807 36.0578 242.967 35.8045 243.088 35.503C243.1 35.4668 243.115 35.4457 243.133 35.4396C243.151 35.4336 243.196 35.4276 243.268 35.4215H243.305C243.395 35.4215 243.44 35.4457 243.44 35.4939C243.44 35.512 243.431 35.5482 243.413 35.6025C243.383 35.699 243.329 35.8135 243.25 35.9462C243.172 36.0789 243.069 36.2206 242.943 36.3714C242.816 36.5222 242.662 36.6488 242.481 36.7513C242.301 36.8538 242.117 36.9051 241.93 36.9051C241.749 36.9051 241.577 36.8599 241.414 36.7694C241.251 36.679 241.134 36.5222 241.061 36.299C241.049 36.2508 241.043 36.1694 241.043 36.0548V35.8919L241.36 34.6255C241.571 33.7751 241.679 33.347 241.685 33.3409C241.685 33.3289 241.532 33.3228 241.224 33.3228H240.763Z" fill="white"/>
<path d="M244.336 30.0301L244.372 30.021C244.402 30.021 244.432 30.021 244.463 30.021H244.571L244.824 30.2381C245.391 30.7507 245.804 31.39 246.064 32.1559C246.323 32.9218 246.453 33.7179 246.453 34.5441C246.453 34.9542 246.423 35.3492 246.362 35.7291C246.302 36.109 246.233 36.4317 246.154 36.697C246.076 36.9624 245.964 37.2277 245.819 37.4931C245.675 37.7585 245.56 37.9605 245.476 38.0992C245.391 38.2379 245.268 38.3917 245.105 38.5605C244.942 38.7294 244.846 38.8289 244.815 38.8591C244.785 38.8892 244.716 38.9465 244.607 39.0309C244.589 39.049 244.577 39.0611 244.571 39.0671H244.463C244.414 39.0671 244.381 39.0671 244.363 39.0671C244.345 39.0671 244.33 39.0581 244.318 39.04C244.306 39.0219 244.297 38.9948 244.291 38.9586C244.297 38.9525 244.33 38.9133 244.39 38.841C245.325 37.87 245.792 36.4377 245.792 34.5441C245.792 32.6504 245.325 31.2181 244.39 30.2472C244.33 30.1748 244.297 30.1356 244.291 30.1296C244.291 30.0813 244.306 30.0481 244.336 30.0301Z" fill="white"/>
<path d="M248.298 29.6411C248.135 29.6411 248.006 29.5868 247.909 29.4782C247.813 29.3697 247.764 29.237 247.764 29.0802C247.764 28.652 247.924 28.2811 248.244 27.9675C248.563 27.6539 248.961 27.4971 249.438 27.4971C249.987 27.4971 250.445 27.666 250.813 28.0037C251.181 28.3414 251.368 28.7787 251.374 29.3154C251.374 29.5747 251.313 29.822 251.193 30.0572C251.072 30.2924 250.928 30.4974 250.759 30.6723C250.59 30.8472 250.349 31.0704 250.035 31.3417C249.818 31.5287 249.516 31.8061 249.13 32.174L248.597 32.6806L249.284 32.6896C250.231 32.6896 250.735 32.6745 250.795 32.6444C250.837 32.6323 250.909 32.364 251.012 31.8393V31.8121H251.374V31.8393C251.368 31.8574 251.329 32.1318 251.256 32.6625C251.184 33.1932 251.139 33.4706 251.12 33.4947V33.5219H247.764V33.35V33.2414C247.764 33.1992 247.782 33.154 247.819 33.1057C247.855 33.0575 247.945 32.952 248.09 32.7891C248.265 32.5961 248.416 32.4273 248.542 32.2825C248.597 32.2222 248.699 32.1107 248.85 31.9478C249.001 31.785 249.103 31.6734 249.157 31.6131C249.212 31.5528 249.299 31.4533 249.42 31.3146C249.54 31.1759 249.625 31.0734 249.673 31.007C249.721 30.9407 249.791 30.8502 249.881 30.7357C249.972 30.6211 250.035 30.5246 250.071 30.4462C250.107 30.3678 250.153 30.2803 250.207 30.1838C250.261 30.0873 250.3 29.9909 250.324 29.8944C250.349 29.7979 250.37 29.7074 250.388 29.623C250.406 29.5386 250.415 29.439 250.415 29.3245C250.415 28.9445 250.312 28.6158 250.107 28.3384C249.902 28.061 249.61 27.9223 249.23 27.9223C249.031 27.9223 248.856 27.9736 248.705 28.0761C248.554 28.1786 248.449 28.2781 248.389 28.3746C248.328 28.4711 248.298 28.5284 248.298 28.5465C248.298 28.5525 248.313 28.5555 248.343 28.5555C248.452 28.5555 248.563 28.5978 248.678 28.6822C248.793 28.7666 248.85 28.9053 248.85 29.0983C248.85 29.2491 248.802 29.3757 248.705 29.4782C248.609 29.5808 248.473 29.635 248.298 29.6411Z" fill="white"/>
<path d="M257.66 26.7282H221.951V25.9605H257.66V26.7282Z" fill="white"/>
<path d="M260.74 20.4744C260.74 20.3296 260.837 20.2572 261.03 20.2572H261.12H261.356C261.887 20.7036 262.393 21.1922 262.876 21.7231C263.359 22.254 263.901 23.008 264.505 23.9853C265.108 24.9626 265.633 26.0062 266.079 27.1162C266.526 28.2262 266.894 29.6137 267.183 31.2787C267.473 32.9437 267.624 34.6991 267.636 36.5451C267.648 38.3911 267.497 40.1405 267.183 41.7934C266.869 43.4464 266.502 44.8339 266.079 45.9559C265.657 47.078 265.132 48.1216 264.505 49.0868C263.877 50.052 263.328 50.8061 262.858 51.349C262.387 51.892 261.887 52.3806 261.356 52.8149H261.12C260.964 52.8149 260.861 52.8029 260.813 52.7788C260.765 52.7546 260.74 52.6943 260.74 52.5978C261.102 52.2358 261.555 51.6989 262.098 50.9871C264.185 48.188 265.428 44.5443 265.826 40.0561C265.922 39.1271 265.971 37.9507 265.971 36.527C265.971 35.1154 265.922 33.9451 265.826 33.0161C265.367 27.8039 263.751 23.7138 260.976 20.7458C260.831 20.5769 260.752 20.4864 260.74 20.4744Z" fill="white"/>
</g>
<defs>
<filter id="filter0_d_3_233" x="0" y="0" width="368" height="74" filterUnits="userSpaceOnUse" color-interpolation-filters="sRGB">
<feFlood flood-opacity="0" result="BackgroundImageFix"/>
<feColorMatrix in="SourceAlpha" type="matrix" values="0 0 0 0 0 0 0 0 0 0 0 0 0 0 0 0 0 0 127 0" result="hardAlpha"/>
<feOffset dy="4"/>
<feGaussianBlur stdDeviation="2"/>
<feComposite in2="hardAlpha" operator="out"/>
<feColorMatrix type="matrix" values="0 0 0 0 0 0 0 0 0 0 0 0 0 0 0 0 0 0 0.25 0"/>
<feBlend mode="normal" in2="BackgroundImageFix" result="effect1_dropShadow_3_233"/>
<feBlend mode="normal" in="SourceGraphic" in2="effect1_dropShadow_3_233" result="shape"/>
</filter>
<clipPath id="clip0_3_233">
<rect width="173.92" height="39.824" fill="white" transform="translate(97 13)"/>
</clipPath>
</defs>
</svg>
