<svg width="368" height="74" viewBox="0 0 368 74" fill="none" xmlns="http://www.w3.org/2000/svg">
<g filter="url(#filter0_d_3_154)">
<rect x="4" width="360" height="66" fill="#0D1117"/>
</g>
<g clip-path="url(#clip0_3_154)">
<path d="M48.5425 42.0779H48.5063C48.3615 42.0779 48.2529 41.9935 48.1806 41.8246V33.0299L48.1987 24.2353C48.3193 24.0784 48.4339 24 48.5425 24C48.6993 24 48.82 24.0905 48.9044 24.2714V41.8246C48.8079 41.9935 48.6993 42.0779 48.5787 42.0779H48.5425Z" fill="white"/>
<path d="M53.5732 42.0779H53.537C53.3922 42.0779 53.2836 41.9935 53.2113 41.8246V33.0299L53.2293 24.2353C53.35 24.0784 53.4646 24 53.5732 24C53.73 24 53.8506 24.0905 53.9351 24.2714V41.8246C53.8386 41.9935 53.73 42.0779 53.6094 42.0779H53.5732Z" fill="white"/>
<path d="M57.0295 32.3423C57.114 31.8356 57.4397 31.2505 58.0067 30.587C58.5737 29.9234 59.2734 29.5856 60.1058 29.5736C60.5281 29.5736 60.9141 29.6822 61.264 29.8993C61.6138 30.1165 61.8732 30.3879 62.0421 30.7136C62.5488 29.9536 63.158 29.5736 63.8698 29.5736C64.3162 29.5736 64.7022 29.7063 65.0279 29.9717C65.3537 30.2371 65.5226 30.593 65.5346 31.0394C65.5346 31.3892 65.4502 31.6727 65.2813 31.8899C65.1124 32.107 64.9495 32.2397 64.7927 32.288C64.6359 32.3362 64.4971 32.3604 64.3765 32.3604C64.1473 32.3604 63.9603 32.294 63.8155 32.1613C63.6707 32.0286 63.5984 31.8537 63.5984 31.6365C63.5984 31.0816 63.9 30.7016 64.5032 30.4965C64.3705 30.3396 64.1292 30.2612 63.7793 30.2612C63.6225 30.2612 63.5079 30.2733 63.4355 30.2974C62.9771 30.4904 62.6393 30.8886 62.4221 31.4918C61.6983 34.1579 61.3364 35.7142 61.3364 36.1605C61.3364 36.4983 61.4329 36.7396 61.6259 36.8844C61.8189 37.0291 62.03 37.1015 62.2593 37.1015C62.7056 37.1015 63.146 36.9025 63.5803 36.5043C64.0146 36.1062 64.3101 35.6176 64.467 35.0386C64.5032 34.9179 64.5394 34.8516 64.5755 34.8395C64.6117 34.8274 64.7082 34.8154 64.8651 34.8033H64.9375C65.1184 34.8033 65.2089 34.8516 65.2089 34.9481C65.2089 34.9602 65.1968 35.0265 65.1727 35.1471C64.9797 35.8348 64.6057 36.444 64.0508 36.9748C63.4958 37.5057 62.8504 37.7711 62.1145 37.7711C61.27 37.7711 60.6306 37.391 60.1963 36.631C59.7017 37.379 59.1347 37.753 58.4953 37.753H58.3867C57.7956 37.753 57.3733 37.5961 57.12 37.2825C56.8666 36.9688 56.7339 36.637 56.7219 36.2872C56.7219 35.9011 56.8365 35.5875 57.0657 35.3462C57.2949 35.1049 57.5664 34.9843 57.88 34.9843C58.3988 34.9843 58.6582 35.2376 58.6582 35.7443C58.6582 35.9856 58.5858 36.1967 58.441 36.3777C58.2962 36.5586 58.1575 36.6793 58.0248 36.7396C57.8921 36.7999 57.8137 36.8301 57.7895 36.8301L57.7353 36.8482C57.7353 36.8602 57.7714 36.8844 57.8438 36.9206C57.9162 36.9567 58.0127 36.999 58.1334 37.0472C58.254 37.0955 58.3686 37.1136 58.4772 37.1015C58.9115 37.1015 59.2855 36.8301 59.5991 36.2872C59.7077 36.0942 59.8465 35.684 60.0154 35.0567C60.1842 34.4293 60.3531 33.7779 60.522 33.1023C60.6909 32.4267 60.7874 32.0286 60.8116 31.908C60.8719 31.5822 60.9021 31.347 60.9021 31.2022C60.9021 30.8644 60.8116 30.6231 60.6306 30.4784C60.4497 30.3336 60.2446 30.2612 60.0154 30.2612C59.5328 30.2612 59.0804 30.4542 58.6582 30.8403C58.2359 31.2263 57.9403 31.721 57.7714 32.3242C57.7473 32.4327 57.7172 32.4931 57.681 32.5051C57.6448 32.5172 57.5483 32.5293 57.3914 32.5413H57.1381C57.0657 32.4689 57.0295 32.4026 57.0295 32.3423Z" fill="white"/>
<path d="M68.1405 33.048C68.1405 32.2156 68.2008 31.4254 68.3214 30.6774C68.4421 29.9295 68.5808 29.284 68.7376 28.7412C68.8945 28.1983 69.1176 27.6675 69.4072 27.1487C69.6967 26.63 69.9259 26.2258 70.0948 25.9363C70.2637 25.6467 70.5171 25.3331 70.8549 24.9953C71.1926 24.6575 71.3917 24.4524 71.452 24.38C71.5123 24.3076 71.6631 24.181 71.9044 24H72.1397H72.2121C72.381 24 72.4654 24.0543 72.4654 24.1629C72.4654 24.1991 72.3629 24.3257 72.1578 24.5429C71.9527 24.76 71.7054 25.0797 71.4158 25.502C71.1263 25.9242 70.8307 26.443 70.5291 27.0582C70.2275 27.6735 69.9742 28.5059 69.7691 29.5555C69.564 30.605 69.4615 31.7692 69.4615 33.048C69.4615 34.3268 69.564 35.4849 69.7691 36.5224C69.9742 37.5599 70.2215 38.3984 70.511 39.0378C70.8006 39.6772 71.0961 40.1959 71.3977 40.594C71.6993 40.9922 71.9527 41.3118 72.1578 41.5531C72.3629 41.7944 72.4654 41.9211 72.4654 41.9331C72.4654 42.0417 72.3749 42.096 72.194 42.096H72.1397H71.9044L71.3977 41.6617C70.2637 40.6363 69.4373 39.3575 68.9186 37.8254C68.3998 36.2932 68.1405 34.7008 68.1405 33.048Z" fill="white"/>
<path d="M73.9493 30.605C73.8648 30.5206 73.8226 30.4603 73.8226 30.4241C73.8226 30.3758 73.8407 30.2793 73.8769 30.1346C73.9131 29.9898 73.9432 29.9053 73.9674 29.8812C73.9915 29.8209 74.0458 29.7907 74.1302 29.7907C74.2147 29.7907 74.5223 29.7847 75.0531 29.7726H76.0122L76.356 28.325C76.3922 28.1922 76.4345 28.0173 76.4827 27.8002C76.531 27.583 76.5732 27.4262 76.6094 27.3297C76.6456 27.2332 76.6818 27.1125 76.718 26.9678C76.7542 26.823 76.8024 26.7204 76.8627 26.6601C76.923 26.5998 76.9834 26.5274 77.0437 26.443C77.104 26.3585 77.1885 26.3042 77.297 26.2801C77.4056 26.256 77.5142 26.2439 77.6228 26.2439C77.8399 26.256 77.9907 26.3223 78.0752 26.443C78.1596 26.5636 78.2018 26.6782 78.2018 26.7868C78.2018 26.8712 78.1475 27.1547 78.039 27.6373C77.9304 28.1199 77.8098 28.5964 77.677 29.0669L77.4961 29.7364C77.4961 29.7606 77.7977 29.7726 78.4009 29.7726H79.3238C79.4082 29.8571 79.4505 29.9234 79.4505 29.9717C79.4505 30.2371 79.372 30.4482 79.2152 30.605H77.2789L76.6275 33.229C76.157 35.1592 75.9217 36.1967 75.9217 36.3415C75.9217 36.8482 76.0846 37.1015 76.4103 37.1015C76.8326 37.1015 77.2427 36.8964 77.6409 36.4862C78.039 36.0761 78.3587 35.5694 78.5999 34.9662C78.6241 34.8938 78.6542 34.8516 78.6904 34.8395C78.7266 34.8274 78.8171 34.8154 78.9619 34.8033H79.0342C79.2152 34.8033 79.3057 34.8516 79.3057 34.9481C79.3057 34.9843 79.2876 35.0567 79.2514 35.1652C79.1911 35.3583 79.0825 35.5875 78.9257 35.8529C78.7688 36.1183 78.5638 36.4018 78.3104 36.7034C78.0571 37.005 77.7494 37.2583 77.3875 37.4634C77.0256 37.6685 76.6576 37.7711 76.2837 37.7711C75.9217 37.7711 75.5779 37.6806 75.2522 37.4996C74.9265 37.3187 74.6912 37.005 74.5464 36.5586C74.5223 36.4621 74.5102 36.2993 74.5102 36.07V35.7443L75.1436 33.2109C75.5658 31.5098 75.783 30.6533 75.7951 30.6412C75.7951 30.6171 75.4874 30.605 74.8722 30.605H73.9493Z" fill="white"/>
<path d="M81.0972 24.0181L81.1696 24C81.2299 24 81.2902 24 81.3505 24H81.5677L82.0744 24.4343C83.2084 25.4598 84.0348 26.7385 84.5535 28.2707C85.0723 29.8028 85.3317 31.3952 85.3317 33.048C85.3317 33.8684 85.2713 34.6586 85.1507 35.4186C85.0301 36.1786 84.8913 36.824 84.7345 37.3549C84.5777 37.8857 84.3545 38.4165 84.0649 38.9473C83.7754 39.4781 83.5462 39.8823 83.3773 40.1597C83.2084 40.4372 82.9611 40.7448 82.6354 41.0826C82.3096 41.4204 82.1166 41.6195 82.0563 41.6798C81.996 41.7401 81.8572 41.8547 81.6401 42.0236C81.6039 42.0598 81.5798 42.0839 81.5677 42.096H81.3505C81.254 42.096 81.1877 42.096 81.1515 42.096C81.1153 42.096 81.0851 42.0779 81.061 42.0417C81.0369 42.0055 81.0188 41.9512 81.0067 41.8789C81.0188 41.8668 81.0851 41.7884 81.2058 41.6436C83.0757 39.7013 84.0106 36.8361 84.0106 33.048C84.0106 29.2599 83.0757 26.3947 81.2058 24.4524C81.0851 24.3076 81.0188 24.2292 81.0067 24.2172C81.0067 24.1206 81.0369 24.0543 81.0972 24.0181Z" fill="white"/>
<path d="M92.5918 33.2833C92.5918 33.2833 92.5918 33.2048 92.5918 33.048C92.5918 32.8912 92.6762 32.7705 92.8451 32.6861H103.359C103.54 32.7826 103.63 32.9032 103.63 33.048C103.63 33.1928 103.54 33.3134 103.359 33.4099H92.8451C92.6762 33.3255 92.5918 33.2048 92.5918 33.048V33.2833Z" fill="white"/>
<path d="M109.551 32.3785C109.563 32.3061 109.581 32.2096 109.606 32.0889C109.63 31.9683 109.702 31.7391 109.823 31.4013C109.943 31.0635 110.064 30.78 110.185 30.5508C110.305 30.3216 110.498 30.0984 110.764 29.8812C111.029 29.6641 111.295 29.5615 111.56 29.5736C111.825 29.5856 112.085 29.6279 112.338 29.7003C112.591 29.7726 112.772 29.8812 112.881 30.026C112.99 30.1708 113.086 30.3035 113.171 30.4241C113.255 30.5447 113.303 30.6593 113.315 30.7679L113.351 30.8946C113.351 30.9187 113.358 30.9308 113.37 30.9308L113.569 30.7317C114.292 29.9596 115.143 29.5736 116.12 29.5736C116.325 29.5736 116.512 29.5856 116.681 29.6098C116.85 29.6339 117.007 29.6761 117.152 29.7364C117.296 29.7968 117.411 29.8571 117.495 29.9174C117.58 29.9777 117.67 30.0501 117.767 30.1346C117.863 30.219 117.924 30.2974 117.948 30.3698C117.972 30.4422 118.02 30.5206 118.093 30.6051C118.165 30.6895 118.189 30.7619 118.165 30.8222C118.141 30.8825 118.159 30.9368 118.219 30.9851C118.28 31.0333 118.292 31.0756 118.256 31.1117L118.4 30.9308C119.16 30.026 120.059 29.5736 121.097 29.5736C121.748 29.5736 122.273 29.7364 122.671 30.0622C123.069 30.3879 123.274 30.8644 123.286 31.4918C123.286 32.107 123.057 33.0601 122.599 34.3509C122.14 35.6418 121.911 36.4139 121.911 36.6672C121.923 36.8361 121.953 36.9507 122.001 37.011C122.05 37.0714 122.14 37.1015 122.273 37.1015C122.611 37.1015 122.924 36.9206 123.214 36.5586C123.503 36.1967 123.739 35.7021 123.92 35.0748C123.956 34.9421 123.992 34.8636 124.028 34.8395C124.064 34.8154 124.161 34.8033 124.318 34.8033C124.559 34.8033 124.68 34.8516 124.68 34.9481C124.68 34.9602 124.655 35.0506 124.607 35.2195C124.511 35.5694 124.378 35.9132 124.209 36.251C124.04 36.5888 123.763 36.9266 123.377 37.2644C122.991 37.6022 122.574 37.765 122.128 37.753C121.561 37.753 121.151 37.5901 120.898 37.2644C120.644 36.9387 120.518 36.6009 120.518 36.251C120.518 36.0218 120.735 35.298 121.169 34.0795C121.603 32.861 121.826 31.9442 121.839 31.3289C121.839 30.6171 121.573 30.2612 121.042 30.2612H120.952C119.914 30.2612 119.04 30.8705 118.328 32.0889L118.201 32.3061L117.604 34.7309C117.206 36.3113 116.977 37.1618 116.916 37.2825C116.76 37.6082 116.5 37.7711 116.138 37.7711C115.981 37.7711 115.855 37.7288 115.758 37.6444C115.662 37.56 115.595 37.4876 115.559 37.4272C115.523 37.3669 115.505 37.3066 115.505 37.2463C115.505 37.1136 115.71 36.251 116.12 34.6586L116.772 32.0165C116.808 31.8356 116.826 31.6064 116.826 31.3289C116.826 30.6171 116.561 30.2612 116.03 30.2612H115.939C114.902 30.2612 114.027 30.8705 113.315 32.0889L113.189 32.3061L112.591 34.7309C112.193 36.3113 111.964 37.1618 111.904 37.2825C111.747 37.6082 111.488 37.7711 111.126 37.7711C110.969 37.7711 110.842 37.7349 110.746 37.6625C110.649 37.5901 110.583 37.5177 110.547 37.4453C110.51 37.373 110.498 37.3126 110.51 37.2644C110.51 37.1076 110.74 36.1183 111.198 34.2966C111.669 32.4388 111.904 31.4676 111.904 31.3832C111.94 31.2022 111.958 31.0394 111.958 30.8946C111.958 30.4603 111.807 30.2431 111.506 30.2431C111.24 30.2431 111.017 30.412 110.836 30.7498C110.655 31.0876 110.516 31.4556 110.42 31.8537C110.323 32.2518 110.251 32.4689 110.203 32.5051C110.179 32.5293 110.082 32.5413 109.913 32.5413H109.66C109.588 32.4689 109.551 32.4147 109.551 32.3785Z" fill="white"/>
<path d="M125.495 38.2522C125.495 37.3225 125.861 36.4866 126.595 35.7446C127.328 35.0025 128.122 34.6315 128.975 34.6315C129.452 34.6315 129.827 34.7339 130.1 34.9386C130.373 35.1433 130.514 35.4119 130.523 35.7446C130.523 35.9919 130.442 36.2009 130.28 36.3715C130.117 36.5421 129.913 36.6316 129.665 36.6402C129.503 36.6402 129.375 36.5975 129.282 36.5122C129.188 36.4269 129.141 36.299 129.141 36.1284C129.141 35.9578 129.188 35.8128 129.282 35.6934C129.375 35.574 129.469 35.4844 129.563 35.4247C129.657 35.365 129.717 35.3394 129.742 35.348H129.755C129.755 35.3309 129.729 35.3053 129.678 35.2712C129.627 35.2371 129.537 35.203 129.41 35.1689C129.282 35.1347 129.137 35.1177 128.975 35.1177C128.719 35.1177 128.476 35.1774 128.245 35.2968C128.066 35.3736 127.883 35.5058 127.695 35.6934C127.32 36.0687 127.047 36.5975 126.876 37.2799C126.706 37.9622 126.616 38.4569 126.608 38.7639C126.608 39.1563 126.719 39.4505 126.94 39.6467C127.128 39.8514 127.375 39.9538 127.682 39.9538H127.734C128.689 39.9538 129.478 39.5913 130.1 38.8663C130.177 38.781 130.228 38.7384 130.254 38.7384C130.288 38.7384 130.343 38.7767 130.42 38.8535C130.497 38.9303 130.54 38.99 130.548 39.0326C130.557 39.0753 130.518 39.1392 130.433 39.2245C130.348 39.3098 130.224 39.4292 130.062 39.5827C129.9 39.7363 129.708 39.8642 129.486 39.9666C129.265 40.0689 128.992 40.1755 128.667 40.2864C128.343 40.3973 128.002 40.4442 127.644 40.4271C127.004 40.4271 126.488 40.2224 126.096 39.813C125.704 39.4036 125.503 38.8834 125.495 38.2522Z" fill="white"/>
<path d="M133.206 33.048C133.206 32.2156 133.267 31.4254 133.387 30.6774C133.508 29.9295 133.647 29.284 133.804 28.7412C133.96 28.1983 134.184 27.6675 134.473 27.1487C134.763 26.63 134.992 26.2258 135.161 25.9363C135.33 25.6467 135.583 25.3331 135.921 24.9953C136.259 24.6575 136.458 24.4524 136.518 24.38C136.578 24.3076 136.729 24.181 136.97 24H137.206H137.278C137.447 24 137.531 24.0543 137.531 24.1629C137.531 24.1991 137.429 24.3257 137.224 24.5429C137.019 24.76 136.771 25.0797 136.482 25.502C136.192 25.9242 135.897 26.443 135.595 27.0582C135.294 27.6735 135.04 28.5059 134.835 29.5555C134.63 30.605 134.527 31.7692 134.527 33.048C134.527 34.3268 134.63 35.4849 134.835 36.5224C135.04 37.5599 135.287 38.3984 135.577 39.0378C135.867 39.6772 136.162 40.1959 136.464 40.594C136.765 40.9922 137.019 41.3118 137.224 41.5531C137.429 41.7944 137.531 41.9211 137.531 41.9331C137.531 42.0417 137.441 42.096 137.26 42.096H137.206H136.97L136.464 41.6617C135.33 40.6363 134.503 39.3575 133.985 37.8254C133.466 36.2932 133.206 34.7008 133.206 33.048Z" fill="white"/>
<path d="M139.015 30.605C138.931 30.5206 138.889 30.4603 138.889 30.4241C138.889 30.3758 138.907 30.2793 138.943 30.1346C138.979 29.9898 139.009 29.9053 139.033 29.8812C139.057 29.8209 139.112 29.7907 139.196 29.7907C139.281 29.7907 139.588 29.7847 140.119 29.7726H141.078L141.422 28.325C141.458 28.1922 141.5 28.0173 141.549 27.8002C141.597 27.583 141.639 27.4262 141.675 27.3297C141.712 27.2332 141.748 27.1125 141.784 26.9678C141.82 26.823 141.868 26.7204 141.929 26.6601C141.989 26.5998 142.049 26.5274 142.11 26.443C142.17 26.3585 142.254 26.3042 142.363 26.2801C142.472 26.256 142.58 26.2439 142.689 26.2439C142.906 26.256 143.057 26.3223 143.141 26.443C143.226 26.5636 143.268 26.6782 143.268 26.7868C143.268 26.8712 143.214 27.1547 143.105 27.6373C142.996 28.1199 142.876 28.5964 142.743 29.0669L142.562 29.7364C142.562 29.7606 142.864 29.7726 143.467 29.7726H144.39C144.474 29.8571 144.516 29.9234 144.516 29.9717C144.516 30.2371 144.438 30.4482 144.281 30.605H142.345L141.693 33.229C141.223 35.1592 140.988 36.1967 140.988 36.3415C140.988 36.8482 141.151 37.1015 141.476 37.1015C141.899 37.1015 142.309 36.8964 142.707 36.4862C143.105 36.0761 143.425 35.5694 143.666 34.9662C143.69 34.8938 143.72 34.8516 143.756 34.8395C143.793 34.8274 143.883 34.8154 144.028 34.8033H144.1C144.281 34.8033 144.372 34.8516 144.372 34.9481C144.372 34.9843 144.354 35.0567 144.317 35.1652C144.257 35.3583 144.148 35.5875 143.992 35.8529C143.835 36.1183 143.63 36.4018 143.376 36.7034C143.123 37.005 142.815 37.2583 142.453 37.4634C142.092 37.6685 141.724 37.7711 141.35 37.7711C140.988 37.7711 140.644 37.6806 140.318 37.4996C139.992 37.3187 139.757 37.005 139.612 36.5586C139.588 36.4621 139.576 36.2993 139.576 36.07V35.7443L140.21 33.2109C140.632 31.5098 140.849 30.6533 140.861 30.6412C140.861 30.6171 140.553 30.605 139.938 30.605H139.015Z" fill="white"/>
<path d="M146.163 24.0181L146.236 24C146.296 24 146.356 24 146.417 24H146.634L147.14 24.4343C148.274 25.4598 149.101 26.7385 149.62 28.2707C150.138 29.8028 150.398 31.3952 150.398 33.048C150.398 33.8684 150.337 34.6586 150.217 35.4186C150.096 36.1786 149.957 36.824 149.8 37.3549C149.644 37.8857 149.42 38.4165 149.131 38.9473C148.841 39.4781 148.612 39.8823 148.443 40.1597C148.274 40.4372 148.027 40.7448 147.701 41.0826C147.376 41.4204 147.183 41.6195 147.122 41.6798C147.062 41.7401 146.923 41.8547 146.706 42.0236C146.67 42.0598 146.646 42.0839 146.634 42.096H146.417C146.32 42.096 146.254 42.096 146.217 42.096C146.181 42.096 146.151 42.0779 146.127 42.0417C146.103 42.0055 146.085 41.9512 146.073 41.8789C146.085 41.8668 146.151 41.7884 146.272 41.6436C148.142 39.7013 149.077 36.8361 149.077 33.048C149.077 29.2599 148.142 26.3947 146.272 24.4524C146.151 24.3076 146.085 24.2292 146.073 24.2172C146.073 24.1206 146.103 24.0543 146.163 24.0181Z" fill="white"/>
<path d="M154.632 42.0779H154.596C154.451 42.0779 154.343 41.9935 154.27 41.8246V33.0299L154.288 24.2353C154.409 24.0784 154.524 24 154.632 24C154.789 24 154.91 24.0905 154.994 24.2714V41.8246C154.898 41.9935 154.789 42.0779 154.668 42.0779H154.632Z" fill="white"/>
<path d="M159.663 42.0779H159.627C159.482 42.0779 159.373 41.9935 159.301 41.8246V33.0299L159.319 24.2353C159.44 24.0784 159.554 24 159.663 24C159.82 24 159.94 24.0905 160.025 24.2714V41.8246C159.928 41.9935 159.82 42.0779 159.699 42.0779H159.663Z" fill="white"/>
<path d="M179.402 26.063C179.498 26.063 179.583 26.0991 179.655 26.1715C179.728 26.2439 179.764 26.3344 179.764 26.443C179.764 26.5515 179.722 26.636 179.637 26.6963C179.625 26.7084 177.996 27.4865 174.751 29.0307L169.938 31.3108L174.425 33.4461C177.9 35.0868 179.661 35.9373 179.71 35.9977C179.746 36.07 179.764 36.1364 179.764 36.1967C179.764 36.4139 179.655 36.5345 179.438 36.5586H179.33L174.118 34.0976C170.619 32.4448 168.858 31.6064 168.834 31.5822C168.749 31.5219 168.707 31.4194 168.707 31.2746C168.719 31.1419 168.798 31.0394 168.942 30.967C169.039 30.9187 170.764 30.1044 174.118 28.524C177.472 26.9436 179.179 26.1353 179.239 26.0991C179.287 26.075 179.342 26.063 179.402 26.063ZM168.725 39.7073C168.725 39.5867 168.816 39.4661 168.997 39.3454H179.474C179.667 39.4178 179.764 39.5384 179.764 39.7073C179.764 39.8521 179.673 39.9727 179.492 40.0693H168.979C168.81 39.9848 168.725 39.8642 168.725 39.7073Z" fill="white"/>
<path d="M188.826 42.0779H188.79C188.645 42.0779 188.537 41.9935 188.464 41.8246V33.0299L188.482 24.2353C188.603 24.0784 188.718 24 188.826 24C188.983 24 189.104 24.0905 189.188 24.2714V41.8246C189.092 41.9935 188.983 42.0779 188.862 42.0779H188.826Z" fill="white"/>
<path d="M193.857 42.0779H193.821C193.676 42.0779 193.567 41.9935 193.495 41.8246V33.0299L193.513 24.2353C193.634 24.0784 193.748 24 193.857 24C194.014 24 194.134 24.0905 194.219 24.2714V41.8246C194.122 41.9935 194.014 42.0779 193.893 42.0779H193.857Z" fill="white"/>
<path d="M197.313 32.3423C197.398 31.8356 197.723 31.2505 198.29 30.587C198.858 29.9234 199.557 29.5856 200.39 29.5736C200.812 29.5736 201.198 29.6822 201.548 29.8993C201.898 30.1165 202.157 30.3879 202.326 30.7136C202.833 29.9536 203.442 29.5736 204.154 29.5736C204.6 29.5736 204.986 29.7063 205.312 29.9717C205.637 30.2371 205.806 30.593 205.818 31.0394C205.818 31.3892 205.734 31.6727 205.565 31.8899C205.396 32.107 205.233 32.2397 205.076 32.288C204.92 32.3362 204.781 32.3604 204.66 32.3604C204.431 32.3604 204.244 32.294 204.099 32.1613C203.955 32.0286 203.882 31.8537 203.882 31.6365C203.882 31.0816 204.184 30.7016 204.787 30.4965C204.654 30.3396 204.413 30.2612 204.063 30.2612C203.906 30.2612 203.792 30.2733 203.719 30.2974C203.261 30.4904 202.923 30.8886 202.706 31.4918C201.982 34.1579 201.62 35.7142 201.62 36.1605C201.62 36.4983 201.717 36.7396 201.91 36.8844C202.103 37.0291 202.314 37.1015 202.543 37.1015C202.989 37.1015 203.43 36.9025 203.864 36.5043C204.298 36.1062 204.594 35.6176 204.751 35.0386C204.787 34.9179 204.823 34.8516 204.859 34.8395C204.896 34.8274 204.992 34.8154 205.149 34.8033H205.221C205.402 34.8033 205.493 34.8516 205.493 34.9481C205.493 34.9602 205.481 35.0265 205.457 35.1471C205.263 35.8348 204.89 36.444 204.335 36.9748C203.78 37.5057 203.134 37.7711 202.398 37.7711C201.554 37.7711 200.914 37.391 200.48 36.631C199.985 37.379 199.418 37.753 198.779 37.753H198.671C198.079 37.753 197.657 37.5961 197.404 37.2825C197.15 36.9688 197.018 36.637 197.006 36.2872C197.006 35.9011 197.12 35.5875 197.35 35.3462C197.579 35.1049 197.85 34.9843 198.164 34.9843C198.683 34.9843 198.942 35.2376 198.942 35.7443C198.942 35.9856 198.87 36.1967 198.725 36.3777C198.58 36.5586 198.441 36.6793 198.309 36.7396C198.176 36.7999 198.097 36.8301 198.073 36.8301L198.019 36.8482C198.019 36.8602 198.055 36.8844 198.128 36.9206C198.2 36.9567 198.297 36.999 198.417 37.0472C198.538 37.0955 198.652 37.1136 198.761 37.1015C199.195 37.1015 199.569 36.8301 199.883 36.2872C199.992 36.0942 200.13 35.684 200.299 35.0567C200.468 34.4293 200.637 33.7779 200.806 33.1023C200.975 32.4267 201.071 32.0286 201.095 31.908C201.156 31.5822 201.186 31.347 201.186 31.2022C201.186 30.8644 201.095 30.6231 200.914 30.4784C200.733 30.3336 200.528 30.2612 200.299 30.2612C199.817 30.2612 199.364 30.4542 198.942 30.8403C198.52 31.2263 198.224 31.721 198.055 32.3242C198.031 32.4327 198.001 32.4931 197.965 32.5051C197.929 32.5172 197.832 32.5293 197.675 32.5413H197.422C197.35 32.4689 197.313 32.4026 197.313 32.3423Z" fill="white"/>
<path d="M208.424 33.048C208.424 32.2156 208.485 31.4254 208.605 30.6774C208.726 29.9295 208.865 29.284 209.021 28.7412C209.178 28.1983 209.401 27.6675 209.691 27.1487C209.981 26.63 210.21 26.2258 210.379 25.9363C210.548 25.6467 210.801 25.3331 211.139 24.9953C211.476 24.6575 211.676 24.4524 211.736 24.38C211.796 24.3076 211.947 24.181 212.188 24H212.423H212.496C212.665 24 212.749 24.0543 212.749 24.1629C212.749 24.1991 212.647 24.3257 212.442 24.5429C212.236 24.76 211.989 25.0797 211.7 25.502C211.41 25.9242 211.115 26.443 210.813 27.0582C210.511 27.6735 210.258 28.5059 210.053 29.5555C209.848 30.605 209.745 31.7692 209.745 33.048C209.745 34.3268 209.848 35.4849 210.053 36.5224C210.258 37.5599 210.505 38.3984 210.795 39.0378C211.084 39.6772 211.38 40.1959 211.682 40.594C211.983 40.9922 212.236 41.3118 212.442 41.5531C212.647 41.7944 212.749 41.9211 212.749 41.9331C212.749 42.0417 212.659 42.096 212.478 42.096H212.423H212.188L211.682 41.6617C210.548 40.6363 209.721 39.3575 209.202 37.8254C208.684 36.2932 208.424 34.7008 208.424 33.048Z" fill="white"/>
<path d="M214.233 30.605C214.149 30.5206 214.106 30.4603 214.106 30.4241C214.106 30.3758 214.125 30.2793 214.161 30.1346C214.197 29.9898 214.227 29.9053 214.251 29.8812C214.275 29.8209 214.33 29.7907 214.414 29.7907C214.498 29.7907 214.806 29.7847 215.337 29.7726H216.296L216.64 28.325C216.676 28.1922 216.718 28.0173 216.767 27.8002C216.815 27.583 216.857 27.4262 216.893 27.3297C216.929 27.2332 216.966 27.1125 217.002 26.9678C217.038 26.823 217.086 26.7204 217.147 26.6601C217.207 26.5998 217.267 26.5274 217.327 26.443C217.388 26.3585 217.472 26.3042 217.581 26.2801C217.689 26.256 217.798 26.2439 217.907 26.2439C218.124 26.256 218.275 26.3223 218.359 26.443C218.443 26.5636 218.486 26.6782 218.486 26.7868C218.486 26.8712 218.431 27.1547 218.323 27.6373C218.214 28.1199 218.094 28.5964 217.961 29.0669L217.78 29.7364C217.78 29.7606 218.081 29.7726 218.685 29.7726H219.608C219.692 29.8571 219.734 29.9234 219.734 29.9717C219.734 30.2371 219.656 30.4482 219.499 30.605H217.563L216.911 33.229C216.441 35.1592 216.206 36.1967 216.206 36.3415C216.206 36.8482 216.368 37.1015 216.694 37.1015C217.116 37.1015 217.527 36.8964 217.925 36.4862C218.323 36.0761 218.642 35.5694 218.884 34.9662C218.908 34.8938 218.938 34.8516 218.974 34.8395C219.01 34.8274 219.101 34.8154 219.246 34.8033H219.318C219.499 34.8033 219.589 34.8516 219.589 34.9481C219.589 34.9843 219.571 35.0567 219.535 35.1652C219.475 35.3583 219.366 35.5875 219.209 35.8529C219.053 36.1183 218.848 36.4018 218.594 36.7034C218.341 37.005 218.033 37.2583 217.671 37.4634C217.309 37.6685 216.941 37.7711 216.567 37.7711C216.206 37.7711 215.862 37.6806 215.536 37.4996C215.21 37.3187 214.975 37.005 214.83 36.5586C214.806 36.4621 214.794 36.2993 214.794 36.07V35.7443L215.427 33.2109C215.85 31.5098 216.067 30.6533 216.079 30.6412C216.079 30.6171 215.771 30.605 215.156 30.605H214.233Z" fill="white"/>
<path d="M221.381 24.0181L221.453 24C221.514 24 221.574 24 221.634 24H221.851L222.358 24.4343C223.492 25.4598 224.319 26.7385 224.837 28.2707C225.356 29.8028 225.615 31.3952 225.615 33.048C225.615 33.8684 225.555 34.6586 225.435 35.4186C225.314 36.1786 225.175 36.824 225.018 37.3549C224.861 37.8857 224.638 38.4165 224.349 38.9473C224.059 39.4781 223.83 39.8823 223.661 40.1597C223.492 40.4372 223.245 40.7448 222.919 41.0826C222.593 41.4204 222.4 41.6195 222.34 41.6798C222.28 41.7401 222.141 41.8547 221.924 42.0236C221.888 42.0598 221.864 42.0839 221.851 42.096H221.634C221.538 42.096 221.471 42.096 221.435 42.096C221.399 42.096 221.369 42.0779 221.345 42.0417C221.321 42.0055 221.303 41.9512 221.291 41.8789C221.303 41.8668 221.369 41.7884 221.49 41.6436C223.359 39.7013 224.294 36.8361 224.294 33.048C224.294 29.2599 223.359 26.3947 221.49 24.4524C221.369 24.3076 221.303 24.2292 221.291 24.2172C221.291 24.1206 221.321 24.0543 221.381 24.0181Z" fill="white"/>
<path d="M232.876 33.2833C232.876 33.2833 232.876 33.2048 232.876 33.048C232.876 32.8912 232.96 32.7705 233.129 32.6861H243.643C243.824 32.7826 243.914 32.9032 243.914 33.048C243.914 33.1928 243.824 33.3134 243.643 33.4099H233.129C232.96 33.3255 232.876 33.2048 232.876 33.048V33.2833Z" fill="white"/>
<path d="M249.835 32.3785C249.847 32.3061 249.865 32.2096 249.889 32.0889C249.914 31.9683 249.986 31.7391 250.107 31.4013C250.227 31.0635 250.348 30.78 250.468 30.5508C250.589 30.3215 250.782 30.0984 251.048 29.8812C251.313 29.6641 251.578 29.5615 251.844 29.5736C252.109 29.5856 252.369 29.6279 252.622 29.7002C252.875 29.7726 253.056 29.8812 253.165 30.026C253.273 30.1707 253.37 30.3034 253.454 30.4241C253.539 30.5447 253.587 30.6593 253.599 30.7679L253.635 30.8946C253.635 30.9187 253.641 30.9308 253.653 30.9308L253.852 30.7317C254.576 29.9596 255.427 29.5736 256.404 29.5736C256.609 29.5736 256.796 29.5856 256.965 29.6098C257.134 29.6339 257.291 29.6761 257.435 29.7364C257.58 29.7968 257.695 29.8571 257.779 29.9174C257.864 29.9777 257.954 30.0501 258.051 30.1346C258.147 30.219 258.208 30.2974 258.232 30.3698C258.256 30.4422 258.304 30.5206 258.376 30.605C258.449 30.6895 258.473 30.7619 258.449 30.8222C258.425 30.8825 258.443 30.9368 258.503 30.9851C258.563 31.0333 258.576 31.0755 258.539 31.1117L258.684 30.9308C259.444 30.026 260.343 29.5736 261.38 29.5736C262.032 29.5736 262.557 29.7364 262.955 30.0622C263.353 30.3879 263.558 30.8644 263.57 31.4918C263.57 32.107 263.341 33.0601 262.882 34.3509C262.424 35.6418 262.195 36.4139 262.195 36.6672C262.207 36.8361 262.237 36.9507 262.285 37.011C262.333 37.0714 262.424 37.1015 262.557 37.1015C262.894 37.1015 263.208 36.9206 263.498 36.5586C263.787 36.1967 264.022 35.7021 264.203 35.0748C264.24 34.9421 264.276 34.8636 264.312 34.8395C264.348 34.8154 264.445 34.8033 264.601 34.8033C264.843 34.8033 264.963 34.8516 264.963 34.9481C264.963 34.9602 264.939 35.0506 264.891 35.2195C264.794 35.5694 264.662 35.9132 264.493 36.251C264.324 36.5888 264.047 36.9266 263.66 37.2644C263.274 37.6022 262.858 37.765 262.412 37.753C261.845 37.753 261.435 37.5901 261.181 37.2644C260.928 36.9386 260.801 36.6009 260.801 36.251C260.801 36.0218 261.018 35.2979 261.453 34.0795C261.887 32.861 262.11 31.9442 262.122 31.3289C262.122 30.6171 261.857 30.2612 261.326 30.2612H261.236C260.198 30.2612 259.323 30.8705 258.612 32.0889L258.485 32.3061L257.888 34.7309C257.49 36.3113 257.261 37.1618 257.2 37.2825C257.043 37.6082 256.784 37.7711 256.422 37.7711C256.265 37.7711 256.139 37.7288 256.042 37.6444C255.946 37.5599 255.879 37.4876 255.843 37.4272C255.807 37.3669 255.789 37.3066 255.789 37.2463C255.789 37.1136 255.994 36.251 256.404 34.6586L257.055 32.0165C257.092 31.8356 257.11 31.6064 257.11 31.3289C257.11 30.6171 256.844 30.2612 256.314 30.2612H256.223C255.186 30.2612 254.311 30.8705 253.599 32.0889L253.472 32.3061L252.875 34.7309C252.477 36.3113 252.248 37.1618 252.188 37.2825C252.031 37.6082 251.771 37.7711 251.409 37.7711C251.253 37.7711 251.126 37.7349 251.029 37.6625C250.933 37.5901 250.867 37.5177 250.83 37.4453C250.794 37.373 250.782 37.3126 250.794 37.2644C250.794 37.1075 251.023 36.1183 251.482 34.2966C251.952 32.4388 252.188 31.4676 252.188 31.3832C252.224 31.2022 252.242 31.0394 252.242 30.8946C252.242 30.4603 252.091 30.2431 251.79 30.2431C251.524 30.2431 251.301 30.412 251.12 30.7498C250.939 31.0876 250.8 31.4556 250.704 31.8537C250.607 32.2518 250.535 32.4689 250.487 32.5051C250.462 32.5293 250.366 32.5413 250.197 32.5413H249.944C249.871 32.4689 249.835 32.4146 249.835 32.3785Z" fill="white"/>
<path d="M267.697 32.6101C267.697 32.4054 267.779 32.2263 267.941 32.0727C268.103 31.9192 268.29 31.8382 268.503 31.8297C268.657 31.8297 268.785 31.8808 268.887 31.9832C268.99 32.0855 269.045 32.2135 269.054 32.367C269.054 32.5632 268.968 32.7423 268.798 32.9043C268.627 33.0664 268.44 33.1517 268.235 33.1602C268.107 33.1602 267.987 33.1176 267.877 33.0323C267.766 32.947 267.706 32.8063 267.697 32.6101ZM265.612 36.6146C265.612 36.5463 265.65 36.4141 265.727 36.218C265.804 36.0218 265.906 35.8043 266.034 35.5655C266.162 35.3266 266.35 35.1092 266.597 34.913C266.845 34.7168 267.1 34.623 267.365 34.6315C267.697 34.6315 267.975 34.7296 268.196 34.9258C268.418 35.1219 268.533 35.3864 268.542 35.719C268.542 35.864 268.482 36.1028 268.363 36.4355C268.243 36.7681 268.073 37.2159 267.851 37.7788C267.629 38.3417 267.45 38.8236 267.314 39.2245C267.271 39.4122 267.25 39.5486 267.25 39.6339C267.25 39.8472 267.322 39.9538 267.467 39.9538C267.544 39.9538 267.625 39.941 267.71 39.9154C267.796 39.8898 267.894 39.8301 268.005 39.7363C268.115 39.6424 268.231 39.4932 268.35 39.2885C268.469 39.0838 268.576 38.8322 268.67 38.5336C268.695 38.4313 268.717 38.3716 268.734 38.3545C268.751 38.3375 268.823 38.3289 268.951 38.3289C269.122 38.3289 269.207 38.3716 269.207 38.4569C269.207 38.5251 269.169 38.6573 269.092 38.8535C269.015 39.0497 268.909 39.2672 268.772 39.506C268.636 39.7448 268.444 39.958 268.196 40.1457C267.949 40.3333 267.685 40.4271 267.403 40.4271C267.13 40.4271 266.879 40.3376 266.648 40.1585C266.418 39.9794 266.299 39.7064 266.29 39.3397C266.29 39.1947 266.311 39.0582 266.354 38.9303C266.397 38.8023 266.58 38.3162 266.904 37.4718C267.228 36.6103 267.416 36.0943 267.467 35.9237C267.518 35.7531 267.548 35.5868 267.557 35.4247C267.557 35.22 267.484 35.1177 267.339 35.1177H267.314C267.058 35.1177 266.823 35.2584 266.61 35.5399C266.397 35.8213 266.235 36.1796 266.124 36.6146C266.115 36.6231 266.107 36.6359 266.098 36.6529C266.09 36.67 266.085 36.6828 266.085 36.6913C266.085 36.6999 266.077 36.7084 266.06 36.7169C266.043 36.7254 266.03 36.7297 266.021 36.7297C266.013 36.7297 265.996 36.7297 265.97 36.7297C265.945 36.7297 265.911 36.7297 265.868 36.7297H265.689C265.638 36.6785 265.612 36.6402 265.612 36.6146Z" fill="white"/>
<path d="M272.365 33.048C272.365 32.2156 272.425 31.4254 272.546 30.6774C272.666 29.9295 272.805 29.284 272.962 28.7412C273.119 28.1983 273.342 27.6675 273.631 27.1487C273.921 26.63 274.15 26.2258 274.319 25.9363C274.488 25.6467 274.741 25.3331 275.079 24.9953C275.417 24.6575 275.616 24.4524 275.676 24.38C275.737 24.3076 275.887 24.181 276.129 24H276.364H276.436C276.605 24 276.69 24.0543 276.69 24.1629C276.69 24.1991 276.587 24.3257 276.382 24.5429C276.177 24.76 275.93 25.0797 275.64 25.502C275.35 25.9242 275.055 26.443 274.753 27.0582C274.452 27.6735 274.198 28.5059 273.993 29.5555C273.788 30.605 273.686 31.7692 273.686 33.048C273.686 34.3268 273.788 35.4849 273.993 36.5224C274.198 37.5599 274.446 38.3984 274.735 39.0378C275.025 39.6772 275.32 40.1959 275.622 40.594C275.924 40.9922 276.177 41.3118 276.382 41.5531C276.587 41.7944 276.69 41.9211 276.69 41.9331C276.69 42.0417 276.599 42.096 276.418 42.096H276.364H276.129L275.622 41.6617C274.488 40.6363 273.662 39.3575 273.143 37.8254C272.624 36.2932 272.365 34.7008 272.365 33.048Z" fill="white"/>
<path d="M278.173 30.605C278.089 30.5206 278.047 30.4603 278.047 30.4241C278.047 30.3758 278.065 30.2793 278.101 30.1346C278.137 29.9898 278.167 29.9053 278.192 29.8812C278.216 29.8209 278.27 29.7907 278.354 29.7907C278.439 29.7907 278.747 29.7847 279.277 29.7726H280.236L280.58 28.325C280.616 28.1922 280.659 28.0173 280.707 27.8002C280.755 27.583 280.797 27.4262 280.834 27.3297C280.87 27.2332 280.906 27.1125 280.942 26.9678C280.978 26.823 281.027 26.7204 281.087 26.6601C281.147 26.5998 281.208 26.5274 281.268 26.443C281.328 26.3585 281.413 26.3042 281.521 26.2801C281.63 26.256 281.738 26.2439 281.847 26.2439C282.064 26.256 282.215 26.3223 282.299 26.443C282.384 26.5636 282.426 26.6782 282.426 26.7868C282.426 26.8712 282.372 27.1547 282.263 27.6373C282.155 28.1199 282.034 28.5964 281.901 29.0669L281.72 29.7364C281.72 29.7606 282.022 29.7726 282.625 29.7726H283.548C283.632 29.8571 283.675 29.9234 283.675 29.9717C283.675 30.2371 283.596 30.4482 283.439 30.605H281.503L280.852 33.229C280.381 35.1592 280.146 36.1967 280.146 36.3415C280.146 36.8482 280.309 37.1015 280.635 37.1015C281.057 37.1015 281.467 36.8964 281.865 36.4862C282.263 36.0761 282.583 35.5694 282.824 34.9662C282.848 34.8938 282.878 34.8516 282.915 34.8395C282.951 34.8274 283.041 34.8154 283.186 34.8033H283.258C283.439 34.8033 283.53 34.8516 283.53 34.9481C283.53 34.9843 283.512 35.0567 283.476 35.1652C283.415 35.3583 283.307 35.5875 283.15 35.8529C282.993 36.1183 282.788 36.4018 282.535 36.7034C282.281 37.005 281.974 37.2583 281.612 37.4634C281.25 37.6685 280.882 37.7711 280.508 37.7711C280.146 37.7711 279.802 37.6806 279.476 37.4996C279.151 37.3187 278.915 37.005 278.771 36.5586C278.747 36.4621 278.734 36.2993 278.734 36.07V35.7443L279.368 33.2109C279.79 31.5098 280.007 30.6533 280.019 30.6412C280.019 30.6171 279.712 30.605 279.096 30.605H278.173Z" fill="white"/>
<path d="M285.321 24.0181L285.394 24C285.454 24 285.514 24 285.575 24H285.792L286.299 24.4343C287.433 25.4598 288.259 26.7385 288.778 28.2707C289.296 29.8028 289.556 31.3952 289.556 33.048C289.556 33.8684 289.496 34.6586 289.375 35.4186C289.254 36.1786 289.116 36.824 288.959 37.3549C288.802 37.8857 288.579 38.4165 288.289 38.9473C288 39.4781 287.77 39.8823 287.601 40.1597C287.433 40.4372 287.185 40.7448 286.86 41.0826C286.534 41.4204 286.341 41.6195 286.28 41.6798C286.22 41.7401 286.081 41.8547 285.864 42.0236C285.828 42.0598 285.804 42.0839 285.792 42.096H285.575C285.478 42.096 285.412 42.096 285.376 42.096C285.339 42.096 285.309 42.0779 285.285 42.0417C285.261 42.0055 285.243 41.9512 285.231 41.8789C285.243 41.8668 285.309 41.7884 285.43 41.6436C287.3 39.7013 288.235 36.8361 288.235 33.048C288.235 29.2599 287.3 26.3947 285.43 24.4524C285.309 24.3076 285.243 24.2292 285.231 24.2172C285.231 24.1206 285.261 24.0543 285.321 24.0181Z" fill="white"/>
<path d="M293.79 42.0779H293.754C293.609 42.0779 293.501 41.9935 293.428 41.8246V33.0299L293.447 24.2353C293.567 24.0784 293.682 24 293.79 24C293.947 24 294.068 24.0905 294.152 24.2714V41.8246C294.056 41.9935 293.947 42.0779 293.827 42.0779H293.79Z" fill="white"/>
<path d="M298.821 42.0779H298.785C298.64 42.0779 298.531 41.9935 298.459 41.8246V33.0299L298.477 24.2353C298.598 24.0784 298.712 24 298.821 24C298.978 24 299.098 24.0905 299.183 24.2714V41.8246C299.086 41.9935 298.978 42.0779 298.857 42.0779H298.821Z" fill="white"/>
<path d="M305.86 25.3934C305.86 25.2607 305.903 25.1642 305.987 25.1039C306.072 25.0435 306.15 25.0134 306.222 25.0134C306.367 25.0134 306.476 25.0978 306.548 25.2667C306.62 25.4356 306.886 26.1172 307.344 27.3116L308.14 29.4107H313.642L314.42 27.3297C314.54 27.0039 314.667 26.6662 314.8 26.3163C314.933 25.9664 315.041 25.689 315.126 25.4839C315.21 25.2788 315.252 25.1763 315.252 25.1763C315.313 25.0677 315.427 25.0134 315.596 25.0134C315.813 25.0375 315.922 25.1582 315.922 25.3753C315.922 25.4236 315.138 27.5046 313.569 31.6184C312.001 35.7323 311.199 37.8073 311.163 37.8435C311.102 37.9279 311.012 37.9701 310.891 37.9701C310.77 37.9701 310.68 37.9279 310.62 37.8435C310.583 37.7952 309.787 35.7262 308.231 31.6365C306.675 27.5468 305.885 25.4658 305.86 25.3934ZM313.352 30.1527C313.352 30.1406 312.532 30.1346 310.891 30.1346C309.25 30.1346 308.43 30.1406 308.43 30.1527L310.891 36.5767L313.352 30.1527Z" fill="white"/>
<path d="M319.251 26.7144C319.251 26.4249 319.366 26.1715 319.595 25.9544C319.824 25.7372 320.09 25.6226 320.391 25.6106C320.609 25.6106 320.79 25.6829 320.934 25.8277C321.079 25.9725 321.158 26.1534 321.17 26.3706C321.17 26.6481 321.049 26.9014 320.808 27.1306C320.566 27.3598 320.301 27.4805 320.011 27.4925C319.831 27.4925 319.662 27.4322 319.505 27.3116C319.348 27.1909 319.264 26.9919 319.251 26.7144ZM316.302 32.3785C316.302 32.2819 316.356 32.095 316.465 31.8175C316.573 31.54 316.718 31.2324 316.899 30.8946C317.08 30.5568 317.345 30.2492 317.695 29.9717C318.045 29.6942 318.407 29.5615 318.781 29.5736C319.251 29.5736 319.644 29.7123 319.957 29.9898C320.271 30.2673 320.434 30.6412 320.446 31.1117C320.446 31.3168 320.361 31.6546 320.192 32.1251C320.024 32.5956 319.782 33.229 319.469 34.0252C319.155 34.8214 318.902 35.503 318.709 36.07C318.648 36.3354 318.618 36.5285 318.618 36.6491C318.618 36.9507 318.721 37.1015 318.926 37.1015C319.034 37.1015 319.149 37.0834 319.27 37.0472C319.39 37.011 319.529 36.9266 319.686 36.7939C319.843 36.6612 320.005 36.4501 320.174 36.1605C320.343 35.871 320.494 35.5151 320.627 35.0929C320.663 34.9481 320.693 34.8636 320.717 34.8395C320.741 34.8154 320.844 34.8033 321.025 34.8033C321.266 34.8033 321.387 34.8636 321.387 34.9843C321.387 35.0808 321.332 35.2678 321.224 35.5453C321.115 35.8227 320.965 36.1304 320.772 36.4682C320.578 36.8059 320.307 37.1075 319.957 37.373C319.607 37.6384 319.233 37.7711 318.835 37.7711C318.449 37.7711 318.093 37.6444 317.768 37.391C317.442 37.1377 317.273 36.7517 317.261 36.2329C317.261 36.0278 317.291 35.8348 317.351 35.6538C317.412 35.4729 317.671 34.7852 318.129 33.5909C318.588 32.3724 318.853 31.6426 318.926 31.4013C318.998 31.16 319.04 30.9247 319.052 30.6955C319.052 30.406 318.95 30.2612 318.745 30.2612H318.709C318.347 30.2612 318.015 30.4603 317.713 30.8584C317.412 31.2565 317.182 31.7632 317.026 32.3785C317.014 32.3905 317.002 32.4086 316.989 32.4327C316.977 32.4569 316.971 32.475 316.971 32.487C316.971 32.4991 316.959 32.5112 316.935 32.5232C316.911 32.5353 316.893 32.5413 316.881 32.5413C316.869 32.5413 316.845 32.5413 316.808 32.5413C316.772 32.5413 316.724 32.5413 316.664 32.5413H316.41C316.338 32.4689 316.302 32.4146 316.302 32.3785Z" fill="white"/>
</g>
<defs>
<filter id="filter0_d_3_154" x="0" y="0" width="368" height="74" filterUnits="userSpaceOnUse" color-interpolation-filters="sRGB">
<feFlood flood-opacity="0" result="BackgroundImageFix"/>
<feColorMatrix in="SourceAlpha" type="matrix" values="0 0 0 0 0 0 0 0 0 0 0 0 0 0 0 0 0 0 127 0" result="hardAlpha"/>
<feOffset dy="4"/>
<feGaussianBlur stdDeviation="2"/>
<feComposite in2="hardAlpha" operator="out"/>
<feColorMatrix type="matrix" values="0 0 0 0 0 0 0 0 0 0 0 0 0 0 0 0 0 0 0.25 0"/>
<feBlend mode="normal" in2="BackgroundImageFix" result="effect1_dropShadow_3_154"/>
<feBlend mode="normal" in="SourceGraphic" in2="effect1_dropShadow_3_154" result="shape"/>
</filter>
<clipPath id="clip0_3_154">
<rect width="276.192" height="18.096" fill="white" transform="translate(46 24)"/>
</clipPath>
</defs>
</svg>
