<svg width="435" height="74" viewBox="0 0 435 74" fill="none" xmlns="http://www.w3.org/2000/svg">
<g filter="url(#filter0_d_4_316)">
<rect x="4" width="427" height="66" fill="#0D1117"/>
</g>
<path d="M29.4393 31.5655C29.361 31.4808 29.3219 31.4203 29.3219 31.384C29.3219 31.3356 29.3387 31.2388 29.3722 31.0937C29.4058 30.9485 29.4337 30.8638 29.4561 30.8396C29.4784 30.7791 29.5288 30.7489 29.607 30.7489C29.6853 30.7489 29.9704 30.7428 30.4624 30.7307H31.3513L31.67 29.2791C31.7036 29.146 31.7427 28.9706 31.7874 28.7528C31.8322 28.5351 31.8713 28.3778 31.9048 28.281C31.9384 28.1842 31.9719 28.0633 32.0055 27.9181C32.039 27.7729 32.0837 27.6701 32.1396 27.6096C32.1956 27.5491 32.2515 27.4765 32.3074 27.3919C32.3633 27.3072 32.4415 27.2527 32.5422 27.2285C32.6428 27.2043 32.7434 27.1922 32.8441 27.1922C33.0454 27.2043 33.1851 27.2709 33.2634 27.3919C33.3417 27.5128 33.3808 27.6278 33.3808 27.7366C33.3808 27.8213 33.3305 28.1056 33.2298 28.5895C33.1292 29.0734 33.0174 29.5512 32.8944 30.023L32.7267 30.6945C32.7267 30.7186 33.0062 30.7307 33.5653 30.7307H34.4207C34.499 30.8154 34.5381 30.882 34.5381 30.9304C34.5381 31.1965 34.4654 31.4082 34.32 31.5655H32.5254L31.9216 34.1967C31.4855 36.1322 31.2675 37.1726 31.2675 37.3178C31.2675 37.8259 31.4184 38.0799 31.7203 38.0799C32.1117 38.0799 32.4919 37.8743 32.8609 37.463C33.2298 37.0517 33.5262 36.5436 33.7498 35.9387C33.7722 35.8661 33.8001 35.8238 33.8336 35.8117C33.8672 35.7996 33.9511 35.7875 34.0852 35.7754H34.1523C34.32 35.7754 34.4039 35.8238 34.4039 35.9205C34.4039 35.9568 34.3871 36.0294 34.3536 36.1383C34.2977 36.3319 34.197 36.5617 34.0517 36.8279C33.9063 37.094 33.7162 37.3783 33.4814 37.6807C33.2466 37.9832 32.9615 38.2372 32.626 38.4429C32.2906 38.6485 31.9496 38.7513 31.6029 38.7513C31.2675 38.7513 30.9488 38.6606 30.6469 38.4792C30.345 38.2977 30.127 37.9832 29.9928 37.5356C29.9704 37.4388 29.9592 37.2755 29.9592 37.0456V36.719L30.5463 34.1785C30.9376 32.4728 31.1389 31.6139 31.1501 31.6018C31.1501 31.5776 30.865 31.5655 30.2947 31.5655H29.4393Z" fill="white"/>
<path d="M35.4102 33.3438C35.4214 33.3075 35.4326 33.2591 35.4438 33.1986C35.455 33.1381 35.4829 33.0051 35.5277 32.7994C35.5724 32.5937 35.6283 32.4062 35.6954 32.2369C35.7625 32.0675 35.8463 31.8679 35.947 31.6381C36.0476 31.4082 36.1594 31.2267 36.2824 31.0937C36.4054 30.9606 36.5508 30.8275 36.7185 30.6945C36.8862 30.5614 37.0707 30.5069 37.272 30.5311C37.5962 30.5311 37.8814 30.6037 38.1274 30.7489C38.3734 30.8941 38.5467 31.0271 38.6473 31.1481C38.7479 31.2691 38.8094 31.3901 38.8318 31.511C38.8542 31.5836 38.8709 31.6199 38.8821 31.6199C38.8933 31.6199 38.938 31.5776 39.0163 31.4929C39.553 30.8638 40.1736 30.5493 40.878 30.5493H40.9283C41.465 30.5493 41.8676 30.7973 42.1359 31.2933C42.2254 31.5231 42.2701 31.7469 42.2701 31.9647C42.2701 32.3276 42.1974 32.6179 42.0521 32.8357C41.9067 33.0535 41.7614 33.1926 41.616 33.2531C41.4706 33.3135 41.3309 33.3377 41.1967 33.3256C40.9731 33.3256 40.7942 33.2591 40.66 33.126C40.5258 32.993 40.4587 32.8176 40.4587 32.5998C40.4587 32.0191 40.7718 31.632 41.398 31.4384C41.152 31.2812 40.9507 31.2025 40.7942 31.2025C40.168 31.2025 39.5921 31.6502 39.0666 32.5454C38.9548 32.7389 38.8709 32.9385 38.815 33.1442C38.7591 33.3498 38.569 34.1543 38.2448 35.5576C37.8646 37.2513 37.6466 38.1525 37.5906 38.2614C37.4453 38.588 37.2049 38.7513 36.8694 38.7513C36.7241 38.7513 36.6067 38.7151 36.5172 38.6425C36.4278 38.5699 36.3663 38.4973 36.3327 38.4247C36.2992 38.3521 36.288 38.2916 36.2992 38.2433C36.2992 38.086 36.5228 37.0456 36.9701 35.1221C37.4173 33.1986 37.641 32.128 37.641 31.9102C37.641 31.4384 37.4956 31.2025 37.2049 31.2025C36.9701 31.2025 36.7688 31.3719 36.6011 31.7106C36.4334 32.0494 36.2992 32.4183 36.1985 32.8176C36.0979 33.2168 36.0364 33.4345 36.0141 33.4708C35.9917 33.495 35.9022 33.5071 35.7457 33.5071H35.5109C35.4438 33.4345 35.4102 33.3801 35.4102 33.3438Z" fill="white"/>
<path d="M45.7084 27.664C45.7084 27.3737 45.8147 27.1197 46.0271 26.9019C46.2396 26.6842 46.4856 26.5692 46.7651 26.5571C46.9664 26.5571 47.1341 26.6297 47.2683 26.7749C47.4024 26.9201 47.4751 27.1015 47.4863 27.3193C47.4863 27.5975 47.3745 27.8516 47.1509 28.0814C46.9272 28.3113 46.6812 28.4322 46.4129 28.4443C46.2452 28.4443 46.0886 28.3838 45.9432 28.2629C45.7979 28.1419 45.7196 27.9423 45.7084 27.664ZM42.9745 33.3438C42.9745 33.247 43.0249 33.0595 43.1255 32.7813C43.2261 32.503 43.3603 32.1945 43.528 31.8558C43.6958 31.5171 43.9418 31.2086 44.266 30.9304C44.5903 30.6521 44.9257 30.519 45.2724 30.5311C45.7084 30.5311 46.0718 30.6703 46.3626 30.9485C46.6533 31.2267 46.8042 31.6018 46.8154 32.0736C46.8154 32.2792 46.7371 32.6179 46.5806 33.0897C46.4241 33.5615 46.2004 34.1967 45.9097 34.9951C45.619 35.7935 45.3842 36.477 45.2053 37.0456C45.1494 37.3117 45.1214 37.5053 45.1214 37.6263C45.1214 37.9287 45.2164 38.0799 45.4065 38.0799C45.5072 38.0799 45.6134 38.0618 45.7252 38.0255C45.837 37.9892 45.9656 37.9045 46.111 37.7715C46.2563 37.6384 46.4073 37.4267 46.5638 37.1363C46.7204 36.846 46.8601 36.4891 46.9831 36.0657C47.0167 35.9205 47.0446 35.8359 47.067 35.8117C47.0894 35.7875 47.1844 35.7754 47.3521 35.7754C47.5758 35.7754 47.6876 35.8359 47.6876 35.9568C47.6876 36.0536 47.6373 36.2411 47.5366 36.5194C47.436 36.7976 47.2962 37.1061 47.1173 37.4448C46.9384 37.7835 46.6868 38.086 46.3626 38.3521C46.0383 38.6183 45.6917 38.7513 45.3227 38.7513C44.9649 38.7513 44.635 38.6243 44.3331 38.3703C44.0312 38.1162 43.8747 37.7291 43.8635 37.2089C43.8635 37.0033 43.8914 36.8097 43.9473 36.6282C44.0033 36.4468 44.2437 35.7572 44.6686 34.5596C45.0935 33.3377 45.3394 32.6058 45.4065 32.3639C45.4736 32.122 45.5128 31.8861 45.5239 31.6562C45.5239 31.3659 45.4289 31.2207 45.2388 31.2207H45.2053C44.8698 31.2207 44.5623 31.4203 44.2828 31.8195C44.0033 32.2187 43.7908 32.7268 43.6454 33.3438C43.6343 33.3559 43.6231 33.374 43.6119 33.3982C43.6007 33.4224 43.5951 33.4406 43.5951 33.4527C43.5951 33.4648 43.5839 33.4769 43.5616 33.489C43.5392 33.5011 43.5224 33.5071 43.5113 33.5071C43.5001 33.5071 43.4777 33.5071 43.4442 33.5071C43.4106 33.5071 43.3659 33.5071 43.31 33.5071H43.0752C43.0081 33.4345 42.9745 33.3801 42.9745 33.3438Z" fill="white"/>
<path d="M48.9623 35.7028C48.9623 34.481 49.3872 33.3196 50.237 32.2187C51.0868 31.1179 52.0428 30.5614 53.105 30.5493C53.6753 30.5493 54.1785 30.8457 54.6145 31.4384C54.7934 31.0755 55.0506 30.8941 55.3861 30.8941C55.5314 30.8941 55.66 30.9425 55.7718 31.0392C55.8836 31.136 55.9395 31.257 55.9395 31.4022C55.9395 31.5594 55.7327 32.5272 55.319 34.3055C54.9053 36.0839 54.6928 37.0879 54.6816 37.3178C54.6816 37.6202 54.7208 37.8198 54.799 37.9166C54.8773 38.0134 54.9947 38.0678 55.1512 38.0799C55.2519 38.0678 55.3637 38.0134 55.4867 37.9166C55.7215 37.6747 55.9507 37.094 56.1744 36.1746C56.2414 35.9326 56.2974 35.8056 56.3421 35.7935C56.3644 35.7814 56.4203 35.7754 56.5098 35.7754H56.5769C56.7893 35.7754 56.8956 35.8298 56.8956 35.9387C56.8956 36.0113 56.8676 36.1746 56.8117 36.4286C56.7558 36.6827 56.644 37.0093 56.4763 37.4085C56.3085 37.8077 56.1296 38.1102 55.9395 38.3158C55.7942 38.4731 55.6153 38.6001 55.4028 38.6969C55.3134 38.7211 55.1792 38.7332 55.0003 38.7332C54.6201 38.7332 54.3014 38.6425 54.0443 38.461C53.7871 38.2795 53.6194 38.092 53.5411 37.8985L53.4405 37.6263C53.4293 37.6142 53.4069 37.6202 53.3734 37.6444C53.351 37.6686 53.3287 37.6928 53.3063 37.717C52.6466 38.3945 51.9757 38.7332 51.2936 38.7332C50.6786 38.7332 50.1363 38.4913 49.6667 38.0074C49.1971 37.5235 48.9623 36.7553 48.9623 35.7028ZM54.2959 32.5998C54.2959 32.5272 54.2679 32.3941 54.212 32.2006C54.1561 32.007 54.0275 31.7953 53.8262 31.5655C53.625 31.3356 53.3678 31.2146 53.0547 31.2025C52.6634 31.2025 52.2888 31.3901 51.931 31.7651C51.5732 32.1401 51.2936 32.63 51.0923 33.2349C50.7681 34.1906 50.5389 35.1826 50.4047 36.2109C50.4047 36.2472 50.4047 36.3137 50.4047 36.4105C50.4047 36.5073 50.3991 36.5799 50.3879 36.6282C50.3879 37.1726 50.4885 37.5477 50.6898 37.7533C50.8911 37.959 51.1315 38.0678 51.411 38.0799C51.8359 38.0799 52.2552 37.8803 52.6689 37.4811C53.0827 37.0819 53.3287 36.7734 53.4069 36.5557C53.4293 36.5073 53.5802 35.8601 53.8598 34.614C54.1393 33.368 54.2847 32.6966 54.2959 32.5998Z" fill="white"/>
<path d="M57.6335 33.3438C57.6447 33.2712 57.6615 33.1744 57.6839 33.0535C57.7062 32.9325 57.7733 32.7026 57.8851 32.3639C57.9969 32.0252 58.1088 31.7409 58.2206 31.511C58.3324 31.2812 58.5169 31.0574 58.7741 30.8396C59.0312 30.6219 59.2884 30.519 59.5456 30.5311C59.9481 30.5311 60.2836 30.64 60.5519 30.8578C60.8203 31.0755 60.988 31.2812 61.0551 31.4747C61.1222 31.6683 61.1557 31.7953 61.1557 31.8558C61.1557 31.88 61.1613 31.8921 61.1725 31.8921L61.357 31.6925C62.0391 30.9183 62.8162 30.5311 63.6883 30.5311C64.2921 30.5311 64.7785 30.6945 65.1475 31.0211C65.5165 31.3477 65.7066 31.8256 65.7178 32.4546C65.729 33.0837 65.5165 34.0333 65.0804 35.3036C64.6444 36.5738 64.4319 37.342 64.4431 37.6081C64.4431 37.9227 64.5381 38.0799 64.7282 38.0799C64.7953 38.0799 64.8456 38.0739 64.8792 38.0618C65.2034 38.0013 65.4942 37.7715 65.7513 37.3722C66.0085 36.973 66.2042 36.4891 66.3384 35.9205C66.3607 35.8238 66.4725 35.7754 66.6738 35.7754C66.8974 35.7754 67.0093 35.8238 67.0093 35.9205C67.0093 35.9326 66.9869 36.0234 66.9422 36.1927C66.8527 36.5436 66.7297 36.8883 66.5732 37.2271C66.4166 37.5658 66.1595 37.9045 65.8017 38.2433C65.4438 38.582 65.0581 38.7453 64.6444 38.7332C64.1188 38.7332 63.7387 38.5699 63.5039 38.2433C63.269 37.9166 63.1516 37.5779 63.1516 37.2271C63.1516 36.9972 63.3529 36.2714 63.7554 35.0495C64.158 33.8277 64.3648 32.9083 64.376 32.2913C64.376 31.5776 64.13 31.2207 63.638 31.2207H63.5542C62.5926 31.2207 61.7819 31.8316 61.1222 33.0535L61.0048 33.2712L60.4513 35.7028C60.0823 37.2876 59.8699 38.1404 59.8139 38.2614C59.6686 38.588 59.4282 38.7513 59.0927 38.7513C58.9474 38.7513 58.83 38.7151 58.7405 38.6425C58.6511 38.5699 58.5896 38.4973 58.556 38.4247C58.5225 38.3521 58.5113 38.2916 58.5225 38.2433C58.5225 38.086 58.7349 37.1 59.1598 35.2854C59.5847 33.4708 59.8084 32.4849 59.8307 32.3276C59.8419 32.2671 59.8475 32.128 59.8475 31.9102C59.8475 31.4384 59.7133 31.2025 59.445 31.2025C59.0201 31.2025 58.6678 31.8074 58.3883 33.0172C58.3212 33.2591 58.2877 33.3861 58.2877 33.3982C58.2653 33.4708 58.1591 33.5071 57.969 33.5071H57.7342C57.6671 33.4345 57.6335 33.3801 57.6335 33.3438Z" fill="white"/>
<path d="M72.5609 37.7715C72.3932 37.9287 72.1472 38.0981 71.8229 38.2795C71.4987 38.461 71.1576 38.5517 70.7998 38.5517C70.0954 38.5517 69.5307 38.2795 69.1058 37.7352C68.6809 37.1908 68.4629 36.4952 68.4517 35.6484C68.4517 34.3781 68.8822 33.2107 69.7432 32.1461C70.6041 31.0816 71.5602 30.5432 72.6112 30.5311C73.1367 30.5311 73.6231 30.8215 74.0704 31.4022L74.1207 31.3296C74.1431 31.2933 74.171 31.257 74.2046 31.2207C74.2381 31.1844 74.2884 31.136 74.3555 31.0755C74.4226 31.015 74.4953 30.9727 74.5736 30.9485C74.6518 30.9243 74.7413 30.9062 74.8419 30.8941C74.9985 30.8941 75.1271 30.9485 75.2277 31.0574C75.3283 31.1663 75.3842 31.2812 75.3954 31.4022C75.3954 31.5836 75.0767 33.0474 74.4394 35.7935C73.802 38.5396 73.4666 39.9429 73.4331 40.0034C73.2318 40.6567 72.8013 41.195 72.1416 41.6184C71.4819 42.0418 70.7271 42.2596 69.8773 42.2717C68.3007 42.2717 67.5124 41.8604 67.5124 41.0378C67.5124 40.7232 67.6131 40.445 67.8143 40.203C68.0156 39.9611 68.2728 39.8401 68.5859 39.8401C68.7536 39.8401 68.9101 39.8946 69.0555 40.0034C69.2008 40.1123 69.2791 40.2998 69.2903 40.566C69.2903 40.6869 69.2791 40.8019 69.2568 40.9107C69.2344 41.0196 69.1953 41.1043 69.1393 41.1648C69.0834 41.2253 69.0387 41.2858 69.0052 41.3462C68.9716 41.4067 68.9325 41.4551 68.8878 41.4914L68.8542 41.5277H68.871C68.9828 41.564 69.3183 41.5821 69.8773 41.5821C70.3022 41.5821 70.6377 41.5096 70.8837 41.3644C71.1408 41.2313 71.3812 41.0317 71.6049 40.7656C71.8285 40.4994 71.985 40.2151 72.0745 39.9127C72.1416 39.6828 72.231 39.3078 72.3429 38.7876C72.4882 38.207 72.5609 37.8682 72.5609 37.7715ZM73.7853 32.5998L73.7182 32.4002C73.6846 32.2671 73.6567 32.1764 73.6343 32.128C73.612 32.0796 73.5784 31.9949 73.5337 31.874C73.489 31.753 73.4331 31.6683 73.366 31.6199C73.2989 31.5715 73.2262 31.505 73.1479 31.4203C73.0697 31.3356 72.969 31.2812 72.846 31.257C72.723 31.2328 72.6 31.2146 72.477 31.2025C71.985 31.2025 71.5098 31.5231 71.0514 32.1643C70.7159 32.6361 70.4364 33.3559 70.2128 34.3237C69.9891 35.2915 69.8773 35.9931 69.8773 36.4286C69.8773 37.3843 70.224 37.8622 70.9172 37.8622C71.5434 37.8622 72.1584 37.4388 72.7622 36.592L72.8963 36.4105L73.7853 32.5998Z" fill="white"/>
<path d="M77.3075 37.4811C77.3075 37.8803 77.4472 38.0799 77.7268 38.0799C78.1405 38.0799 78.4927 37.4448 78.7834 36.1746C78.8505 35.9326 78.9064 35.8056 78.9511 35.7935C78.9735 35.7814 79.0294 35.7754 79.1189 35.7754H79.186C79.2866 35.7754 79.3537 35.7754 79.3872 35.7754C79.4208 35.7754 79.4487 35.7875 79.4711 35.8117C79.4934 35.8359 79.5046 35.8782 79.5046 35.9387C79.4934 36.0113 79.4767 36.1081 79.4543 36.229C79.4319 36.35 79.3705 36.5799 79.2698 36.9186C79.1692 37.2573 79.0574 37.5416 78.9344 37.7715C78.8114 38.0013 78.6381 38.2251 78.4144 38.4429C78.1908 38.6606 77.9336 38.7634 77.6429 38.7513C77.2404 38.7513 76.8658 38.6183 76.5192 38.3521C76.1725 38.086 75.9936 37.6384 75.9824 37.0093C75.9824 36.8641 75.988 36.7613 75.9992 36.7008L77.0894 32.0191C77.7939 28.9343 78.1461 27.3435 78.1461 27.2467C78.1461 27.2104 78.1405 27.1802 78.1293 27.156C78.1181 27.1318 78.0958 27.1076 78.0622 27.0834C78.0287 27.0592 78.0007 27.0471 77.9783 27.0471C77.956 27.0471 77.9113 27.041 77.8442 27.0289C77.7771 27.0168 77.7324 27.0108 77.71 27.0108C77.6876 27.0108 77.6373 27.0047 77.559 26.9926C77.4808 26.9805 77.4249 26.9805 77.3913 26.9926C77.2795 26.9926 77.2068 26.9926 77.1733 26.9926C77.1397 26.9926 77.095 26.9866 77.0391 26.9745C76.9832 26.9624 76.9496 26.9443 76.9385 26.9201C76.9273 26.8959 76.9217 26.8596 76.9217 26.8112C76.9217 26.787 76.9329 26.7023 76.9552 26.5571C77.0111 26.3273 77.0726 26.2003 77.1397 26.1761C77.2068 26.1519 77.6094 26.1156 78.3473 26.0672C78.5151 26.0551 78.7051 26.043 78.9176 26.0309C79.13 26.0188 79.2978 26.0007 79.4208 25.9765C79.5438 25.9523 79.6053 25.9462 79.6053 25.9583C79.7394 25.9583 79.8065 26.0067 79.8065 26.1035C79.8065 26.2366 79.3984 28.0512 78.5822 31.5473C77.7659 35.0435 77.3466 36.8762 77.3242 37.0456C77.3242 37.0698 77.3242 37.1182 77.3242 37.1908C77.3242 37.2634 77.3186 37.3239 77.3075 37.3722V37.4811Z" fill="white"/>
<path d="M80.9974 35.5032C80.9974 34.8136 81.1036 34.1846 81.316 33.616C81.5285 33.0474 81.8024 32.5756 82.1379 32.2006C82.4733 31.8256 82.8479 31.511 83.2616 31.257C83.6753 31.0029 84.0667 30.8154 84.4357 30.6945C84.8047 30.5735 85.1569 30.519 85.4923 30.5311H85.5427C86.0458 30.5311 86.4819 30.6642 86.8509 30.9304C87.2199 31.1965 87.4044 31.5897 87.4044 32.1099C87.4044 33.1986 86.7838 33.9124 85.5427 34.2511C84.9948 34.4084 84.2456 34.493 83.2952 34.5051C82.8814 34.5051 82.669 34.5172 82.6578 34.5414C82.6578 34.5656 82.6243 34.7773 82.5572 35.1766C82.4901 35.5758 82.451 35.9266 82.4398 36.229C82.4398 36.7976 82.5572 37.2452 82.792 37.5718C83.0268 37.8985 83.379 38.0678 83.8487 38.0799C84.3183 38.092 84.8382 37.9771 85.4085 37.7352C85.9787 37.4932 86.4931 37.094 86.9515 36.5375C87.0522 36.4165 87.1192 36.3561 87.1528 36.3561C87.1975 36.3561 87.2702 36.4105 87.3708 36.5194C87.4715 36.6282 87.5274 36.7129 87.5386 36.7734C87.5497 36.8339 87.4994 36.9307 87.3876 37.0638C87.2758 37.1968 87.1081 37.3601 86.8844 37.5537C86.6608 37.7473 86.4036 37.9348 86.1129 38.1162C85.8222 38.2977 85.47 38.4489 85.0563 38.5699C84.6425 38.6909 84.2176 38.7513 83.7816 38.7513C82.8982 38.7513 82.2161 38.4308 81.7353 37.7896C81.2545 37.1484 81.0085 36.3863 80.9974 35.5032ZM86.5993 32.1461C86.5322 31.5171 86.152 31.2025 85.4588 31.2025C85.0898 31.2025 84.7488 31.2872 84.4357 31.4566C84.1226 31.626 83.871 31.8316 83.6809 32.0736C83.4908 32.3155 83.3287 32.5635 83.1945 32.8176C83.0604 33.0716 82.9709 33.2894 82.9262 33.4708C82.8814 33.6523 82.8535 33.7672 82.8423 33.8156C82.8423 33.8277 82.9541 33.8337 83.1778 33.8337C84.4413 33.8337 85.3246 33.6886 85.8278 33.3982C86.331 33.1079 86.5881 32.6905 86.5993 32.1461Z" fill="white"/>
<path d="M93.7577 34.2511C93.7577 34.2511 93.7577 34.1725 93.7577 34.0152C93.7577 33.8579 93.836 33.737 93.9925 33.6523H106.823C105.526 32.5998 104.727 31.2509 104.425 29.6057C104.425 29.5936 104.425 29.5754 104.425 29.5512C104.425 29.5271 104.419 29.5089 104.408 29.4968C104.408 29.3516 104.503 29.2791 104.693 29.2791H104.744C104.844 29.2791 104.911 29.2851 104.945 29.2972C104.978 29.3093 105.012 29.3335 105.045 29.3698C105.079 29.4061 105.096 29.4605 105.096 29.5331C105.096 29.6057 105.113 29.7025 105.146 29.8234C105.18 29.9444 105.224 30.0956 105.28 30.2771C105.526 31.0876 105.934 31.8135 106.505 32.4546C107.075 33.0958 107.74 33.5494 108.501 33.8156C108.601 33.8519 108.652 33.9184 108.652 34.0152C108.652 34.0878 108.624 34.1422 108.568 34.1785C108.512 34.2148 108.378 34.2753 108.165 34.36C107.953 34.4447 107.74 34.5596 107.528 34.7048C107.069 35.0193 106.672 35.3822 106.337 35.7935C106.002 36.2048 105.75 36.6101 105.582 37.0093C105.414 37.4085 105.297 37.711 105.23 37.9166C105.163 38.1223 105.118 38.3098 105.096 38.4792C105.073 38.6001 105.045 38.6727 105.012 38.6969C104.978 38.7211 104.889 38.7392 104.744 38.7513C104.52 38.7513 104.408 38.6848 104.408 38.5517C104.408 38.4671 104.436 38.3158 104.492 38.0981C104.85 36.5738 105.627 35.3338 106.823 34.3781H93.9925C93.836 34.2934 93.7577 34.1725 93.7577 34.0152V34.2511Z" fill="white"/>
<path d="M120.07 17.8833C119.768 17.8833 119.533 17.7804 119.366 17.5748C119.198 17.3691 119.109 17.103 119.097 16.7764C119.097 16.111 119.366 15.5182 119.902 14.998C120.439 14.4778 121.088 14.2178 121.848 14.2178C122.239 14.2178 122.485 14.2238 122.586 14.2359C123.413 14.3811 124.045 14.7016 124.481 15.1976C124.917 15.6936 125.141 16.232 125.152 16.8127C125.152 17.4417 124.962 18.0526 124.582 18.6454C124.202 19.2382 123.676 19.6676 123.005 19.9338L122.955 19.9701C122.955 19.9822 123.005 20.0003 123.106 20.0245C123.207 20.0487 123.369 20.1032 123.592 20.1878C123.816 20.2725 124.028 20.3995 124.23 20.5689C125.147 21.2101 125.605 22.0569 125.605 23.1094C125.605 24.0651 125.258 24.8998 124.565 25.6135C123.872 26.3273 122.994 26.6842 121.932 26.6842C121.037 26.6842 120.266 26.4241 119.617 25.9039C118.969 25.3837 118.644 24.7244 118.644 23.9259C118.644 23.5872 118.745 23.315 118.946 23.1094C119.148 22.9037 119.399 22.7948 119.701 22.7827C120.014 22.7827 120.271 22.8916 120.473 23.1094C120.674 23.3271 120.775 23.5993 120.775 23.9259C120.775 24.059 120.758 24.18 120.724 24.2889C120.691 24.3977 120.652 24.4945 120.607 24.5792C120.562 24.6639 120.501 24.7365 120.422 24.797C120.344 24.8574 120.277 24.9058 120.221 24.9421C120.165 24.9784 120.109 25.0026 120.053 25.0147C119.997 25.0268 119.953 25.045 119.919 25.0692L119.852 25.0873C120.422 25.6317 121.116 25.9039 121.932 25.9039C122.547 25.9039 123.011 25.5833 123.324 24.9421C123.514 24.5429 123.609 23.932 123.609 23.1094V22.7464C123.609 21.5972 123.251 20.829 122.536 20.4419C122.368 20.3693 122.027 20.327 121.513 20.3149L120.808 20.2967L120.758 20.2604C120.735 20.2241 120.724 20.1273 120.724 19.9701C120.724 19.7523 120.769 19.6435 120.858 19.6435C121.172 19.6435 121.496 19.6132 121.831 19.5527C122.211 19.4922 122.558 19.2382 122.871 18.7906C123.184 18.343 123.341 17.6655 123.341 16.7582V16.613C123.341 15.9235 123.145 15.4456 122.754 15.1795C122.508 15.0101 122.245 14.9255 121.965 14.9255C121.608 14.9255 121.278 14.992 120.976 15.1251C120.674 15.2581 120.461 15.3973 120.338 15.5424C120.215 15.6876 120.154 15.7602 120.154 15.7602H120.204C120.238 15.7723 120.283 15.7844 120.338 15.7965C120.394 15.8086 120.45 15.8388 120.506 15.8872C120.562 15.9356 120.629 15.9779 120.707 16.0142C120.786 16.0505 120.842 16.117 120.875 16.2138C120.909 16.3106 120.953 16.4013 121.009 16.486C121.065 16.5707 121.082 16.6917 121.06 16.8489C121.06 17.1151 120.981 17.351 120.825 17.5566C120.668 17.7623 120.417 17.8712 120.07 17.8833Z" fill="white"/>
<path d="M125.689 51C125.488 50.9637 124.766 50.9456 123.525 50.9456C122.228 50.9456 121.479 50.9637 121.278 51H121.127V50.1653H121.647C121.87 50.1653 122.021 50.1653 122.1 50.1653C122.178 50.1653 122.273 50.1532 122.385 50.129C122.497 50.1048 122.575 50.0745 122.62 50.0383C122.664 50.002 122.703 49.9536 122.737 49.8931C122.748 49.8689 122.754 49.5423 122.754 48.9132V48.0059H118.41V47.1712L120.942 42.9794C122.653 40.1728 123.52 38.7634 123.542 38.7513C123.564 38.7272 123.682 38.7151 123.894 38.7151H124.196L124.297 38.8239V47.1712H125.84V48.0059H124.297V48.9313C124.297 49.4273 124.297 49.7177 124.297 49.8024C124.297 49.887 124.33 49.9596 124.397 50.0201C124.487 50.1048 124.806 50.1532 125.353 50.1653H125.84V51H125.689ZM122.854 47.1712V41.1103L119.181 47.153L121.009 47.1712H122.854Z" fill="white"/>
<path d="M128.003 34.5596H116.263V33.4708H128.003V34.5596Z" fill="white"/>
<path d="M165.758 33.3075C165.758 32.9204 165.847 32.5272 166.026 32.128C166.205 31.7288 166.518 31.3598 166.965 31.0211C167.413 30.6824 167.955 30.519 168.592 30.5311C169.286 30.5311 169.789 30.6945 170.102 31.0211C170.415 31.3477 170.577 31.7106 170.588 32.1099C170.588 32.497 170.493 32.7813 170.303 32.9627C170.113 33.1442 169.901 33.241 169.666 33.2531C169.52 33.2531 169.386 33.2047 169.263 33.1079C169.14 33.0111 169.073 32.8538 169.062 32.6361C169.062 32.4425 169.112 32.2732 169.213 32.128C169.314 31.9828 169.409 31.874 169.498 31.8014C169.588 31.7288 169.66 31.6925 169.716 31.6925C169.727 31.6925 169.733 31.6864 169.733 31.6743C169.733 31.6381 169.694 31.5836 169.616 31.511C169.537 31.4384 169.397 31.3719 169.196 31.3114C168.995 31.2509 168.777 31.2146 168.542 31.2025C168.005 31.2025 167.614 31.3598 167.368 31.6743C167.122 31.9889 166.993 32.3095 166.982 32.6361C166.982 32.9385 167.088 33.1502 167.301 33.2712C167.513 33.3922 167.821 33.495 168.223 33.5797C168.626 33.6644 168.917 33.7551 169.096 33.8519C169.834 34.2027 170.203 34.7834 170.203 35.5939C170.203 35.9326 170.141 36.2714 170.018 36.6101C169.895 36.9488 169.711 37.2876 169.465 37.6263C169.219 37.965 168.866 38.2312 168.408 38.4247C167.949 38.6183 167.424 38.7211 166.831 38.7332C165.97 38.7332 165.361 38.5578 165.003 38.207C164.645 37.8561 164.461 37.4448 164.45 36.973C164.45 36.5012 164.567 36.1625 164.802 35.9568C165.037 35.7512 165.283 35.6484 165.54 35.6484C165.708 35.6484 165.864 35.7028 166.009 35.8117C166.155 35.9205 166.233 36.1081 166.244 36.3742C166.244 36.6887 166.144 36.9549 165.942 37.1726C165.741 37.3904 165.568 37.4993 165.422 37.4993C165.4 37.5114 165.383 37.5174 165.372 37.5174C165.361 37.5174 165.355 37.5295 165.355 37.5537C165.367 37.59 165.411 37.6384 165.49 37.6989C165.568 37.7594 165.741 37.838 166.009 37.9348C166.278 38.0315 166.585 38.0739 166.932 38.0618C167.334 38.0618 167.681 37.9953 167.972 37.8622C168.263 37.7291 168.475 37.5597 168.609 37.3541C168.743 37.1484 168.838 36.9609 168.894 36.7916C168.95 36.6222 168.978 36.471 168.978 36.3379C168.978 35.9992 168.861 35.7451 168.626 35.5758C168.391 35.4064 168.123 35.3036 167.821 35.2673C167.519 35.231 167.189 35.1403 166.831 34.9951C166.474 34.8499 166.211 34.6382 166.043 34.36C165.853 34.0575 165.758 33.7067 165.758 33.3075Z" fill="white"/>
<path d="M171.98 35.7028C171.98 34.481 172.405 33.3196 173.255 32.2187C174.105 31.1179 175.061 30.5614 176.123 30.5493C176.794 30.5493 177.308 30.8638 177.666 31.4929C177.677 31.4808 177.705 31.4445 177.75 31.384C177.795 31.3235 177.856 31.257 177.935 31.1844C178.013 31.1118 178.102 31.0392 178.203 30.9667C178.583 30.6763 178.84 30.5311 178.974 30.5311C179.019 30.5311 179.058 30.5493 179.092 30.5856C179.125 30.6219 179.142 30.6521 179.142 30.6763C179.142 30.7852 178.756 32.5091 177.985 35.848C177.191 39.2836 176.794 41.0257 176.794 41.0741C176.794 41.1708 177.046 41.2253 177.549 41.2374H177.968C178.035 41.3342 178.069 41.3886 178.069 41.4007C178.069 41.4128 178.052 41.5217 178.018 41.7273C177.974 41.8846 177.918 41.9995 177.851 42.0721H177.633C177.286 42.0479 176.682 42.0358 175.821 42.0358C175.508 42.0358 175.223 42.0358 174.966 42.0358C174.709 42.0358 174.502 42.0358 174.345 42.0358C174.189 42.0358 174.094 42.0419 174.06 42.054C173.904 42.054 173.825 42.0056 173.825 41.9088C173.825 41.8725 173.837 41.7818 173.859 41.6366C173.904 41.443 173.943 41.3281 173.976 41.2918C174.01 41.2555 174.122 41.2374 174.312 41.2374C174.848 41.2374 175.173 41.195 175.285 41.1104C175.374 41.0499 175.531 40.5176 175.754 39.5135C175.978 38.5094 176.095 37.9953 176.106 37.9711C176.106 37.959 176.067 37.9771 175.989 38.0255C175.452 38.4973 174.893 38.7332 174.312 38.7332C173.697 38.7332 173.154 38.4913 172.685 38.0074C172.215 37.5235 171.98 36.7553 171.98 35.7028ZM177.331 32.6361C177.074 31.6804 176.654 31.2026 176.073 31.2026C175.681 31.2026 175.307 31.3901 174.949 31.7651C174.591 32.1401 174.312 32.6301 174.11 33.2349C173.786 34.1906 173.557 35.1826 173.423 36.2109C173.423 36.2472 173.423 36.3137 173.423 36.4105C173.423 36.5073 173.417 36.5799 173.406 36.6283C173.406 37.1726 173.507 37.5477 173.708 37.7533C173.909 37.959 174.15 38.0678 174.429 38.0799C175.033 38.0799 175.654 37.6444 176.291 36.7734L176.425 36.5738L177.331 32.6361Z" fill="white"/>
<path d="M179.26 33.3438C179.26 33.247 179.31 33.0595 179.411 32.7813C179.511 32.503 179.651 32.1885 179.83 31.8377C180.009 31.4868 180.255 31.1844 180.568 30.9304C180.881 30.6763 181.211 30.5432 181.557 30.5311C182.072 30.5311 182.457 30.6824 182.715 30.9848C182.972 31.2872 183.1 31.6441 183.1 32.0554C183.1 32.2732 182.91 32.9506 182.53 34.0878C182.15 35.2249 181.96 36.0778 181.96 36.6464C181.96 37.1666 182.038 37.5295 182.195 37.7352C182.351 37.9408 182.586 38.0497 182.899 38.0618C183.212 38.0739 183.509 37.9711 183.788 37.7533C184.068 37.5356 184.274 37.3299 184.409 37.1363L184.593 36.8279C184.616 36.7795 184.828 35.8601 185.231 34.0696C185.566 32.6179 185.767 31.7711 185.834 31.5292C185.901 31.2872 185.98 31.1118 186.069 31.0029C186.259 30.8215 186.46 30.7307 186.673 30.7307C186.863 30.7307 187.003 30.7912 187.092 30.9122C187.182 31.0332 187.226 31.1481 187.226 31.257L185.952 37.0275C185.941 37.0879 185.935 37.1847 185.935 37.3178C185.935 37.6202 185.974 37.8198 186.052 37.9166C186.131 38.0134 186.248 38.0678 186.405 38.0799C186.651 38.0436 186.846 37.8561 186.992 37.5174C187.137 37.1787 187.305 36.6464 187.495 35.9205C187.517 35.8238 187.629 35.7754 187.83 35.7754C188.043 35.7754 188.149 35.8298 188.149 35.9387C188.138 35.9992 188.127 36.0839 188.115 36.1927C188.104 36.3016 188.054 36.4952 187.964 36.7734C187.875 37.0517 187.78 37.3117 187.679 37.5537C187.579 37.7956 187.439 38.0255 187.26 38.2433C187.081 38.461 186.88 38.6122 186.656 38.6969C186.567 38.7211 186.433 38.7332 186.254 38.7332C185.516 38.7332 185.007 38.3945 184.727 37.717C184.705 37.7291 184.643 37.7896 184.543 37.8985C184.442 38.0074 184.342 38.0981 184.241 38.1707C184.14 38.2433 184.017 38.334 183.872 38.4429C183.727 38.5517 183.564 38.6243 183.386 38.6606C183.207 38.6969 183.017 38.7271 182.815 38.7513C182.323 38.7513 181.887 38.6425 181.507 38.4247C180.926 38.0497 180.635 37.4085 180.635 36.5012C180.635 35.8117 180.831 34.9104 181.222 33.7974C181.613 32.6845 181.809 31.9768 181.809 31.6743C181.809 31.6622 181.809 31.6502 181.809 31.6381C181.809 31.5292 181.809 31.4566 181.809 31.4203C181.809 31.384 181.787 31.3417 181.742 31.2933C181.697 31.2449 181.636 31.2207 181.557 31.2207H181.49C181.233 31.2207 180.998 31.3356 180.786 31.5655C180.573 31.7953 180.406 32.0433 180.283 32.3095C180.16 32.5756 180.065 32.8297 179.998 33.0716C179.93 33.3135 179.886 33.4466 179.863 33.4708C179.841 33.495 179.752 33.5071 179.595 33.5071H179.36C179.293 33.4345 179.26 33.3801 179.26 33.3438Z" fill="white"/>
<path d="M189.055 35.7028C189.055 34.481 189.479 33.3196 190.329 32.2187C191.179 31.1179 192.135 30.5614 193.197 30.5493C193.768 30.5493 194.271 30.8457 194.707 31.4384C194.886 31.0755 195.143 30.8941 195.478 30.8941C195.624 30.8941 195.752 30.9425 195.864 31.0392C195.976 31.136 196.032 31.257 196.032 31.4022C196.032 31.5594 195.825 32.5272 195.411 34.3055C194.998 36.0839 194.785 37.0879 194.774 37.3178C194.774 37.6202 194.813 37.8198 194.891 37.9166C194.97 38.0134 195.087 38.0678 195.244 38.0799C195.344 38.0678 195.456 38.0134 195.579 37.9166C195.814 37.6747 196.043 37.094 196.267 36.1746C196.334 35.9326 196.39 35.8056 196.434 35.7935C196.457 35.7814 196.513 35.7754 196.602 35.7754H196.669C196.882 35.7754 196.988 35.8298 196.988 35.9387C196.988 36.0113 196.96 36.1746 196.904 36.4286C196.848 36.6827 196.736 37.0093 196.569 37.4085C196.401 37.8077 196.222 38.1102 196.032 38.3158C195.887 38.4731 195.708 38.6001 195.495 38.6969C195.406 38.7211 195.272 38.7332 195.093 38.7332C194.712 38.7332 194.394 38.6425 194.137 38.461C193.879 38.2795 193.712 38.092 193.633 37.8985L193.533 37.6263C193.522 37.6142 193.499 37.6202 193.466 37.6444C193.443 37.6686 193.421 37.6928 193.399 37.717C192.739 38.3945 192.068 38.7332 191.386 38.7332C190.771 38.7332 190.229 38.4913 189.759 38.0074C189.289 37.5235 189.055 36.7553 189.055 35.7028ZM194.388 32.5998C194.388 32.5272 194.36 32.3941 194.304 32.2006C194.248 32.007 194.12 31.7953 193.919 31.5655C193.717 31.3356 193.46 31.2146 193.147 31.2025C192.756 31.2025 192.381 31.3901 192.023 31.7651C191.665 32.1401 191.386 32.63 191.185 33.2349C190.86 34.1906 190.631 35.1826 190.497 36.2109C190.497 36.2472 190.497 36.3137 190.497 36.4105C190.497 36.5073 190.491 36.5799 190.48 36.6282C190.48 37.1726 190.581 37.5477 190.782 37.7533C190.983 37.959 191.224 38.0678 191.503 38.0799C191.928 38.0799 192.348 37.8803 192.761 37.4811C193.175 37.0819 193.421 36.7734 193.499 36.5557C193.522 36.5073 193.673 35.8601 193.952 34.614C194.232 33.368 194.377 32.6966 194.388 32.5998Z" fill="white"/>
<path d="M197.726 33.3438C197.737 33.3075 197.748 33.2591 197.759 33.1986C197.771 33.1381 197.799 33.0051 197.843 32.7994C197.888 32.5937 197.944 32.4062 198.011 32.2369C198.078 32.0675 198.162 31.8679 198.263 31.6381C198.363 31.4082 198.475 31.2267 198.598 31.0937C198.721 30.9606 198.866 30.8275 199.034 30.6945C199.202 30.5614 199.386 30.5069 199.588 30.5311C199.912 30.5311 200.197 30.6037 200.443 30.7489C200.689 30.8941 200.862 31.0271 200.963 31.1481C201.064 31.2691 201.125 31.3901 201.147 31.511C201.17 31.5836 201.187 31.6199 201.198 31.6199C201.209 31.6199 201.254 31.5776 201.332 31.4929C201.869 30.8638 202.489 30.5493 203.194 30.5493H203.244C203.781 30.5493 204.183 30.7973 204.452 31.2933C204.541 31.5231 204.586 31.7469 204.586 31.9647C204.586 32.3276 204.513 32.6179 204.368 32.8357C204.222 33.0535 204.077 33.1926 203.932 33.2531C203.786 33.3135 203.646 33.3377 203.512 33.3256C203.289 33.3256 203.11 33.2591 202.976 33.126C202.841 32.993 202.774 32.8176 202.774 32.5998C202.774 32.0191 203.087 31.632 203.714 31.4384C203.468 31.2812 203.266 31.2025 203.11 31.2025C202.484 31.2025 201.908 31.6502 201.382 32.5454C201.27 32.7389 201.187 32.9385 201.131 33.1442C201.075 33.3498 200.885 34.1543 200.56 35.5576C200.18 37.2513 199.962 38.1525 199.906 38.2614C199.761 38.588 199.521 38.7513 199.185 38.7513C199.04 38.7513 198.922 38.7151 198.833 38.6425C198.743 38.5699 198.682 38.4973 198.648 38.4247C198.615 38.3521 198.604 38.2916 198.615 38.2433C198.615 38.086 198.838 37.0456 199.286 35.1221C199.733 33.1986 199.957 32.128 199.957 31.9102C199.957 31.4384 199.811 31.2025 199.521 31.2025C199.286 31.2025 199.084 31.3719 198.917 31.7106C198.749 32.0494 198.615 32.4183 198.514 32.8176C198.414 33.2168 198.352 33.4345 198.33 33.4708C198.307 33.495 198.218 33.5071 198.061 33.5071H197.827C197.759 33.4345 197.726 33.3801 197.726 33.3438Z" fill="white"/>
<path d="M205.592 35.5032C205.592 34.8136 205.698 34.1846 205.911 33.616C206.123 33.0474 206.397 32.5756 206.733 32.2006C207.068 31.8256 207.443 31.511 207.856 31.257C208.27 31.0029 208.661 30.8154 209.03 30.6945C209.399 30.5735 209.752 30.519 210.087 30.5311H210.137C210.641 30.5311 211.077 30.6642 211.446 30.9304C211.815 31.1965 211.999 31.5897 211.999 32.1099C211.999 33.1986 211.379 33.9124 210.137 34.2511C209.589 34.4084 208.84 34.493 207.89 34.5051C207.476 34.5051 207.264 34.5172 207.253 34.5414C207.253 34.5656 207.219 34.7773 207.152 35.1766C207.085 35.5758 207.046 35.9266 207.035 36.229C207.035 36.7976 207.152 37.2452 207.387 37.5718C207.622 37.8985 207.974 38.0678 208.443 38.0799C208.913 38.092 209.433 37.9771 210.003 37.7352C210.573 37.4932 211.088 37.094 211.546 36.5375C211.647 36.4165 211.714 36.3561 211.748 36.3561C211.792 36.3561 211.865 36.4105 211.966 36.5194C212.066 36.6282 212.122 36.7129 212.133 36.7734C212.144 36.8339 212.094 36.9307 211.982 37.0638C211.871 37.1968 211.703 37.3601 211.479 37.5537C211.256 37.7473 210.998 37.9348 210.708 38.1162C210.417 38.2977 210.065 38.4489 209.651 38.5699C209.237 38.6909 208.812 38.7513 208.376 38.7513C207.493 38.7513 206.811 38.4308 206.33 37.7896C205.849 37.1484 205.603 36.3863 205.592 35.5032ZM211.194 32.1461C211.127 31.5171 210.747 31.2025 210.054 31.2025C209.685 31.2025 209.343 31.2872 209.03 31.4566C208.717 31.626 208.466 31.8316 208.276 32.0736C208.086 32.3155 207.923 32.5635 207.789 32.8176C207.655 33.0716 207.566 33.2894 207.521 33.4708C207.476 33.6523 207.448 33.7672 207.437 33.8156C207.437 33.8277 207.549 33.8337 207.772 33.8337C209.036 33.8337 209.919 33.6886 210.423 33.3982C210.926 33.1079 211.183 32.6905 211.194 32.1461Z" fill="white"/>
<path d="M218.352 34.2511C218.352 34.2511 218.352 34.1725 218.352 34.0152C218.352 33.8579 218.431 33.737 218.587 33.6523H231.418C230.121 32.5998 229.322 31.2509 229.02 29.6057C229.02 29.5936 229.02 29.5754 229.02 29.5512C229.02 29.5271 229.014 29.5089 229.003 29.4968C229.003 29.3516 229.098 29.2791 229.288 29.2791H229.338C229.439 29.2791 229.506 29.2851 229.54 29.2972C229.573 29.3093 229.607 29.3335 229.64 29.3698C229.674 29.4061 229.691 29.4605 229.691 29.5331C229.691 29.6057 229.707 29.7025 229.741 29.8234C229.774 29.9444 229.819 30.0956 229.875 30.2771C230.121 31.0876 230.529 31.8135 231.099 32.4546C231.67 33.0958 232.335 33.5494 233.095 33.8156C233.196 33.8519 233.246 33.9184 233.246 34.0152C233.246 34.0878 233.218 34.1422 233.162 34.1785C233.107 34.2148 232.972 34.2753 232.76 34.36C232.547 34.4447 232.335 34.5596 232.123 34.7048C231.664 35.0193 231.267 35.3822 230.932 35.7935C230.596 36.2048 230.345 36.6101 230.177 37.0093C230.009 37.4085 229.892 37.711 229.825 37.9166C229.758 38.1223 229.713 38.3098 229.691 38.4792C229.668 38.6001 229.64 38.6727 229.607 38.6969C229.573 38.7211 229.484 38.7392 229.338 38.7513C229.115 38.7513 229.003 38.6848 229.003 38.5517C229.003 38.4671 229.031 38.3158 229.087 38.0981C229.445 36.5738 230.222 35.3338 231.418 34.3781H218.587C218.431 34.2934 218.352 34.1725 218.352 34.0152V34.2511Z" fill="white"/>
<path d="M250.284 26.2849C250.082 26.2487 249.361 26.2305 248.12 26.2305C246.823 26.2305 246.074 26.2487 245.872 26.2849H245.722V25.4502H246.241C246.465 25.4502 246.616 25.4502 246.694 25.4502C246.773 25.4502 246.868 25.4381 246.979 25.4139C247.091 25.3897 247.17 25.3595 247.214 25.3232C247.259 25.2869 247.298 25.2385 247.332 25.178C247.343 25.1538 247.348 24.8272 247.348 24.1981V23.2908H243.004V22.4561L245.537 18.2643C247.248 15.4577 248.114 14.0484 248.137 14.0363C248.159 14.0121 248.276 14 248.489 14H248.791L248.891 14.1089V22.4561H250.435V23.2908H248.891V24.2163C248.891 24.7123 248.891 25.0026 248.891 25.0873C248.891 25.172 248.925 25.2446 248.992 25.3051C249.082 25.3897 249.4 25.4381 249.948 25.4502H250.435V26.2849H250.284ZM247.449 22.4561V16.3953L243.776 22.438L245.604 22.4561H247.449Z" fill="white"/>
<path d="M250.284 51C250.082 50.9637 249.361 50.9456 248.12 50.9456C246.823 50.9456 246.074 50.9637 245.872 51H245.722V50.1653H246.241C246.465 50.1653 246.616 50.1653 246.694 50.1653C246.773 50.1653 246.868 50.1532 246.979 50.129C247.091 50.1048 247.17 50.0745 247.214 50.0383C247.259 50.002 247.298 49.9536 247.332 49.8931C247.343 49.8689 247.348 49.5423 247.348 48.9132V48.0059H243.004V47.1712L245.537 42.9794C247.248 40.1728 248.114 38.7634 248.137 38.7513C248.159 38.7272 248.276 38.7151 248.489 38.7151H248.791L248.891 38.8239V47.1712H250.435V48.0059H248.891V48.9313C248.891 49.4273 248.891 49.7177 248.891 49.8024C248.891 49.887 248.925 49.9596 248.992 50.0201C249.082 50.1048 249.4 50.1532 249.948 50.1653H250.435V51H250.284ZM247.449 47.1712V41.1103L243.776 47.153L245.604 47.1712H247.449Z" fill="white"/>
<path d="M252.598 34.5596H240.858V33.4708H252.598V34.5596Z" fill="white"/>
<path d="M288.54 33.3438C288.551 33.3075 288.562 33.2591 288.573 33.1986C288.584 33.1381 288.612 33.0051 288.657 32.7994C288.702 32.5938 288.758 32.4062 288.825 32.2369C288.892 32.0675 288.976 31.8679 289.076 31.6381C289.177 31.4082 289.289 31.2267 289.412 31.0937C289.535 30.9606 289.68 30.8275 289.848 30.6945C290.016 30.5614 290.2 30.507 290.401 30.5311C291.24 30.5311 291.777 30.9183 292.011 31.6925L292.179 31.5292C292.872 30.8638 293.532 30.5311 294.158 30.5311C294.885 30.5311 295.455 30.8154 295.869 31.384C296.283 31.9526 296.49 32.6421 296.49 33.4527C296.49 34.7592 296.065 35.9629 295.215 37.0638C294.365 38.1646 293.404 38.7211 292.33 38.7332C292.084 38.7332 291.866 38.6969 291.676 38.6243C291.553 38.5638 291.424 38.4731 291.29 38.3521C291.156 38.2312 291.05 38.1283 290.972 38.0437L290.854 37.8985C290.843 37.9106 290.72 38.4368 290.485 39.4772C290.25 40.5176 290.133 41.0438 290.133 41.0559C290.133 41.1285 290.178 41.1708 290.267 41.1829C290.357 41.195 290.563 41.2132 290.888 41.2374H291.307C291.374 41.3221 291.408 41.3765 291.408 41.4007C291.408 41.4249 291.391 41.5338 291.357 41.7273C291.324 41.8725 291.29 41.9632 291.257 41.9995C291.223 42.0358 291.15 42.06 291.039 42.0721C291.016 42.0721 290.955 42.0721 290.854 42.0721C290.754 42.0721 290.563 42.066 290.284 42.054C290.004 42.0419 289.658 42.0358 289.244 42.0358C288.461 42.0358 287.964 42.0479 287.751 42.0721H287.617C287.539 41.9874 287.5 41.9209 287.5 41.8725C287.522 41.5459 287.595 41.3342 287.718 41.2374H288.053C288.433 41.2253 288.651 41.1527 288.707 41.0196C288.741 40.947 289.082 39.5014 289.73 36.6827C290.379 33.864 290.72 32.37 290.754 32.2006C290.765 32.1401 290.77 32.0554 290.77 31.9465C290.77 31.4506 290.631 31.2026 290.351 31.2026C290.105 31.2026 289.898 31.3719 289.73 31.7106C289.563 32.0494 289.434 32.4183 289.345 32.8176C289.255 33.2168 289.188 33.4345 289.143 33.4708C289.121 33.495 289.032 33.5071 288.875 33.5071H288.64C288.573 33.4345 288.54 33.3801 288.54 33.3438ZM291.139 36.7008C291.385 37.6202 291.799 38.0799 292.38 38.0799C292.716 38.0799 293.04 37.9408 293.353 37.6626C293.666 37.3843 293.923 37.0335 294.125 36.6101C294.326 36.1988 294.527 35.5455 294.729 34.6503C294.93 33.7551 295.036 33.0898 295.047 32.6542V32.5454C295.047 31.6502 294.706 31.2026 294.024 31.2026C293.901 31.2026 293.778 31.2207 293.655 31.257C293.532 31.2933 293.409 31.3477 293.286 31.4203C293.163 31.4929 293.051 31.5715 292.951 31.6562C292.85 31.7409 292.755 31.8316 292.666 31.9284C292.576 32.0252 292.492 32.1159 292.414 32.2006C292.336 32.2853 292.274 32.37 292.229 32.4546C292.185 32.5393 292.14 32.5998 292.095 32.6361L292.045 32.7087C292.045 32.7208 292.028 32.8055 291.995 32.9627C291.961 33.12 291.9 33.3861 291.81 33.7612C291.721 34.1362 291.642 34.4507 291.575 34.7048C291.285 35.9871 291.139 36.6524 291.139 36.7008Z" fill="white"/>
<path d="M297.244 35.5032C297.244 34.8136 297.351 34.1846 297.563 33.616C297.776 33.0474 298.049 32.5756 298.385 32.2006C298.72 31.8256 299.095 31.511 299.509 31.257C299.922 31.0029 300.314 30.8154 300.683 30.6945C301.052 30.5735 301.404 30.519 301.739 30.5311H301.79C302.293 30.5311 302.729 30.6642 303.098 30.9304C303.467 31.1965 303.651 31.5897 303.651 32.1099C303.651 33.1986 303.031 33.9124 301.79 34.2511C301.242 34.4084 300.493 34.493 299.542 34.5051C299.128 34.5051 298.916 34.5172 298.905 34.5414C298.905 34.5656 298.871 34.7773 298.804 35.1766C298.737 35.5758 298.698 35.9266 298.687 36.229C298.687 36.7976 298.804 37.2452 299.039 37.5718C299.274 37.8985 299.626 38.0678 300.096 38.0799C300.565 38.092 301.085 37.9771 301.655 37.7352C302.226 37.4932 302.74 37.094 303.199 36.5375C303.299 36.4165 303.366 36.3561 303.4 36.3561C303.445 36.3561 303.517 36.4105 303.618 36.5194C303.718 36.6282 303.774 36.7129 303.786 36.7734C303.797 36.8339 303.746 36.9307 303.635 37.0638C303.523 37.1968 303.355 37.3601 303.131 37.5537C302.908 37.7473 302.651 37.9348 302.36 38.1162C302.069 38.2977 301.717 38.4489 301.303 38.5699C300.89 38.6909 300.465 38.7513 300.029 38.7513C299.145 38.7513 298.463 38.4308 297.982 37.7896C297.502 37.1484 297.256 36.3863 297.244 35.5032ZM302.846 32.1461C302.779 31.5171 302.399 31.2025 301.706 31.2025C301.337 31.2025 300.996 31.2872 300.683 31.4566C300.37 31.626 300.118 31.8316 299.928 32.0736C299.738 32.3155 299.576 32.5635 299.442 32.8176C299.307 33.0716 299.218 33.2894 299.173 33.4708C299.128 33.6523 299.101 33.7672 299.089 33.8156C299.089 33.8277 299.201 33.8337 299.425 33.8337C300.688 33.8337 301.572 33.6886 302.075 33.3982C302.578 33.1079 302.835 32.6905 302.846 32.1461Z" fill="white"/>
<path d="M304.758 33.3438C304.77 33.2712 304.786 33.1744 304.809 33.0535C304.831 32.9325 304.898 32.7026 305.01 32.3639C305.122 32.0252 305.234 31.7409 305.345 31.511C305.457 31.2812 305.642 31.0574 305.899 30.8396C306.156 30.6219 306.413 30.519 306.67 30.5311C307.073 30.5311 307.408 30.64 307.677 30.8578C307.945 31.0755 308.113 31.2812 308.18 31.4747C308.247 31.6683 308.281 31.7953 308.281 31.8558C308.281 31.88 308.286 31.8921 308.297 31.8921L308.482 31.6925C309.164 30.9183 309.941 30.5311 310.813 30.5311C311.417 30.5311 311.903 30.6945 312.272 31.0211C312.641 31.3477 312.831 31.8256 312.843 32.4546C312.854 33.0837 312.641 34.0333 312.205 35.3036C311.769 36.5738 311.557 37.342 311.568 37.6081C311.568 37.9227 311.663 38.0799 311.853 38.0799C311.92 38.0799 311.97 38.0739 312.004 38.0618C312.328 38.0013 312.619 37.7715 312.876 37.3722C313.133 36.973 313.329 36.4891 313.463 35.9205C313.486 35.8238 313.597 35.7754 313.799 35.7754C314.022 35.7754 314.134 35.8238 314.134 35.9205C314.134 35.9326 314.112 36.0234 314.067 36.1927C313.978 36.5436 313.855 36.8883 313.698 37.2271C313.541 37.5658 313.284 37.9045 312.926 38.2433C312.569 38.582 312.183 38.7453 311.769 38.7332C311.244 38.7332 310.863 38.5699 310.629 38.2433C310.394 37.9166 310.276 37.5779 310.276 37.2271C310.276 36.9972 310.478 36.2714 310.88 35.0495C311.283 33.8277 311.49 32.9083 311.501 32.2913C311.501 31.5776 311.255 31.2207 310.763 31.2207H310.679C309.717 31.2207 308.907 31.8316 308.247 33.0535L308.13 33.2712L307.576 35.7028C307.207 37.2876 306.995 38.1404 306.939 38.2614C306.793 38.588 306.553 38.7513 306.218 38.7513C306.072 38.7513 305.955 38.7151 305.865 38.6425C305.776 38.5699 305.714 38.4973 305.681 38.4247C305.647 38.3521 305.636 38.2916 305.647 38.2433C305.647 38.086 305.86 37.1 306.285 35.2854C306.71 33.4708 306.933 32.4849 306.956 32.3276C306.967 32.2671 306.972 32.128 306.972 31.9102C306.972 31.4384 306.838 31.2025 306.57 31.2025C306.145 31.2025 305.793 31.8074 305.513 33.0172C305.446 33.2591 305.412 33.3861 305.412 33.3982C305.39 33.4708 305.284 33.5071 305.094 33.5071H304.859C304.792 33.4345 304.758 33.3801 304.758 33.3438Z" fill="white"/>
<path d="M314.906 31.5655C314.827 31.4808 314.788 31.4203 314.788 31.384C314.788 31.3356 314.805 31.2388 314.839 31.0937C314.872 30.9485 314.9 30.8638 314.922 30.8396C314.945 30.7791 314.995 30.7489 315.073 30.7489C315.152 30.7489 315.437 30.7428 315.929 30.7307H316.818L317.136 29.2791C317.17 29.146 317.209 28.9706 317.254 28.7528C317.298 28.5351 317.338 28.3778 317.371 28.281C317.405 28.1842 317.438 28.0633 317.472 27.9181C317.505 27.7729 317.55 27.6701 317.606 27.6096C317.662 27.5491 317.718 27.4765 317.774 27.3919C317.83 27.3072 317.908 27.2527 318.009 27.2285C318.109 27.2043 318.21 27.1922 318.31 27.1922C318.512 27.2043 318.651 27.2709 318.73 27.3919C318.808 27.5128 318.847 27.6278 318.847 27.7366C318.847 27.8213 318.797 28.1056 318.696 28.5895C318.596 29.0734 318.484 29.5512 318.361 30.023L318.193 30.6945C318.193 30.7186 318.473 30.7307 319.032 30.7307H319.887C319.965 30.8154 320.004 30.882 320.004 30.9304C320.004 31.1965 319.932 31.4082 319.786 31.5655H317.992L317.388 34.1967C316.952 36.1322 316.734 37.1726 316.734 37.3178C316.734 37.8259 316.885 38.0799 317.187 38.0799C317.578 38.0799 317.958 37.8743 318.327 37.463C318.696 37.0517 318.992 36.5436 319.216 35.9387C319.238 35.8661 319.266 35.8238 319.3 35.8117C319.334 35.7996 319.417 35.7875 319.552 35.7754H319.619C319.786 35.7754 319.87 35.8238 319.87 35.9205C319.87 35.9568 319.853 36.0294 319.82 36.1383C319.764 36.3319 319.663 36.5617 319.518 36.8279C319.373 37.094 319.183 37.3783 318.948 37.6807C318.713 37.9832 318.428 38.2372 318.092 38.4429C317.757 38.6485 317.416 38.7513 317.069 38.7513C316.734 38.7513 316.415 38.6606 316.113 38.4792C315.811 38.2977 315.593 37.9832 315.459 37.5356C315.437 37.4388 315.426 37.2755 315.426 37.0456V36.719L316.013 34.1785C316.404 32.4728 316.605 31.6139 316.616 31.6018C316.616 31.5776 316.331 31.5655 315.761 31.5655H314.906Z" fill="white"/>
<path d="M321.078 35.7028C321.078 34.481 321.503 33.3196 322.353 32.2187C323.202 31.1179 324.158 30.5614 325.221 30.5493C325.791 30.5493 326.294 30.8457 326.73 31.4384C326.909 31.0755 327.166 30.8941 327.502 30.8941C327.647 30.8941 327.776 30.9425 327.887 31.0392C327.999 31.136 328.055 31.257 328.055 31.4022C328.055 31.5594 327.848 32.5272 327.435 34.3055C327.021 36.0839 326.808 37.0879 326.797 37.3178C326.797 37.6202 326.836 37.8198 326.915 37.9166C326.993 38.0134 327.11 38.0678 327.267 38.0799C327.367 38.0678 327.479 38.0134 327.602 37.9166C327.837 37.6747 328.066 37.094 328.29 36.1746C328.357 35.9326 328.413 35.8056 328.458 35.7935C328.48 35.7814 328.536 35.7754 328.625 35.7754H328.692C328.905 35.7754 329.011 35.8298 329.011 35.9387C329.011 36.0113 328.983 36.1746 328.927 36.4286C328.871 36.6827 328.76 37.0093 328.592 37.4085C328.424 37.8077 328.245 38.1102 328.055 38.3158C327.91 38.4731 327.731 38.6001 327.518 38.6969C327.429 38.7211 327.295 38.7332 327.116 38.7332C326.736 38.7332 326.417 38.6425 326.16 38.461C325.903 38.2795 325.735 38.092 325.657 37.8985L325.556 37.6263C325.545 37.6142 325.523 37.6202 325.489 37.6444C325.467 37.6686 325.444 37.6928 325.422 37.717C324.762 38.3945 324.091 38.7332 323.409 38.7332C322.794 38.7332 322.252 38.4913 321.782 38.0074C321.313 37.5235 321.078 36.7553 321.078 35.7028ZM326.411 32.5998C326.411 32.5272 326.383 32.3941 326.328 32.2006C326.272 32.007 326.143 31.7953 325.942 31.5655C325.741 31.3356 325.483 31.2146 325.17 31.2025C324.779 31.2025 324.404 31.3901 324.047 31.7651C323.689 32.1401 323.409 32.63 323.208 33.2349C322.884 34.1906 322.654 35.1826 322.52 36.2109C322.52 36.2472 322.52 36.3137 322.52 36.4105C322.52 36.5073 322.515 36.5799 322.503 36.6282C322.503 37.1726 322.604 37.5477 322.805 37.7533C323.007 37.959 323.247 38.0678 323.527 38.0799C323.952 38.0799 324.371 37.8803 324.785 37.4811C325.198 37.0819 325.444 36.7734 325.523 36.5557C325.545 36.5073 325.696 35.8601 325.975 34.614C326.255 33.368 326.4 32.6966 326.411 32.5998Z" fill="white"/>
<path d="M334.613 37.7715C334.445 37.9287 334.199 38.0981 333.875 38.2795C333.551 38.461 333.21 38.5517 332.852 38.5517C332.148 38.5517 331.583 38.2795 331.158 37.7352C330.733 37.1908 330.515 36.4952 330.504 35.6484C330.504 34.3781 330.934 33.2107 331.795 32.1461C332.656 31.0816 333.612 30.5432 334.663 30.5311C335.189 30.5311 335.675 30.8215 336.123 31.4022L336.173 31.3296C336.195 31.2933 336.223 31.257 336.257 31.2207C336.29 31.1844 336.341 31.136 336.408 31.0755C336.475 31.015 336.547 30.9727 336.626 30.9485C336.704 30.9243 336.793 30.9062 336.894 30.8941C337.051 30.8941 337.179 30.9485 337.28 31.0574C337.38 31.1663 337.436 31.2812 337.448 31.4022C337.448 31.5836 337.129 33.0474 336.492 35.7935C335.854 38.5396 335.519 39.9429 335.485 40.0034C335.284 40.6567 334.853 41.195 334.194 41.6184C333.534 42.0418 332.779 42.2596 331.929 42.2717C330.353 42.2717 329.565 41.8604 329.565 41.0378C329.565 40.7232 329.665 40.445 329.867 40.203C330.068 39.9611 330.325 39.8401 330.638 39.8401C330.806 39.8401 330.962 39.8946 331.108 40.0034C331.253 40.1123 331.331 40.2998 331.342 40.566C331.342 40.6869 331.331 40.8019 331.309 40.9107C331.287 41.0196 331.247 41.1043 331.192 41.1648C331.136 41.2253 331.091 41.2858 331.057 41.3462C331.024 41.4067 330.985 41.4551 330.94 41.4914L330.906 41.5277H330.923C331.035 41.564 331.37 41.5821 331.929 41.5821C332.354 41.5821 332.69 41.5096 332.936 41.3644C333.193 41.2313 333.433 41.0317 333.657 40.7656C333.881 40.4994 334.037 40.2151 334.127 39.9127C334.194 39.6828 334.283 39.3078 334.395 38.7876C334.54 38.207 334.613 37.8682 334.613 37.7715ZM335.837 32.5998L335.77 32.4002C335.737 32.2671 335.709 32.1764 335.686 32.128C335.664 32.0796 335.631 31.9949 335.586 31.874C335.541 31.753 335.485 31.6683 335.418 31.6199C335.351 31.5715 335.278 31.505 335.2 31.4203C335.122 31.3356 335.021 31.2812 334.898 31.257C334.775 31.2328 334.652 31.2146 334.529 31.2025C334.037 31.2025 333.562 31.5231 333.104 32.1643C332.768 32.6361 332.489 33.3559 332.265 34.3237C332.041 35.2915 331.929 35.9931 331.929 36.4286C331.929 37.3843 332.276 37.8622 332.969 37.8622C333.596 37.8622 334.211 37.4388 334.814 36.592L334.949 36.4105L335.837 32.5998Z" fill="white"/>
<path d="M340.769 38.7513C339.93 38.7513 339.253 38.455 338.739 37.8622C338.225 37.2694 337.968 36.5557 337.968 35.7209C337.968 34.9346 338.135 34.1906 338.471 33.489C338.806 32.7873 339.265 32.1764 339.846 31.6562C340.696 30.9183 341.562 30.5493 342.446 30.5493C342.804 30.5493 343.027 30.5553 343.117 30.5674C343.262 30.6037 343.407 30.6461 343.553 30.6945C343.698 30.7428 343.894 30.8396 344.14 30.9848C344.386 31.13 344.587 31.3114 344.744 31.5292C344.9 31.7469 345.045 32.0433 345.18 32.4183C345.314 32.7934 345.381 33.2168 345.381 33.6886C345.381 34.983 344.9 36.1504 343.938 37.1908C342.977 38.2312 341.92 38.7513 340.769 38.7513ZM339.427 36.3742C339.427 36.9791 339.572 37.4146 339.863 37.6807C340.154 37.9469 340.483 38.0799 340.852 38.0799C341.344 38.0799 341.808 37.8864 342.244 37.4993C342.681 37.1121 343.027 36.604 343.284 35.975C343.385 35.7209 343.514 35.2733 343.67 34.6322C343.827 33.991 343.905 33.4345 343.905 32.9627C343.905 32.4304 343.804 32.0252 343.603 31.7469C343.335 31.384 342.977 31.2025 342.53 31.2025C341.825 31.2025 341.205 31.5534 340.668 32.255C340.254 32.7873 339.947 33.495 339.745 34.3781C339.544 35.2612 339.438 35.9266 339.427 36.3742Z" fill="white"/>
<path d="M345.884 33.3438C345.895 33.2712 345.912 33.1744 345.934 33.0535C345.957 32.9325 346.024 32.7026 346.136 32.3639C346.247 32.0252 346.359 31.7409 346.471 31.511C346.583 31.2812 346.767 31.0574 347.025 30.8396C347.282 30.6219 347.539 30.519 347.796 30.5311C348.199 30.5311 348.534 30.64 348.802 30.8578C349.071 31.0755 349.239 31.2812 349.306 31.4747C349.373 31.6683 349.406 31.7953 349.406 31.8558C349.406 31.88 349.412 31.8921 349.423 31.8921L349.608 31.6925C350.29 30.9183 351.067 30.5311 351.939 30.5311C352.543 30.5311 353.029 30.6945 353.398 31.0211C353.767 31.3477 353.957 31.8256 353.968 32.4546C353.98 33.0837 353.767 34.0333 353.331 35.3036C352.895 36.5738 352.682 37.342 352.694 37.6081C352.694 37.9227 352.789 38.0799 352.979 38.0799C353.046 38.0799 353.096 38.0739 353.13 38.0618C353.454 38.0013 353.745 37.7715 354.002 37.3722C354.259 36.973 354.455 36.4891 354.589 35.9205C354.611 35.8238 354.723 35.7754 354.924 35.7754C355.148 35.7754 355.26 35.8238 355.26 35.9205C355.26 35.9326 355.237 36.0234 355.193 36.1927C355.103 36.5436 354.98 36.8883 354.824 37.2271C354.667 37.5658 354.41 37.9045 354.052 38.2433C353.694 38.582 353.309 38.7453 352.895 38.7332C352.369 38.7332 351.989 38.5699 351.754 38.2433C351.52 37.9166 351.402 37.5779 351.402 37.2271C351.402 36.9972 351.603 36.2714 352.006 35.0495C352.409 33.8277 352.615 32.9083 352.627 32.2913C352.627 31.5776 352.381 31.2207 351.889 31.2207H351.805C350.843 31.2207 350.032 31.8316 349.373 33.0535L349.255 33.2712L348.702 35.7028C348.333 37.2876 348.12 38.1404 348.064 38.2614C347.919 38.588 347.679 38.7513 347.343 38.7513C347.198 38.7513 347.08 38.7151 346.991 38.6425C346.902 38.5699 346.84 38.4973 346.807 38.4247C346.773 38.3521 346.762 38.2916 346.773 38.2433C346.773 38.086 346.985 37.1 347.41 35.2854C347.835 33.4708 348.059 32.4849 348.081 32.3276C348.092 32.2671 348.098 32.128 348.098 31.9102C348.098 31.4384 347.964 31.2025 347.695 31.2025C347.271 31.2025 346.918 31.8074 346.639 33.0172C346.572 33.2591 346.538 33.3861 346.538 33.3982C346.516 33.4708 346.41 33.5071 346.22 33.5071H345.985C345.918 33.4345 345.884 33.3801 345.884 33.3438Z" fill="white"/>
<path d="M361.194 34.2511C361.194 34.2511 361.194 34.1725 361.194 34.0152C361.194 33.8579 361.272 33.737 361.429 33.6523H374.259C372.962 32.5998 372.163 31.2509 371.861 29.6057C371.861 29.5936 371.861 29.5754 371.861 29.5512C371.861 29.5271 371.855 29.5089 371.844 29.4968C371.844 29.3516 371.939 29.2791 372.129 29.2791H372.18C372.28 29.2791 372.347 29.2851 372.381 29.2972C372.414 29.3093 372.448 29.3335 372.482 29.3698C372.515 29.4061 372.532 29.4605 372.532 29.5331C372.532 29.6057 372.549 29.7025 372.582 29.8234C372.616 29.9444 372.66 30.0956 372.716 30.2771C372.962 31.0876 373.37 31.8135 373.941 32.4546C374.511 33.0958 375.176 33.5494 375.937 33.8156C376.037 33.8519 376.088 33.9184 376.088 34.0152C376.088 34.0878 376.06 34.1422 376.004 34.1785C375.948 34.2148 375.814 34.2753 375.601 34.36C375.389 34.4447 375.176 34.5596 374.964 34.7048C374.505 35.0193 374.108 35.3822 373.773 35.7935C373.438 36.2048 373.186 36.6101 373.018 37.0093C372.851 37.4085 372.733 37.711 372.666 37.9166C372.599 38.1223 372.554 38.3098 372.532 38.4792C372.509 38.6001 372.482 38.6727 372.448 38.6969C372.414 38.7211 372.325 38.7392 372.18 38.7513C371.956 38.7513 371.844 38.6848 371.844 38.5517C371.844 38.4671 371.872 38.3158 371.928 38.0981C372.286 36.5738 373.063 35.3338 374.259 34.3781H361.429C361.272 34.2934 361.194 34.1725 361.194 34.0152V34.2511Z" fill="white"/>
<path d="M388.127 23.436C388.127 23.7263 388.037 23.9683 387.858 24.1618C387.679 24.3554 387.461 24.4522 387.204 24.4522H387.087C387.601 25.4079 388.283 25.8857 389.133 25.8857C389.916 25.8857 390.486 25.5228 390.844 24.797C391.056 24.3977 391.163 23.6235 391.163 22.4743C391.163 21.2282 391.012 20.3874 390.71 19.9519C390.419 19.5527 390.095 19.3531 389.737 19.3531H389.636C388.764 19.3531 388.104 19.7644 387.657 20.5871C387.612 20.6717 387.573 20.7201 387.54 20.7322C387.506 20.7443 387.422 20.7564 387.288 20.7685C387.098 20.7685 386.992 20.7322 386.969 20.6596C386.947 20.6112 386.936 19.5527 386.936 17.4841V15.1432C386.936 14.5383 386.964 14.2359 387.02 14.2359C387.042 14.2117 387.064 14.1996 387.087 14.1996C387.098 14.1996 387.215 14.248 387.439 14.3448C387.663 14.4416 387.97 14.5383 388.362 14.6351C388.753 14.7319 389.172 14.7803 389.619 14.7803C390.413 14.7803 391.174 14.6109 391.901 14.2722C391.99 14.2238 392.063 14.1996 392.119 14.1996C392.208 14.1996 392.253 14.3085 392.253 14.5262V14.7621C391.336 15.9356 390.19 16.5223 388.814 16.5223C388.468 16.5223 388.155 16.486 387.875 16.4134L387.707 16.3771V19.4983C387.92 19.3289 388.088 19.1958 388.211 19.0991C388.334 19.0023 388.535 18.9055 388.814 18.8087C389.094 18.7119 389.379 18.6636 389.67 18.6636C390.576 18.6636 391.341 19.0567 391.968 19.8431C392.594 20.6294 392.907 21.5609 392.907 22.6376C392.907 23.7505 392.549 24.7002 391.833 25.4865C391.118 26.2728 390.246 26.6721 389.217 26.6842C388.311 26.6842 387.584 26.3575 387.037 25.7043C386.489 25.051 386.215 24.3131 386.215 23.4904C386.215 23.2001 386.276 22.9702 386.399 22.8009C386.522 22.6315 386.651 22.5226 386.785 22.4743C386.919 22.4259 387.048 22.4017 387.171 22.4017C387.45 22.4017 387.679 22.5045 387.858 22.7102C388.037 22.9158 388.127 23.1578 388.127 23.436Z" fill="white"/>
<path d="M393.125 51C392.924 50.9637 392.202 50.9456 390.961 50.9456C389.664 50.9456 388.915 50.9637 388.714 51H388.563V50.1653H389.083C389.306 50.1653 389.457 50.1653 389.536 50.1653C389.614 50.1653 389.709 50.1532 389.821 50.129C389.933 50.1048 390.011 50.0745 390.056 50.0383C390.1 50.002 390.139 49.9536 390.173 49.8931C390.184 49.8689 390.19 49.5423 390.19 48.9132V48.0059H385.846V47.1712L388.378 42.9794C390.089 40.1728 390.956 38.7634 390.978 38.7513C391 38.7272 391.118 38.7151 391.33 38.7151H391.632L391.733 38.8239V47.1712H393.276V48.0059H391.733V48.9313C391.733 49.4273 391.733 49.7177 391.733 49.8024C391.733 49.887 391.766 49.9596 391.833 50.0201C391.923 50.1048 392.242 50.1532 392.789 50.1653H393.276V51H393.125ZM390.29 47.1712V41.1103L386.617 47.153L388.445 47.1712H390.29Z" fill="white"/>
<path d="M395.44 34.5596H383.699V33.4708H395.44V34.5596Z" fill="white"/>
<defs>
<filter id="filter0_d_4_316" x="0" y="0" width="435" height="74" filterUnits="userSpaceOnUse" color-interpolation-filters="sRGB">
<feFlood flood-opacity="0" result="BackgroundImageFix"/>
<feColorMatrix in="SourceAlpha" type="matrix" values="0 0 0 0 0 0 0 0 0 0 0 0 0 0 0 0 0 0 127 0" result="hardAlpha"/>
<feOffset dy="4"/>
<feGaussianBlur stdDeviation="2"/>
<feComposite in2="hardAlpha" operator="out"/>
<feColorMatrix type="matrix" values="0 0 0 0 0 0 0 0 0 0 0 0 0 0 0 0 0 0 0.25 0"/>
<feBlend mode="normal" in2="BackgroundImageFix" result="effect1_dropShadow_4_316"/>
<feBlend mode="normal" in="SourceGraphic" in2="effect1_dropShadow_4_316" result="shape"/>
</filter>
</defs>
</svg>
