<svg width="368" height="74" viewBox="0 0 368 74" fill="none" xmlns="http://www.w3.org/2000/svg">
<g filter="url(#filter0_d_3_77)">
<rect x="4" width="360" height="66" fill="#0D1117"/>
<g clip-path="url(#clip0_3_77)">
<path d="M28.3801 31.3817C28.3922 31.3093 28.4103 31.2127 28.4344 31.0921C28.4585 30.9714 28.5309 30.7422 28.6516 30.4043C28.7723 30.0664 28.8929 29.7829 29.0136 29.5536C29.1342 29.3244 29.3273 29.1011 29.5928 28.8839C29.8582 28.6668 30.1237 28.5642 30.3891 28.5763C30.6546 28.5883 30.914 28.6306 31.1674 28.703C31.4208 28.7753 31.6018 28.8839 31.7104 29.0287C31.819 29.1735 31.9155 29.3063 32 29.4269C32.0845 29.5476 32.1327 29.6622 32.1448 29.7708L32.181 29.8975C32.181 29.9216 32.187 29.9337 32.1991 29.9337L32.3982 29.7346C33.1222 28.9624 33.9728 28.5763 34.9502 28.5763C35.1553 28.5763 35.3424 28.5883 35.5113 28.6125C35.6802 28.6366 35.8371 28.6788 35.9819 28.7392C36.1267 28.7995 36.2413 28.8598 36.3258 28.9201C36.4102 28.9805 36.5007 29.0529 36.5973 29.1373C36.6938 29.2218 36.7541 29.3002 36.7783 29.3726C36.8024 29.445 36.8507 29.5235 36.923 29.6079C36.9954 29.6924 37.0196 29.7648 36.9954 29.8251C36.9713 29.8855 36.9894 29.9397 37.0497 29.988C37.1101 30.0363 37.1221 30.0785 37.0859 30.1147L37.2307 29.9337C37.9909 29.0287 38.8899 28.5763 39.9276 28.5763C40.5791 28.5763 41.104 28.7392 41.5022 29.0649C41.9004 29.3907 42.1055 29.8674 42.1176 30.4948C42.1176 31.1102 41.8883 32.0634 41.4298 33.3545C40.9713 34.6456 40.742 35.4179 40.742 35.6713C40.7541 35.8402 40.7843 35.9548 40.8325 36.0151C40.8808 36.0755 40.9713 36.1056 41.104 36.1056C41.4419 36.1056 41.7556 35.9246 42.0452 35.5627C42.3348 35.2007 42.5701 34.7059 42.7511 34.0785C42.7873 33.9458 42.8235 33.8673 42.8597 33.8432C42.8959 33.8191 42.9924 33.807 43.1493 33.807C43.3906 33.807 43.5113 33.8553 43.5113 33.9518C43.5113 33.9639 43.4871 34.0544 43.4389 34.2233C43.3423 34.5732 43.2096 34.9171 43.0407 35.255C42.8717 35.5928 42.5942 35.9307 42.2081 36.2685C41.822 36.6064 41.4057 36.7693 40.9592 36.7572C40.3921 36.7572 39.9819 36.5943 39.7285 36.2685C39.4751 35.9427 39.3484 35.6049 39.3484 35.255C39.3484 35.0257 39.5656 34.3017 40 33.083C40.4343 31.8643 40.6576 30.9473 40.6696 30.3319C40.6696 29.62 40.4042 29.264 39.8733 29.264H39.7828C38.7451 29.264 37.8703 29.8734 37.1583 31.0921L37.0316 31.3093L36.4344 33.7346C36.0362 35.3153 35.8069 36.166 35.7466 36.2866C35.5897 36.6124 35.3303 36.7753 34.9683 36.7753C34.8114 36.7753 34.6847 36.7331 34.5882 36.6486C34.4917 36.5642 34.4253 36.4918 34.3891 36.4314C34.3529 36.3711 34.3348 36.3108 34.3348 36.2504C34.3348 36.1177 34.54 35.255 34.9502 33.6622L35.6018 31.0197C35.638 30.8387 35.6561 30.6094 35.6561 30.3319C35.6561 29.62 35.3906 29.264 34.8597 29.264H34.7692C33.7315 29.264 32.8567 29.8734 32.1448 31.0921L32.0181 31.3093L31.4208 33.7346C31.0226 35.3153 30.7934 36.166 30.733 36.2866C30.5762 36.6124 30.3167 36.7753 29.9548 36.7753C29.7979 36.7753 29.6712 36.7391 29.5747 36.6667C29.4781 36.5943 29.4118 36.5219 29.3756 36.4495C29.3394 36.3771 29.3273 36.3168 29.3394 36.2685C29.3394 36.1117 29.5686 35.1222 30.0271 33.3002C30.4977 31.442 30.733 30.4707 30.733 30.3862C30.7692 30.2052 30.7873 30.0423 30.7873 29.8975C30.7873 29.4631 30.6365 29.2459 30.3348 29.2459C30.0694 29.2459 29.8462 29.4149 29.6652 29.7527C29.4842 30.0906 29.3454 30.4586 29.2489 30.8568C29.1523 31.255 29.0799 31.4722 29.0317 31.5084C29.0075 31.5325 28.911 31.5446 28.7421 31.5446H28.4887C28.4163 31.4722 28.3801 31.4179 28.3801 31.3817Z" fill="white"/>
<path d="M46.2459 31.6133C46.2459 31.4086 46.3269 31.2295 46.489 31.0759C46.6511 30.9223 46.8388 30.8413 47.052 30.8328C47.2056 30.8328 47.3336 30.884 47.4359 30.9863C47.5383 31.0887 47.5938 31.2167 47.6023 31.3702C47.6023 31.5664 47.517 31.7456 47.3464 31.9077C47.1757 32.0697 46.9881 32.1551 46.7833 32.1636C46.6554 32.1636 46.5359 32.1209 46.425 32.0356C46.3141 31.9503 46.2544 31.8096 46.2459 31.6133ZM44.1601 35.6186C44.1601 35.5504 44.1985 35.4181 44.2752 35.2219C44.352 35.0257 44.4544 34.8082 44.5824 34.5693C44.7103 34.3304 44.898 34.1129 45.1454 33.9167C45.3928 33.7205 45.6487 33.6266 45.9132 33.6352C46.2459 33.6352 46.5231 33.7333 46.7449 33.9295C46.9667 34.1257 47.0819 34.3901 47.0904 34.7229C47.0904 34.8679 47.0307 35.1067 46.9113 35.4394C46.7919 35.7722 46.6212 36.22 46.3994 36.7831C46.1776 37.3461 45.9985 37.8281 45.862 38.229C45.8193 38.4167 45.798 38.5532 45.798 38.6385C45.798 38.8518 45.8705 38.9584 46.0155 38.9584C46.0923 38.9584 46.1734 38.9456 46.2587 38.9201C46.344 38.8945 46.4421 38.8347 46.553 38.7409C46.6639 38.6471 46.7791 38.4978 46.8985 38.293C47.0179 38.0883 47.1246 37.8366 47.2184 37.538C47.244 37.4357 47.2653 37.376 47.2824 37.3589C47.2994 37.3418 47.372 37.3333 47.4999 37.3333C47.6705 37.3333 47.7558 37.376 47.7558 37.4613C47.7558 37.5295 47.7175 37.6617 47.6407 37.858C47.5639 38.0542 47.4573 38.2717 47.3208 38.5106C47.1843 38.7494 46.9923 38.9627 46.7449 39.1504C46.4975 39.3381 46.2331 39.4319 45.9516 39.4319C45.6786 39.4319 45.4269 39.3423 45.1966 39.1632C44.9662 38.984 44.8468 38.711 44.8383 38.3442C44.8383 38.1992 44.8596 38.0627 44.9023 37.9347C44.9449 37.8068 45.1283 37.3205 45.4525 36.476C45.7767 35.6143 45.9644 35.0982 46.0155 34.9276C46.0667 34.757 46.0966 34.5906 46.1051 34.4285C46.1051 34.2238 46.0326 34.1214 45.8876 34.1214H45.862C45.6061 34.1214 45.3715 34.2622 45.1582 34.5437C44.9449 34.8252 44.7828 35.1835 44.6719 35.6186C44.6634 35.6271 44.6549 35.6399 44.6463 35.657C44.6378 35.674 44.6335 35.6868 44.6335 35.6954C44.6335 35.7039 44.625 35.7124 44.6079 35.721C44.5909 35.7295 44.5781 35.7338 44.5696 35.7338C44.561 35.7338 44.544 35.7338 44.5184 35.7338C44.4928 35.7338 44.4587 35.7338 44.416 35.7338H44.2369C44.1857 35.6826 44.1601 35.6442 44.1601 35.6186Z" fill="white"/>
<path d="M50.9139 32.0514C50.9139 31.2188 50.9743 30.4284 51.0949 29.6803C51.2156 28.9322 51.3544 28.2867 51.5112 27.7437C51.6681 27.2007 51.8913 26.6698 52.1809 26.1509C52.4705 25.6321 52.6998 25.2278 52.8687 24.9383C53.0376 24.6487 53.291 24.3349 53.6289 23.9971C53.9667 23.6592 54.1658 23.4541 54.2262 23.3817C54.2865 23.3093 54.4373 23.1826 54.6786 23.0016H54.9139H54.9863C55.1553 23.0016 55.2397 23.0559 55.2397 23.1645C55.2397 23.2007 55.1372 23.3274 54.932 23.5446C54.7269 23.7618 54.4795 24.0815 54.19 24.5039C53.9004 24.9262 53.6047 25.445 53.3031 26.0604C53.0014 26.6758 52.748 27.5084 52.5429 28.5582C52.3378 29.6079 52.2352 30.7723 52.2352 32.0514C52.2352 33.3304 52.3378 34.4887 52.5429 35.5265C52.748 36.5642 52.9954 37.4028 53.285 38.0423C53.5746 38.6818 53.8702 39.2006 54.1719 39.5988C54.4735 39.997 54.7269 40.3168 54.932 40.5581C55.1372 40.7994 55.2397 40.9261 55.2397 40.9382C55.2397 41.0468 55.1492 41.1011 54.9682 41.1011H54.9139H54.6786L54.1719 40.6667C53.0376 39.6411 52.2111 38.362 51.6922 36.8296C51.1734 35.2972 50.9139 33.7044 50.9139 32.0514Z" fill="white"/>
<path d="M56.7239 29.6079C56.6394 29.5235 56.5972 29.4631 56.5972 29.4269C56.5972 29.3787 56.6153 29.2821 56.6515 29.1373C56.6877 28.9925 56.7178 28.9081 56.742 28.8839C56.7661 28.8236 56.8204 28.7934 56.9049 28.7934C56.9893 28.7934 57.297 28.7874 57.8279 28.7753H58.7872L59.1311 27.3274C59.1673 27.1947 59.2095 27.0197 59.2578 26.8025C59.3061 26.5853 59.3483 26.4284 59.3845 26.3319C59.4207 26.2354 59.4569 26.1147 59.4931 25.9699C59.5293 25.8251 59.5776 25.7226 59.6379 25.6622C59.6982 25.6019 59.7586 25.5295 59.8189 25.445C59.8792 25.3606 59.9637 25.3063 60.0723 25.2821C60.1809 25.258 60.2895 25.2459 60.3981 25.2459C60.6153 25.258 60.7661 25.3244 60.8506 25.445C60.935 25.5657 60.9773 25.6803 60.9773 25.7889C60.9773 25.8734 60.923 26.157 60.8144 26.6396C60.7058 27.1223 60.5851 27.5989 60.4524 28.0695L60.2714 28.7391C60.2714 28.7633 60.573 28.7753 61.1764 28.7753H62.0994C62.1839 28.8598 62.2261 28.9262 62.2261 28.9744C62.2261 29.2399 62.1477 29.4511 61.9908 29.6079H60.0542L59.4026 32.2323C58.932 34.163 58.6967 35.2007 58.6967 35.3455C58.6967 35.8522 58.8596 36.1056 59.1854 36.1056C59.6077 36.1056 60.018 35.9005 60.4162 35.4903C60.8144 35.08 61.1341 34.5732 61.3754 33.9699C61.3996 33.8975 61.4297 33.8553 61.4659 33.8432C61.5021 33.8311 61.5926 33.8191 61.7374 33.807H61.8098C61.9908 33.807 62.0813 33.8553 62.0813 33.9518C62.0813 33.988 62.0632 34.0604 62.027 34.169C61.9667 34.3621 61.8581 34.5913 61.7012 34.8568C61.5444 35.1222 61.3392 35.4058 61.0859 35.7074C60.8325 36.0091 60.5248 36.2625 60.1628 36.4676C59.8008 36.6728 59.4328 36.7753 59.0587 36.7753C58.6967 36.7753 58.3528 36.6848 58.027 36.5038C57.7013 36.3228 57.466 36.0091 57.3212 35.5626C57.297 35.4661 57.285 35.3032 57.285 35.074V34.7482L57.9184 32.2142C58.3408 30.5129 58.558 29.6562 58.57 29.6441C58.57 29.62 58.2623 29.6079 57.647 29.6079H56.7239Z" fill="white"/>
<path d="M67.8225 32.2866C67.8225 32.2866 67.8225 32.2082 67.8225 32.0514C67.8225 31.8945 67.9069 31.7738 68.0759 31.6894H73.4876V28.9744L73.5057 26.2595C73.6264 26.1027 73.741 26.0242 73.8496 26.0242C74.0065 26.0242 74.1271 26.1147 74.2116 26.2957V31.6894H79.6052C79.7862 31.7859 79.8767 31.9066 79.8767 32.0514C79.8767 32.1961 79.7862 32.3168 79.6052 32.4133H74.2116V37.807C74.1151 37.9759 74.0065 38.0604 73.8858 38.0604H73.8496H73.8134C73.6686 38.0604 73.56 37.9759 73.4876 37.807V32.4133H68.0759C67.9069 32.3289 67.8225 32.2082 67.8225 32.0514V32.2866Z" fill="white"/>
<path d="M88.7672 26.1147L88.5319 26.2052C88.363 26.2656 88.1216 26.3259 87.8079 26.3862C87.4942 26.4465 87.1443 26.4888 86.7582 26.5129H86.4143V25.6803H86.7582C87.3253 25.6562 87.8502 25.5657 88.3328 25.4088C88.8155 25.252 89.1533 25.1072 89.3464 24.9745C89.5394 24.8417 89.7084 24.709 89.8532 24.5763C89.8773 24.5401 89.9497 24.522 90.0704 24.522C90.179 24.522 90.2815 24.5582 90.378 24.6306V30.0423L90.3961 35.4722C90.4806 35.5566 90.553 35.6109 90.6133 35.635C90.6737 35.6592 90.8185 35.6833 91.0477 35.7074C91.277 35.7316 91.651 35.7436 92.1699 35.7436H92.6405V36.5762H92.4414C92.188 36.54 91.2287 36.5219 89.5636 36.5219C87.9226 36.5219 86.9753 36.54 86.722 36.5762H86.5048V35.7436H86.9753C87.2408 35.7436 87.4701 35.7436 87.6631 35.7436C87.8562 35.7436 88.007 35.7376 88.1156 35.7255C88.2242 35.7135 88.3207 35.6954 88.4052 35.6712C88.4897 35.6471 88.5379 35.635 88.55 35.635C88.5621 35.635 88.5983 35.6049 88.6586 35.5446C88.7189 35.4842 88.7551 35.4601 88.7672 35.4722V26.1147Z" fill="white"/>
<path d="M95.0477 23.0197L95.1201 23.0016C95.1804 23.0016 95.2408 23.0016 95.3011 23.0016H95.5183L96.0251 23.436C97.1593 24.4616 97.9859 25.7407 98.5047 27.2731C99.0236 28.8055 99.283 30.3983 99.283 32.0514C99.283 32.8719 99.2227 33.6622 99.102 34.4224C98.9813 35.1826 98.8426 35.8281 98.6857 36.359C98.5288 36.8899 98.3056 37.4209 98.016 37.9518C97.7264 38.4827 97.4972 38.8869 97.3282 39.1644C97.1593 39.442 96.912 39.7497 96.5862 40.0875C96.2604 40.4254 96.0673 40.6245 96.007 40.6848C95.9467 40.7451 95.8079 40.8598 95.5907 41.0287C95.5545 41.0649 95.5304 41.089 95.5183 41.1011H95.3011C95.2046 41.1011 95.1382 41.1011 95.102 41.1011C95.0658 41.1011 95.0356 41.083 95.0115 41.0468C94.9874 41.0106 94.9693 40.9563 94.9572 40.8839C94.9693 40.8718 95.0356 40.7934 95.1563 40.6486C97.0266 38.7059 97.9617 35.8402 97.9617 32.0514C97.9617 28.2625 97.0266 25.3968 95.1563 23.4541C95.0356 23.3093 94.9693 23.2309 94.9572 23.2188C94.9572 23.1223 94.9874 23.0559 95.0477 23.0197Z" fill="white"/>
<path d="M107.044 30.2957C107.044 30.1388 107.129 30.0182 107.297 29.9337H118.827C119.008 30.0302 119.098 30.1509 119.098 30.2957C119.098 30.4284 119.014 30.5431 118.845 30.6396L113.089 30.6577H107.334C107.141 30.5974 107.044 30.4767 107.044 30.2957ZM107.044 33.807C107.044 33.626 107.141 33.5053 107.334 33.445H118.845C119.014 33.5657 119.098 33.6863 119.098 33.807C119.098 33.9639 119.008 34.0845 118.827 34.169H107.297C107.129 34.0845 107.044 33.9639 107.044 33.807Z" fill="white"/>
<path d="M125.52 31.3817C125.532 31.3093 125.55 31.2127 125.574 31.0921C125.598 30.9714 125.671 30.7422 125.791 30.4043C125.912 30.0664 126.033 29.7829 126.153 29.5536C126.274 29.3244 126.467 29.1011 126.733 28.8839C126.998 28.6668 127.264 28.5642 127.529 28.5763C127.794 28.5883 128.054 28.6306 128.307 28.703C128.561 28.7753 128.742 28.8839 128.85 29.0287C128.959 29.1735 129.055 29.3063 129.14 29.4269C129.224 29.5476 129.273 29.6622 129.285 29.7708L129.321 29.8975C129.321 29.9216 129.327 29.9337 129.339 29.9337L129.538 29.7346C130.262 28.9624 131.113 28.5763 132.09 28.5763C132.295 28.5763 132.482 28.5883 132.651 28.6125C132.82 28.6366 132.977 28.6788 133.122 28.7392C133.267 28.7995 133.381 28.8598 133.466 28.9201C133.55 28.9805 133.641 29.0529 133.737 29.1373C133.834 29.2218 133.894 29.3002 133.918 29.3726C133.942 29.445 133.991 29.5235 134.063 29.6079C134.135 29.6924 134.159 29.7648 134.135 29.8251C134.111 29.8855 134.129 29.9397 134.19 29.988C134.25 30.0363 134.262 30.0785 134.226 30.1147L134.371 29.9337C135.131 29.0287 136.03 28.5763 137.067 28.5763C137.719 28.5763 138.244 28.7392 138.642 29.0649C139.04 29.3907 139.245 29.8674 139.257 30.4948C139.257 31.1102 139.028 32.0634 138.57 33.3545C138.111 34.6456 137.882 35.4179 137.882 35.6713C137.894 35.8402 137.924 35.9548 137.972 36.0151C138.021 36.0755 138.111 36.1056 138.244 36.1056C138.582 36.1056 138.896 35.9246 139.185 35.5627C139.475 35.2007 139.71 34.7059 139.891 34.0785C139.927 33.9458 139.963 33.8673 140 33.8432C140.036 33.8191 140.132 33.807 140.289 33.807C140.53 33.807 140.651 33.8553 140.651 33.9518C140.651 33.9639 140.627 34.0544 140.579 34.2233C140.482 34.5732 140.349 34.9171 140.181 35.255C140.012 35.5928 139.734 35.9307 139.348 36.2685C138.962 36.6064 138.546 36.7693 138.099 36.7572C137.532 36.7572 137.122 36.5943 136.868 36.2685C136.615 35.9427 136.488 35.6049 136.488 35.255C136.488 35.0257 136.705 34.3017 137.14 33.083C137.574 31.8643 137.797 30.9473 137.81 30.3319C137.81 29.62 137.544 29.264 137.013 29.264H136.923C135.885 29.264 135.01 29.8734 134.298 31.0921L134.172 31.3093L133.574 33.7346C133.176 35.3153 132.947 36.166 132.886 36.2866C132.73 36.6124 132.47 36.7753 132.108 36.7753C131.951 36.7753 131.825 36.7331 131.728 36.6486C131.632 36.5642 131.565 36.4918 131.529 36.4314C131.493 36.3711 131.475 36.3108 131.475 36.2504C131.475 36.1177 131.68 35.255 132.09 33.6622L132.742 31.0197C132.778 30.8387 132.796 30.6094 132.796 30.3319C132.796 29.62 132.531 29.264 132 29.264H131.909C130.871 29.264 129.997 29.8734 129.285 31.0921L129.158 31.3093L128.561 33.7346C128.163 35.3153 127.933 36.166 127.873 36.2866C127.716 36.6124 127.457 36.7753 127.095 36.7753C126.938 36.7753 126.811 36.7391 126.715 36.6667C126.618 36.5943 126.552 36.5219 126.515 36.4495C126.479 36.3771 126.467 36.3168 126.479 36.2685C126.479 36.1117 126.709 35.1222 127.167 33.3002C127.638 31.442 127.873 30.4707 127.873 30.3862C127.909 30.2052 127.927 30.0423 127.927 29.8975C127.927 29.4631 127.776 29.2459 127.475 29.2459C127.209 29.2459 126.986 29.4149 126.805 29.7527C126.624 30.0906 126.485 30.4586 126.389 30.8568C126.292 31.255 126.22 31.4722 126.172 31.5084C126.147 31.5325 126.051 31.5446 125.882 31.5446H125.629C125.556 31.4722 125.52 31.4179 125.52 31.3817Z" fill="white"/>
<path d="M143.386 31.6133C143.386 31.4086 143.467 31.2295 143.629 31.0759C143.791 30.9223 143.979 30.8413 144.192 30.8328C144.345 30.8328 144.473 30.884 144.576 30.9863C144.678 31.0887 144.734 31.2167 144.742 31.3702C144.742 31.5664 144.657 31.7456 144.486 31.9077C144.316 32.0697 144.128 32.1551 143.923 32.1636C143.795 32.1636 143.676 32.1209 143.565 32.0356C143.454 31.9503 143.394 31.8096 143.386 31.6133ZM141.3 35.6186C141.3 35.5504 141.338 35.4181 141.415 35.2219C141.492 35.0257 141.594 34.8082 141.722 34.5693C141.85 34.3304 142.038 34.1129 142.285 33.9167C142.533 33.7205 142.789 33.6266 143.053 33.6352C143.386 33.6352 143.663 33.7333 143.885 33.9295C144.107 34.1257 144.222 34.3901 144.23 34.7229C144.23 34.8679 144.171 35.1067 144.051 35.4394C143.932 35.7722 143.761 36.22 143.539 36.7831C143.318 37.3461 143.138 37.8281 143.002 38.229C142.959 38.4167 142.938 38.5532 142.938 38.6385C142.938 38.8518 143.01 38.9584 143.155 38.9584C143.232 38.9584 143.313 38.9456 143.399 38.9201C143.484 38.8945 143.582 38.8347 143.693 38.7409C143.804 38.6471 143.919 38.4978 144.038 38.293C144.158 38.0883 144.264 37.8366 144.358 37.538C144.384 37.4357 144.405 37.376 144.422 37.3589C144.439 37.3418 144.512 37.3333 144.64 37.3333C144.81 37.3333 144.896 37.376 144.896 37.4613C144.896 37.5295 144.857 37.6617 144.781 37.858C144.704 38.0542 144.597 38.2717 144.461 38.5106C144.324 38.7494 144.132 38.9627 143.885 39.1504C143.637 39.3381 143.373 39.4319 143.091 39.4319C142.818 39.4319 142.567 39.3423 142.336 39.1632C142.106 38.984 141.987 38.711 141.978 38.3442C141.978 38.1992 142 38.0627 142.042 37.9347C142.085 37.8068 142.268 37.3205 142.592 36.476C142.917 35.6143 143.104 35.0982 143.155 34.9276C143.207 34.757 143.236 34.5906 143.245 34.4285C143.245 34.2238 143.172 34.1214 143.027 34.1214H143.002C142.746 34.1214 142.511 34.2622 142.298 34.5437C142.085 34.8252 141.923 35.1835 141.812 35.6186C141.803 35.6271 141.795 35.6399 141.786 35.657C141.778 35.674 141.773 35.6868 141.773 35.6954C141.773 35.7039 141.765 35.7124 141.748 35.721C141.731 35.7295 141.718 35.7338 141.709 35.7338C141.701 35.7338 141.684 35.7338 141.658 35.7338C141.633 35.7338 141.599 35.7338 141.556 35.7338H141.377C141.326 35.6826 141.3 35.6442 141.3 35.6186Z" fill="white"/>
<path d="M148.052 32.0514C148.052 31.2188 148.112 30.4284 148.233 29.6803C148.354 28.9322 148.492 28.2867 148.649 27.7437C148.806 27.2007 149.029 26.6698 149.319 26.1509C149.609 25.6321 149.838 25.2278 150.007 24.9383C150.176 24.6487 150.429 24.3349 150.767 23.9971C151.105 23.6592 151.304 23.4541 151.364 23.3817C151.425 23.3093 151.575 23.1826 151.817 23.0016H152.052H152.124C152.293 23.0016 152.378 23.0559 152.378 23.1645C152.378 23.2007 152.275 23.3274 152.07 23.5446C151.865 23.7618 151.618 24.0815 151.328 24.5039C151.038 24.9262 150.743 25.445 150.441 26.0604C150.14 26.6758 149.886 27.5084 149.681 28.5582C149.476 29.6079 149.373 30.7723 149.373 32.0514C149.373 33.3304 149.476 34.4887 149.681 35.5265C149.886 36.5642 150.133 37.4028 150.423 38.0423C150.713 38.6818 151.008 39.2006 151.31 39.5988C151.612 39.997 151.865 40.3168 152.07 40.5581C152.275 40.7994 152.378 40.9261 152.378 40.9382C152.378 41.0468 152.287 41.1011 152.106 41.1011H152.052H151.817L151.31 40.6667C150.176 39.6411 149.349 38.362 148.83 36.8296C148.311 35.2972 148.052 33.7044 148.052 32.0514Z" fill="white"/>
<path d="M153.862 29.6079C153.777 29.5235 153.735 29.4631 153.735 29.4269C153.735 29.3787 153.753 29.2821 153.79 29.1373C153.826 28.9925 153.856 28.9081 153.88 28.8839C153.904 28.8236 153.958 28.7934 154.043 28.7934C154.127 28.7934 154.435 28.7874 154.966 28.7753H155.925L156.269 27.3274C156.305 27.1947 156.348 27.0197 156.396 26.8025C156.444 26.5853 156.486 26.4284 156.523 26.3319C156.559 26.2354 156.595 26.1147 156.631 25.9699C156.667 25.8251 156.716 25.7226 156.776 25.6622C156.836 25.6019 156.897 25.5295 156.957 25.445C157.017 25.3606 157.102 25.3063 157.21 25.2821C157.319 25.258 157.428 25.2459 157.536 25.2459C157.753 25.258 157.904 25.3244 157.989 25.445C158.073 25.5657 158.115 25.6803 158.115 25.7889C158.115 25.8734 158.061 26.157 157.952 26.6396C157.844 27.1223 157.723 27.5989 157.59 28.0695L157.409 28.7391C157.409 28.7633 157.711 28.7753 158.314 28.7753H159.238C159.322 28.8598 159.364 28.9262 159.364 28.9744C159.364 29.2399 159.286 29.4511 159.129 29.6079H157.192L156.541 32.2323C156.07 34.163 155.835 35.2007 155.835 35.3455C155.835 35.8522 155.998 36.1056 156.323 36.1056C156.746 36.1056 157.156 35.9005 157.554 35.4903C157.952 35.08 158.272 34.5732 158.514 33.9699C158.538 33.8975 158.568 33.8553 158.604 33.8432C158.64 33.8311 158.731 33.8191 158.876 33.807H158.948C159.129 33.807 159.219 33.8553 159.219 33.9518C159.219 33.988 159.201 34.0604 159.165 34.169C159.105 34.3621 158.996 34.5913 158.839 34.8568C158.682 35.1222 158.477 35.4058 158.224 35.7074C157.971 36.0091 157.663 36.2625 157.301 36.4676C156.939 36.6728 156.571 36.7753 156.197 36.7753C155.835 36.7753 155.491 36.6848 155.165 36.5038C154.839 36.3228 154.604 36.0091 154.459 35.5626C154.435 35.4661 154.423 35.3032 154.423 35.074V34.7482L155.057 32.2142C155.479 30.5129 155.696 29.6562 155.708 29.6441C155.708 29.62 155.4 29.6079 154.785 29.6079H153.862Z" fill="white"/>
<path d="M161.011 23.0197L161.084 23.0016C161.144 23.0016 161.204 23.0016 161.265 23.0016H161.482L161.989 23.436C163.123 24.4616 163.949 25.7407 164.468 27.2731C164.987 28.8055 165.247 30.3983 165.247 32.0514C165.247 32.8719 165.186 33.6622 165.066 34.4224C164.945 35.1826 164.806 35.8281 164.649 36.359C164.492 36.8899 164.269 37.4209 163.98 37.9518C163.69 38.4827 163.461 38.8869 163.292 39.1644C163.123 39.442 162.876 39.7497 162.55 40.0875C162.224 40.4254 162.031 40.6245 161.971 40.6848C161.91 40.7451 161.771 40.8598 161.554 41.0287C161.518 41.0649 161.494 41.089 161.482 41.1011H161.265C161.168 41.1011 161.102 41.1011 161.066 41.1011C161.029 41.1011 160.999 41.083 160.975 41.0468C160.951 41.0106 160.933 40.9563 160.921 40.8839C160.933 40.8718 160.999 40.7934 161.12 40.6486C162.99 38.7059 163.925 35.8402 163.925 32.0514C163.925 28.2625 162.99 25.3968 161.12 23.4541C160.999 23.3093 160.933 23.2309 160.921 23.2188C160.921 23.1223 160.951 23.0559 161.011 23.0197Z" fill="white"/>
<path d="M172.001 32.2866C172.001 32.2866 172.001 32.2082 172.001 32.0514C172.001 31.8945 172.086 31.7738 172.255 31.6894H177.666V28.9744L177.685 26.2595C177.805 26.1027 177.92 26.0242 178.028 26.0242C178.185 26.0242 178.306 26.1147 178.39 26.2957V31.6894H183.784C183.965 31.7859 184.056 31.9066 184.056 32.0514C184.056 32.1961 183.965 32.3168 183.784 32.4133H178.39V37.807C178.294 37.9759 178.185 38.0604 178.065 38.0604H178.028H177.992C177.847 38.0604 177.739 37.9759 177.666 37.807V32.4133H172.255C172.086 32.3289 172.001 32.2082 172.001 32.0514V32.2866Z" fill="white"/>
<path d="M191.57 24.2143C191.582 24.2143 192.017 24.1841 192.874 24.1238C193.73 24.0634 194.171 24.0272 194.195 24.0152C194.34 24.0152 194.412 24.0695 194.412 24.1781C194.412 24.3108 194.195 25.2218 193.76 26.9111C193.302 28.6969 193.073 29.6079 193.073 29.6441C193.073 29.6683 193.115 29.6381 193.199 29.5536C193.935 28.902 194.72 28.5763 195.552 28.5763C196.204 28.5763 196.729 28.7391 197.127 29.0649C197.525 29.3907 197.73 29.8673 197.742 30.4948C197.742 31.1102 197.513 32.0634 197.055 33.3545C196.596 34.6456 196.367 35.4179 196.367 35.6712C196.379 35.8402 196.409 35.9548 196.457 36.0151C196.506 36.0755 196.596 36.1056 196.729 36.1056C197.067 36.1056 197.38 35.9246 197.67 35.5626C197.96 35.2007 198.195 34.7059 198.376 34.0785C198.412 33.9458 198.448 33.8673 198.484 33.8432C198.521 33.8191 198.617 33.807 198.774 33.807C199.015 33.807 199.136 33.8553 199.136 33.9518C199.136 33.9639 199.112 34.0544 199.064 34.2233C198.871 34.9352 198.563 35.5204 198.141 35.9789C197.73 36.4978 197.242 36.7572 196.674 36.7572H196.584C196.017 36.7572 195.607 36.5943 195.353 36.2685C195.1 35.9427 194.973 35.5988 194.973 35.2369C194.973 35.0438 195.19 34.3319 195.625 33.1011C196.059 31.8704 196.282 30.9473 196.294 30.3319C196.294 29.62 196.029 29.264 195.498 29.264H195.408C194.406 29.264 193.537 29.8553 192.801 31.0378L192.674 31.2731L192.059 33.7165C191.673 35.2851 191.45 36.1418 191.389 36.2866C191.233 36.6124 190.967 36.7753 190.593 36.7753C190.424 36.7753 190.279 36.721 190.159 36.6124C190.038 36.5038 189.972 36.3952 189.96 36.2866C189.96 36.1177 190.4 34.2836 191.281 30.7844L192.62 25.4269C192.62 25.2701 192.578 25.1735 192.493 25.1374C192.409 25.1012 192.174 25.071 191.788 25.0469H191.408C191.335 24.9745 191.299 24.9262 191.299 24.9021C191.299 24.8779 191.311 24.7633 191.335 24.5582C191.395 24.3289 191.474 24.2143 191.57 24.2143Z" fill="white"/>
<path d="M199.951 37.7398C199.951 36.8099 200.318 35.9739 201.052 35.2317C201.785 34.4895 202.579 34.1184 203.432 34.1184C203.909 34.1184 204.285 34.2208 204.558 34.4255C204.831 34.6303 204.972 34.899 204.98 35.2317C204.98 35.4791 204.899 35.6881 204.737 35.8587C204.575 36.0293 204.37 36.1189 204.123 36.1274C203.961 36.1274 203.833 36.0848 203.739 35.9995C203.645 35.9142 203.598 35.7862 203.598 35.6156C203.598 35.445 203.645 35.2999 203.739 35.1805C203.833 35.0611 203.927 34.9715 204.02 34.9118C204.114 34.8521 204.174 34.8265 204.2 34.835H204.212C204.212 34.818 204.187 34.7924 204.136 34.7582C204.084 34.7241 203.995 34.69 203.867 34.6559C203.739 34.6217 203.594 34.6047 203.432 34.6047C203.176 34.6047 202.933 34.6644 202.702 34.7838C202.523 34.8606 202.34 34.9928 202.152 35.1805C201.777 35.5559 201.504 36.0848 201.333 36.7673C201.163 37.4497 201.073 37.9445 201.064 38.2516C201.064 38.6441 201.175 38.9384 201.397 39.1346C201.585 39.3393 201.832 39.4417 202.139 39.4417H202.191C203.146 39.4417 203.935 39.0791 204.558 38.354C204.635 38.2687 204.686 38.226 204.711 38.226C204.746 38.226 204.801 38.2644 204.878 38.3412C204.955 38.418 204.997 38.4777 205.006 38.5204C205.014 38.563 204.976 38.627 204.891 38.7123C204.805 38.7976 204.682 38.917 204.519 39.0706C204.357 39.2242 204.165 39.3521 203.944 39.4545C203.722 39.5569 203.449 39.6635 203.125 39.7744C202.8 39.8853 202.459 39.9322 202.101 39.9152C201.461 39.9152 200.945 39.7104 200.553 39.3009C200.16 38.8915 199.96 38.3711 199.951 37.7398Z" fill="white"/>
<path d="M206.26 36.5753C206.26 35.9867 206.302 35.4279 206.388 34.899C206.473 34.3701 206.571 33.9137 206.682 33.5298C206.793 33.1459 206.951 32.7705 207.156 32.4037C207.36 32.0369 207.522 31.7511 207.642 31.5464C207.761 31.3416 207.94 31.1198 208.179 30.881C208.418 30.6421 208.559 30.4971 208.601 30.4459C208.644 30.3947 208.751 30.3051 208.921 30.1772H209.088H209.139C209.258 30.1772 209.318 30.2155 209.318 30.2923C209.318 30.3179 209.246 30.4075 209.101 30.561C208.956 30.7146 208.781 30.9407 208.576 31.2392C208.371 31.5378 208.162 31.9047 207.949 32.3397C207.736 32.7748 207.556 33.3634 207.411 34.1056C207.266 34.8478 207.194 35.671 207.194 36.5753C207.194 37.4796 207.266 38.2986 207.411 39.0322C207.556 39.7659 207.731 40.3588 207.936 40.8109C208.141 41.263 208.35 41.6299 208.563 41.9114C208.776 42.1929 208.956 42.419 209.101 42.5896C209.246 42.7602 209.318 42.8498 209.318 42.8583C209.318 42.9351 209.254 42.9735 209.126 42.9735H209.088H208.921L208.563 42.6664C207.761 41.9412 207.177 41.037 206.81 39.9535C206.443 38.8701 206.26 37.744 206.26 36.5753Z" fill="white"/>
<path d="M210.7 36.0763C210.76 35.718 210.99 35.3042 211.391 34.835C211.792 34.3658 212.287 34.127 212.875 34.1184C213.174 34.1184 213.447 34.1952 213.694 34.3488C213.942 34.5023 214.125 34.6943 214.245 34.9246C214.603 34.3871 215.034 34.1184 215.537 34.1184C215.853 34.1184 216.126 34.2123 216.356 34.3999C216.586 34.5876 216.706 34.8393 216.714 35.1549C216.714 35.4023 216.655 35.6028 216.535 35.7563C216.416 35.9099 216.301 36.0037 216.19 36.0379C216.079 36.072 215.981 36.0891 215.895 36.0891C215.733 36.0891 215.601 36.0421 215.499 35.9483C215.396 35.8545 215.345 35.7308 215.345 35.5772C215.345 35.1848 215.558 34.9161 215.985 34.771C215.891 34.6601 215.721 34.6047 215.473 34.6047C215.362 34.6047 215.281 34.6132 215.23 34.6303C214.906 34.7668 214.667 35.0483 214.513 35.4748C214.002 37.3602 213.746 38.4606 213.746 38.7763C213.746 39.0151 213.814 39.1858 213.95 39.2881C214.087 39.3905 214.236 39.4417 214.398 39.4417C214.714 39.4417 215.025 39.3009 215.332 39.0194C215.639 38.7379 215.848 38.3924 215.959 37.9829C215.985 37.8976 216.011 37.8507 216.036 37.8422C216.062 37.8336 216.13 37.8251 216.241 37.8166H216.292C216.42 37.8166 216.484 37.8507 216.484 37.9189C216.484 37.9275 216.475 37.9744 216.458 38.0597C216.322 38.5459 216.057 38.9768 215.665 39.3521C215.273 39.7275 214.816 39.9152 214.296 39.9152C213.699 39.9152 213.247 39.6464 212.939 39.109C212.59 39.6379 212.189 39.9024 211.737 39.9024H211.66C211.242 39.9024 210.943 39.7915 210.764 39.5697C210.585 39.3479 210.491 39.1133 210.483 38.8659C210.483 38.5929 210.564 38.3711 210.726 38.2004C210.888 38.0298 211.08 37.9445 211.302 37.9445C211.668 37.9445 211.852 38.1237 211.852 38.482C211.852 38.6526 211.801 38.8019 211.698 38.9298C211.596 39.0578 211.498 39.1431 211.404 39.1858C211.31 39.2284 211.255 39.2497 211.238 39.2497L211.199 39.2625C211.199 39.2711 211.225 39.2881 211.276 39.3137C211.327 39.3393 211.395 39.3692 211.481 39.4033C211.566 39.4374 211.647 39.4502 211.724 39.4417C212.031 39.4417 212.295 39.2497 212.517 38.8659C212.594 38.7294 212.692 38.4393 212.811 37.9957C212.931 37.5521 213.05 37.0914 213.17 36.6137C213.289 36.136 213.357 35.8545 213.375 35.7691C213.417 35.5388 213.439 35.3725 213.439 35.2701C213.439 35.0312 213.375 34.8606 213.247 34.7582C213.119 34.6559 212.974 34.6047 212.811 34.6047C212.47 34.6047 212.15 34.7412 211.852 35.0142C211.553 35.2872 211.344 35.6369 211.225 36.0635C211.208 36.1402 211.186 36.1829 211.161 36.1914C211.135 36.2 211.067 36.2085 210.956 36.217H210.777C210.726 36.1658 210.7 36.1189 210.7 36.0763Z" fill="white"/>
<path d="M218.122 30.1899L218.173 30.1772C218.216 30.1772 218.258 30.1772 218.301 30.1772H218.455L218.813 30.4843C219.615 31.2094 220.199 32.1137 220.566 33.1971C220.933 34.2805 221.116 35.4066 221.116 36.5753C221.116 37.1554 221.074 37.7142 220.988 38.2516C220.903 38.7891 220.805 39.2455 220.694 39.6208C220.583 39.9962 220.425 40.3716 220.221 40.7469C220.016 41.1223 219.854 41.4081 219.734 41.6043C219.615 41.8005 219.44 42.018 219.21 42.2569C218.979 42.4958 218.843 42.6365 218.8 42.6792C218.757 42.7218 218.659 42.8029 218.506 42.9223C218.48 42.9479 218.463 42.965 218.455 42.9735H218.301C218.233 42.9735 218.186 42.9735 218.16 42.9735C218.135 42.9735 218.113 42.9607 218.096 42.9351C218.079 42.9095 218.066 42.8711 218.058 42.8199C218.066 42.8114 218.113 42.7559 218.199 42.6536C219.521 41.2801 220.182 39.254 220.182 36.5753C220.182 33.8966 219.521 31.8705 218.199 30.4971C218.113 30.3947 218.066 30.3392 218.058 30.3307C218.058 30.2625 218.079 30.2155 218.122 30.1899Z" fill="white"/>
<path d="M223.33 39.3265C223.33 39.3265 223.33 39.2199 223.33 39.0066C223.33 38.7933 223.398 38.6099 223.535 38.4564C223.671 38.3028 223.855 38.226 224.085 38.226C224.324 38.226 224.537 38.3327 224.725 38.546C224.913 38.7592 225.011 39.1346 225.019 39.672C225.019 39.9706 224.981 40.2607 224.904 40.5422C224.827 40.8237 224.738 41.0668 224.635 41.2716C224.533 41.4763 224.422 41.6512 224.303 41.7962C224.183 41.9412 224.081 42.0564 223.995 42.1417C223.91 42.227 223.855 42.2654 223.829 42.2569C223.795 42.2569 223.74 42.2185 223.663 42.1417C223.586 42.0649 223.548 42.0095 223.548 41.9754C223.548 41.9412 223.595 41.873 223.688 41.7706C223.782 41.6683 223.889 41.5403 224.008 41.3867C224.128 41.2332 224.239 41.0199 224.341 40.7469C224.443 40.4739 224.512 40.1626 224.546 39.8128V39.6592L224.533 39.672C224.516 39.6806 224.495 39.6891 224.469 39.6976C224.443 39.7062 224.418 39.7189 224.392 39.736C224.367 39.7531 224.328 39.7616 224.277 39.7616C224.226 39.7616 224.175 39.7659 224.123 39.7744C223.893 39.7744 223.705 39.7019 223.56 39.5569L223.33 39.3265Z" fill="white"/>
<path d="M228.244 32.0966C228.244 31.8919 228.325 31.7127 228.487 31.5592C228.649 31.4056 228.837 31.3246 229.05 31.316C229.204 31.316 229.332 31.3672 229.434 31.4696C229.536 31.5719 229.592 31.6999 229.6 31.8535C229.6 32.0497 229.515 32.2288 229.344 32.3909C229.174 32.553 228.986 32.6383 228.781 32.6468C228.653 32.6468 228.534 32.6042 228.423 32.5189C228.312 32.4336 228.252 32.2928 228.244 32.0966ZM226.158 36.1019C226.158 36.0336 226.196 35.9014 226.273 35.7052C226.35 35.509 226.452 35.2914 226.58 35.0526C226.708 34.8137 226.896 34.5961 227.143 34.3999C227.391 34.2037 227.647 34.1099 227.911 34.1184C228.244 34.1184 228.521 34.2165 228.743 34.4127C228.965 34.6089 229.08 34.8734 229.088 35.2061C229.088 35.3511 229.029 35.59 228.909 35.9227C228.79 36.2554 228.619 36.7033 228.397 37.2663C228.176 37.8294 227.996 38.3114 227.86 38.7123C227.817 38.9 227.796 39.0365 227.796 39.1218C227.796 39.3351 227.868 39.4417 228.014 39.4417C228.09 39.4417 228.171 39.4289 228.257 39.4033C228.342 39.3777 228.44 39.318 228.551 39.2242C228.662 39.1303 228.777 38.981 228.896 38.7763C229.016 38.5715 229.123 38.3199 229.216 38.0213C229.242 37.9189 229.263 37.8592 229.28 37.8422C229.297 37.8251 229.37 37.8166 229.498 37.8166C229.669 37.8166 229.754 37.8592 229.754 37.9445C229.754 38.0128 229.715 38.145 229.639 38.3412C229.562 38.5374 229.455 38.755 229.319 38.9938C229.182 39.2327 228.99 39.446 228.743 39.6336C228.496 39.8213 228.231 39.9152 227.95 39.9152C227.677 39.9152 227.425 39.8256 227.195 39.6464C226.964 39.4673 226.845 39.1943 226.836 38.8275C226.836 38.6824 226.858 38.5459 226.9 38.418C226.943 38.29 227.126 37.8038 227.45 36.9592C227.775 36.0976 227.962 35.5815 228.014 35.4108C228.065 35.2402 228.095 35.0739 228.103 34.9118C228.103 34.7071 228.031 34.6047 227.886 34.6047H227.86C227.604 34.6047 227.369 34.7454 227.156 35.027C226.943 35.3085 226.781 35.6668 226.67 36.1019C226.661 36.1104 226.653 36.1232 226.644 36.1402C226.636 36.1573 226.632 36.1701 226.632 36.1786C226.632 36.1872 226.623 36.1957 226.606 36.2042C226.589 36.2128 226.576 36.217 226.568 36.217C226.559 36.217 226.542 36.217 226.516 36.217C226.491 36.217 226.457 36.217 226.414 36.217H226.235C226.184 36.1658 226.158 36.1274 226.158 36.1019Z" fill="white"/>
<path d="M232.915 32.0514C232.915 31.2188 232.975 30.4284 233.096 29.6803C233.217 28.9322 233.355 28.2867 233.512 27.7437C233.669 27.2007 233.892 26.6698 234.182 26.1509C234.472 25.6321 234.701 25.2278 234.87 24.9383C235.039 24.6487 235.292 24.3349 235.63 23.9971C235.968 23.6592 236.167 23.4541 236.227 23.3817C236.288 23.3093 236.438 23.1826 236.68 23.0016H236.915H236.987C237.156 23.0016 237.241 23.0559 237.241 23.1645C237.241 23.2007 237.138 23.3274 236.933 23.5446C236.728 23.7618 236.481 24.0815 236.191 24.5039C235.901 24.9262 235.606 25.445 235.304 26.0604C235.003 26.6758 234.749 27.5084 234.544 28.5582C234.339 29.6079 234.236 30.7723 234.236 32.0514C234.236 33.3304 234.339 34.4887 234.544 35.5265C234.749 36.5642 234.996 37.4028 235.286 38.0423C235.576 38.6818 235.871 39.2006 236.173 39.5988C236.475 39.997 236.728 40.3168 236.933 40.5581C237.138 40.7994 237.241 40.9261 237.241 40.9382C237.241 41.0468 237.15 41.1011 236.969 41.1011H236.915H236.68L236.173 40.6667C235.039 39.6411 234.212 38.362 233.693 36.8296C233.174 35.2972 232.915 33.7044 232.915 32.0514Z" fill="white"/>
<path d="M239.196 31.3455C239.28 30.8387 239.606 30.2535 240.173 29.5898C240.74 28.9262 241.44 28.5883 242.272 28.5763C242.695 28.5763 243.081 28.6848 243.431 28.902C243.781 29.1192 244.04 29.3907 244.209 29.7165C244.716 28.9563 245.325 28.5763 246.037 28.5763C246.484 28.5763 246.87 28.709 247.196 28.9744C247.521 29.2399 247.69 29.5959 247.702 30.0423C247.702 30.3922 247.618 30.6758 247.449 30.893C247.28 31.1102 247.117 31.2429 246.96 31.2912C246.803 31.3394 246.665 31.3636 246.544 31.3636C246.315 31.3636 246.128 31.2972 245.983 31.1645C245.838 31.0317 245.766 30.8568 245.766 30.6396C245.766 30.0845 246.067 29.7045 246.671 29.4993C246.538 29.3425 246.297 29.264 245.947 29.264C245.79 29.264 245.675 29.2761 245.603 29.3002C245.144 29.4933 244.806 29.8915 244.589 30.4948C243.865 33.1615 243.503 34.718 243.503 35.1645C243.503 35.5023 243.6 35.7436 243.793 35.8884C243.986 36.0332 244.197 36.1056 244.426 36.1056C244.873 36.1056 245.313 35.9065 245.748 35.5084C246.182 35.1102 246.478 34.6215 246.634 34.0423C246.671 33.9216 246.707 33.8553 246.743 33.8432C246.779 33.8311 246.876 33.8191 247.033 33.807H247.105C247.286 33.807 247.377 33.8553 247.377 33.9518C247.377 33.9639 247.364 34.0302 247.34 34.1509C247.147 34.8387 246.773 35.448 246.218 35.9789C245.663 36.5099 245.018 36.7753 244.282 36.7753C243.437 36.7753 242.797 36.3952 242.363 35.635C241.868 36.3832 241.301 36.7572 240.662 36.7572H240.553C239.962 36.7572 239.539 36.6004 239.286 36.2866C239.033 35.9729 238.9 35.6411 238.888 35.2912C238.888 34.905 239.003 34.5913 239.232 34.35C239.461 34.1087 239.733 33.988 240.046 33.988C240.565 33.988 240.825 34.2414 240.825 34.7482C240.825 34.9895 240.752 35.2007 240.607 35.3817C240.463 35.5626 240.324 35.6833 240.191 35.7436C240.058 35.804 239.98 35.8341 239.956 35.8341L239.901 35.8522C239.901 35.8643 239.938 35.8884 240.01 35.9246C240.082 35.9608 240.179 36.0031 240.3 36.0513C240.42 36.0996 240.535 36.1177 240.644 36.1056C241.078 36.1056 241.452 35.8341 241.766 35.2912C241.874 35.0981 242.013 34.6878 242.182 34.0604C242.351 33.4329 242.52 32.7814 242.689 32.1056C242.858 31.4299 242.954 31.0317 242.978 30.9111C243.039 30.5853 243.069 30.35 243.069 30.2052C243.069 29.8673 242.978 29.626 242.797 29.4812C242.616 29.3364 242.411 29.264 242.182 29.264C241.699 29.264 241.247 29.4571 240.825 29.8432C240.402 30.2293 240.107 30.7241 239.938 31.3274C239.914 31.436 239.883 31.4963 239.847 31.5084C239.811 31.5204 239.714 31.5325 239.558 31.5446H239.304C239.232 31.4722 239.196 31.4058 239.196 31.3455Z" fill="white"/>
<path d="M250.309 32.0514C250.309 31.2188 250.369 30.4284 250.49 29.6803C250.61 28.9322 250.749 28.2867 250.906 27.7437C251.063 27.2007 251.286 26.6698 251.576 26.1509C251.865 25.6321 252.094 25.2278 252.263 24.9383C252.432 24.6487 252.686 24.3349 253.024 23.9971C253.361 23.6592 253.561 23.4541 253.621 23.3817C253.681 23.3093 253.832 23.1826 254.073 23.0016H254.309H254.381C254.55 23.0016 254.634 23.0559 254.634 23.1645C254.634 23.2007 254.532 23.3274 254.327 23.5446C254.122 23.7618 253.874 24.0815 253.585 24.5039C253.295 24.9262 252.999 25.445 252.698 26.0604C252.396 26.6758 252.143 27.5084 251.938 28.5582C251.732 29.6079 251.63 30.7723 251.63 32.0514C251.63 33.3304 251.732 34.4887 251.938 35.5265C252.143 36.5642 252.39 37.4028 252.68 38.0423C252.969 38.6818 253.265 39.2006 253.567 39.5988C253.868 39.997 254.122 40.3168 254.327 40.5581C254.532 40.7994 254.634 40.9261 254.634 40.9382C254.634 41.0468 254.544 41.1011 254.363 41.1011H254.309H254.073L253.567 40.6667C252.432 39.6411 251.606 38.362 251.087 36.8296C250.568 35.2972 250.309 33.7044 250.309 32.0514Z" fill="white"/>
<path d="M256.119 29.6079C256.034 29.5235 255.992 29.4631 255.992 29.4269C255.992 29.3787 256.01 29.2821 256.046 29.1373C256.082 28.9925 256.113 28.9081 256.137 28.8839C256.161 28.8236 256.215 28.7934 256.3 28.7934C256.384 28.7934 256.692 28.7874 257.223 28.7753H258.182L258.526 27.3274C258.562 27.1947 258.604 27.0197 258.653 26.8025C258.701 26.5853 258.743 26.4284 258.779 26.3319C258.815 26.2354 258.852 26.1147 258.888 25.9699C258.924 25.8251 258.972 25.7226 259.033 25.6622C259.093 25.6019 259.153 25.5295 259.214 25.445C259.274 25.3606 259.358 25.3063 259.467 25.2821C259.576 25.258 259.684 25.2459 259.793 25.2459C260.01 25.258 260.161 25.3244 260.245 25.445C260.33 25.5657 260.372 25.6803 260.372 25.7889C260.372 25.8734 260.318 26.157 260.209 26.6396C260.1 27.1223 259.98 27.5989 259.847 28.0695L259.666 28.7391C259.666 28.7633 259.968 28.7753 260.571 28.7753H261.494C261.579 28.8598 261.621 28.9262 261.621 28.9744C261.621 29.2399 261.542 29.4511 261.386 29.6079H259.449L258.797 32.2323C258.327 34.163 258.091 35.2007 258.091 35.3455C258.091 35.8522 258.254 36.1056 258.58 36.1056C259.002 36.1056 259.413 35.9005 259.811 35.4903C260.209 35.08 260.529 34.5732 260.77 33.9699C260.794 33.8975 260.824 33.8553 260.861 33.8432C260.897 33.8311 260.987 33.8191 261.132 33.807H261.205C261.386 33.807 261.476 33.8553 261.476 33.9518C261.476 33.988 261.458 34.0604 261.422 34.169C261.361 34.3621 261.253 34.5913 261.096 34.8568C260.939 35.1222 260.734 35.4058 260.481 35.7074C260.227 36.0091 259.919 36.2625 259.557 36.4676C259.195 36.6728 258.827 36.7753 258.453 36.7753C258.091 36.7753 257.748 36.6848 257.422 36.5038C257.096 36.3228 256.861 36.0091 256.716 35.5626C256.692 35.4661 256.68 35.3032 256.68 35.074V34.7482L257.313 32.2142C257.735 30.5129 257.953 29.6562 257.965 29.6441C257.965 29.62 257.657 29.6079 257.042 29.6079H256.119Z" fill="white"/>
<path d="M263.268 23.0197L263.34 23.0016C263.401 23.0016 263.461 23.0016 263.521 23.0016H263.738L264.245 23.436C265.379 24.4616 266.206 25.7407 266.725 27.2731C267.244 28.8055 267.503 30.3983 267.503 32.0514C267.503 32.8719 267.443 33.6622 267.322 34.4224C267.201 35.1826 267.063 35.8281 266.906 36.359C266.749 36.8899 266.526 37.4209 266.236 37.9518C265.947 38.4827 265.717 38.8869 265.548 39.1644C265.379 39.442 265.132 39.7497 264.806 40.0875C264.481 40.4254 264.287 40.6245 264.227 40.6848C264.167 40.7451 264.028 40.8598 263.811 41.0287C263.775 41.0649 263.751 41.089 263.738 41.1011H263.521C263.425 41.1011 263.358 41.1011 263.322 41.1011C263.286 41.1011 263.256 41.083 263.232 41.0468C263.208 41.0106 263.189 40.9563 263.177 40.8839C263.189 40.8718 263.256 40.7934 263.376 40.6486C265.247 38.7059 266.182 35.8402 266.182 32.0514C266.182 28.2625 265.247 25.3968 263.376 23.4541C263.256 23.3093 263.189 23.2309 263.177 23.2188C263.177 23.1223 263.208 23.0559 263.268 23.0197Z" fill="white"/>
<path d="M274.766 32.2866C274.766 32.2866 274.766 32.2082 274.766 32.0514C274.766 31.8945 274.851 31.7738 275.02 31.6894H285.536C285.717 31.7859 285.807 31.9066 285.807 32.0514C285.807 32.1961 285.717 32.3168 285.536 32.4133H275.02C274.851 32.3289 274.766 32.2082 274.766 32.0514V32.2866Z" fill="white"/>
<path d="M291.729 31.3817C291.741 31.3093 291.759 31.2127 291.784 31.0921C291.808 30.9714 291.88 30.7422 292.001 30.4043C292.121 30.0664 292.242 29.7829 292.363 29.5536C292.483 29.3244 292.677 29.1011 292.942 28.8839C293.207 28.6668 293.473 28.5642 293.738 28.5763C294.004 28.5883 294.263 28.6306 294.517 28.703C294.77 28.7753 294.951 28.8839 295.06 29.0287C295.168 29.1735 295.265 29.3063 295.349 29.4269C295.434 29.5476 295.482 29.6622 295.494 29.7708L295.53 29.8975C295.53 29.9216 295.536 29.9337 295.548 29.9337L295.747 29.7346C296.471 28.9624 297.322 28.5763 298.299 28.5763C298.505 28.5763 298.692 28.5883 298.861 28.6125C299.029 28.6366 299.186 28.6788 299.331 28.7392C299.476 28.7995 299.591 28.8598 299.675 28.9201C299.759 28.9805 299.85 29.0529 299.946 29.1373C300.043 29.2218 300.103 29.3002 300.127 29.3726C300.152 29.445 300.2 29.5235 300.272 29.6079C300.345 29.6924 300.369 29.7648 300.345 29.8251C300.321 29.8855 300.339 29.9397 300.399 29.988C300.459 30.0363 300.471 30.0785 300.435 30.1147L300.58 29.9337C301.34 29.0287 302.239 28.5763 303.277 28.5763C303.928 28.5763 304.453 28.7392 304.851 29.0649C305.25 29.3907 305.455 29.8674 305.467 30.4948C305.467 31.1102 305.238 32.0634 304.779 33.3545C304.321 34.6456 304.091 35.4179 304.091 35.6713C304.103 35.8402 304.133 35.9548 304.182 36.0151C304.23 36.0755 304.321 36.1056 304.453 36.1056C304.791 36.1056 305.105 35.9246 305.394 35.5627C305.684 35.2007 305.919 34.7059 306.1 34.0785C306.136 33.9458 306.173 33.8673 306.209 33.8432C306.245 33.8191 306.342 33.807 306.498 33.807C306.74 33.807 306.86 33.8553 306.86 33.9518C306.86 33.9639 306.836 34.0544 306.788 34.2233C306.692 34.5732 306.559 34.9171 306.39 35.255C306.221 35.5928 305.943 35.9307 305.557 36.2685C305.171 36.6064 304.755 36.7693 304.308 36.7572C303.741 36.7572 303.331 36.5943 303.078 36.2685C302.824 35.9427 302.698 35.6049 302.698 35.255C302.698 35.0257 302.915 34.3017 303.349 33.083C303.784 31.8643 304.007 30.9473 304.019 30.3319C304.019 29.62 303.753 29.264 303.222 29.264H303.132C302.094 29.264 301.219 29.8734 300.508 31.0921L300.381 31.3093L299.784 33.7346C299.385 35.3153 299.156 36.166 299.096 36.2866C298.939 36.6124 298.68 36.7753 298.318 36.7753C298.161 36.7753 298.034 36.7331 297.937 36.6486C297.841 36.5642 297.775 36.4918 297.738 36.4314C297.702 36.3711 297.684 36.3108 297.684 36.2504C297.684 36.1177 297.889 35.255 298.299 33.6622L298.951 31.0197C298.987 30.8387 299.005 30.6094 299.005 30.3319C299.005 29.62 298.74 29.264 298.209 29.264H298.118C297.081 29.264 296.206 29.8734 295.494 31.0921L295.367 31.3093L294.77 33.7346C294.372 35.3153 294.143 36.166 294.082 36.2866C293.925 36.6124 293.666 36.7753 293.304 36.7753C293.147 36.7753 293.02 36.7391 292.924 36.6667C292.827 36.5943 292.761 36.5219 292.725 36.4495C292.689 36.3771 292.677 36.3168 292.689 36.2685C292.689 36.1117 292.918 35.1222 293.376 33.3002C293.847 31.442 294.082 30.4707 294.082 30.3862C294.118 30.2052 294.137 30.0423 294.137 29.8975C294.137 29.4631 293.986 29.2459 293.684 29.2459C293.419 29.2459 293.195 29.4149 293.014 29.7527C292.833 30.0906 292.695 30.4586 292.598 30.8568C292.502 31.255 292.429 31.4722 292.381 31.5084C292.357 31.5325 292.26 31.5446 292.091 31.5446H291.838C291.766 31.4722 291.729 31.4179 291.729 31.3817Z" fill="white"/>
<path d="M309.595 31.6133C309.595 31.4086 309.676 31.2295 309.838 31.0759C310 30.9223 310.188 30.8413 310.401 30.8328C310.555 30.8328 310.683 30.884 310.785 30.9863C310.888 31.0887 310.943 31.2167 310.952 31.3702C310.952 31.5664 310.866 31.7456 310.696 31.9077C310.525 32.0697 310.337 32.1551 310.133 32.1636C310.005 32.1636 309.885 32.1209 309.774 32.0356C309.663 31.9503 309.604 31.8096 309.595 31.6133ZM307.509 35.6186C307.509 35.5504 307.548 35.4181 307.624 35.2219C307.701 35.0257 307.804 34.8082 307.932 34.5693C308.06 34.3304 308.247 34.1129 308.495 33.9167C308.742 33.7205 308.998 33.6266 309.262 33.6352C309.595 33.6352 309.872 33.7333 310.094 33.9295C310.316 34.1257 310.431 34.3901 310.44 34.7229C310.44 34.8679 310.38 35.1067 310.261 35.4394C310.141 35.7722 309.97 36.22 309.749 36.7831C309.527 37.3461 309.348 37.8281 309.211 38.229C309.169 38.4167 309.147 38.5532 309.147 38.6385C309.147 38.8518 309.22 38.9584 309.365 38.9584C309.442 38.9584 309.523 38.9456 309.608 38.9201C309.693 38.8945 309.791 38.8347 309.902 38.7409C310.013 38.6471 310.128 38.4978 310.248 38.293C310.367 38.0883 310.474 37.8366 310.568 37.538C310.593 37.4357 310.615 37.376 310.632 37.3589C310.649 37.3418 310.721 37.3333 310.849 37.3333C311.02 37.3333 311.105 37.376 311.105 37.4613C311.105 37.5295 311.067 37.6617 310.99 37.858C310.913 38.0542 310.806 38.2717 310.67 38.5106C310.533 38.7494 310.342 38.9627 310.094 39.1504C309.847 39.3381 309.582 39.4319 309.301 39.4319C309.028 39.4319 308.776 39.3423 308.546 39.1632C308.315 38.984 308.196 38.711 308.187 38.3442C308.187 38.1992 308.209 38.0627 308.251 37.9347C308.294 37.8068 308.478 37.3205 308.802 36.476C309.126 35.6143 309.314 35.0982 309.365 34.9276C309.416 34.757 309.446 34.5906 309.454 34.4285C309.454 34.2238 309.382 34.1214 309.237 34.1214H309.211C308.955 34.1214 308.721 34.2622 308.507 34.5437C308.294 34.8252 308.132 35.1835 308.021 35.6186C308.013 35.6271 308.004 35.6399 307.996 35.657C307.987 35.674 307.983 35.6868 307.983 35.6954C307.983 35.7039 307.974 35.7124 307.957 35.721C307.94 35.7295 307.927 35.7338 307.919 35.7338C307.91 35.7338 307.893 35.7338 307.868 35.7338C307.842 35.7338 307.808 35.7338 307.765 35.7338H307.586C307.535 35.6826 307.509 35.6442 307.509 35.6186Z" fill="white"/>
<path d="M314.261 32.0514C314.261 31.2188 314.322 30.4284 314.442 29.6803C314.563 28.9322 314.702 28.2867 314.859 27.7437C315.015 27.2007 315.239 26.6698 315.528 26.1509C315.818 25.6321 316.047 25.2278 316.216 24.9383C316.385 24.6487 316.638 24.3349 316.976 23.9971C317.314 23.6592 317.513 23.4541 317.574 23.3817C317.634 23.3093 317.785 23.1826 318.026 23.0016H318.261H318.334C318.503 23.0016 318.587 23.0559 318.587 23.1645C318.587 23.2007 318.485 23.3274 318.279 23.5446C318.074 23.7618 317.827 24.0815 317.537 24.5039C317.248 24.9262 316.952 25.445 316.65 26.0604C316.349 26.6758 316.095 27.5084 315.89 28.5582C315.685 29.6079 315.583 30.7723 315.583 32.0514C315.583 33.3304 315.685 34.4887 315.89 35.5265C316.095 36.5642 316.343 37.4028 316.632 38.0423C316.922 38.6818 317.218 39.2006 317.519 39.5988C317.821 39.997 318.074 40.3168 318.279 40.5581C318.485 40.7994 318.587 40.9261 318.587 40.9382C318.587 41.0468 318.497 41.1011 318.316 41.1011H318.261H318.026L317.519 40.6667C316.385 39.6411 315.558 38.362 315.04 36.8296C314.521 35.2972 314.261 33.7044 314.261 32.0514Z" fill="white"/>
<path d="M320.071 29.6079C319.987 29.5235 319.945 29.4631 319.945 29.4269C319.945 29.3787 319.963 29.2821 319.999 29.1373C320.035 28.9925 320.065 28.9081 320.089 28.8839C320.114 28.8236 320.168 28.7934 320.252 28.7934C320.337 28.7934 320.644 28.7874 321.175 28.7753H322.135L322.479 27.3274C322.515 27.1947 322.557 27.0197 322.605 26.8025C322.653 26.5853 322.696 26.4284 322.732 26.3319C322.768 26.2354 322.804 26.1147 322.84 25.9699C322.877 25.8251 322.925 25.7226 322.985 25.6622C323.046 25.6019 323.106 25.5295 323.166 25.445C323.227 25.3606 323.311 25.3063 323.42 25.2821C323.528 25.258 323.637 25.2459 323.745 25.2459C323.963 25.258 324.113 25.3244 324.198 25.445C324.282 25.5657 324.325 25.6803 324.325 25.7889C324.325 25.8734 324.27 26.157 324.162 26.6396C324.053 27.1223 323.932 27.5989 323.8 28.0695L323.619 28.7391C323.619 28.7633 323.92 28.7753 324.524 28.7753H325.447C325.531 28.8598 325.574 28.9262 325.574 28.9744C325.574 29.2399 325.495 29.4511 325.338 29.6079H323.402L322.75 32.2323C322.279 34.163 322.044 35.2007 322.044 35.3455C322.044 35.8522 322.207 36.1056 322.533 36.1056C322.955 36.1056 323.365 35.9005 323.764 35.4903C324.162 35.08 324.482 34.5732 324.723 33.9699C324.747 33.8975 324.777 33.8553 324.813 33.8432C324.85 33.8311 324.94 33.8191 325.085 33.807H325.157C325.338 33.807 325.429 33.8553 325.429 33.9518C325.429 33.988 325.411 34.0604 325.374 34.169C325.314 34.3621 325.205 34.5913 325.049 34.8568C324.892 35.1222 324.687 35.4058 324.433 35.7074C324.18 36.0091 323.872 36.2625 323.51 36.4676C323.148 36.6728 322.78 36.7753 322.406 36.7753C322.044 36.7753 321.7 36.6848 321.374 36.5038C321.049 36.3228 320.813 36.0091 320.669 35.5626C320.644 35.4661 320.632 35.3032 320.632 35.074V34.7482L321.266 32.2142C321.688 30.5129 321.905 29.6562 321.917 29.6441C321.917 29.62 321.61 29.6079 320.994 29.6079H320.071Z" fill="white"/>
<path d="M327.221 23.0197L327.293 23.0016C327.353 23.0016 327.414 23.0016 327.474 23.0016H327.691L328.198 23.436C329.332 24.4616 330.159 25.7407 330.678 27.2731C331.196 28.8055 331.456 30.3983 331.456 32.0514C331.456 32.8719 331.396 33.6622 331.275 34.4224C331.154 35.1826 331.015 35.8281 330.859 36.359C330.702 36.8899 330.478 37.4209 330.189 37.9518C329.899 38.4827 329.67 38.8869 329.501 39.1644C329.332 39.442 329.085 39.7497 328.759 40.0875C328.433 40.4254 328.24 40.6245 328.18 40.6848C328.12 40.7451 327.981 40.8598 327.764 41.0287C327.727 41.0649 327.703 41.089 327.691 41.1011H327.474C327.377 41.1011 327.311 41.1011 327.275 41.1011C327.239 41.1011 327.208 41.083 327.184 41.0468C327.16 41.0106 327.142 40.9563 327.13 40.8839C327.142 40.8718 327.208 40.7934 327.329 40.6486C329.199 38.7059 330.135 35.8402 330.135 32.0514C330.135 28.2625 329.199 25.3968 327.329 23.4541C327.208 23.3093 327.142 23.2309 327.13 23.2188C327.13 23.1223 327.16 23.0559 327.221 23.0197Z" fill="white"/>
<path d="M334.261 23.0197L334.334 23.0016C334.394 23.0016 334.454 23.0016 334.515 23.0016H334.732L335.239 23.436C336.373 24.4616 337.199 25.7407 337.718 27.2731C338.237 28.8055 338.497 30.3983 338.497 32.0514C338.497 32.8719 338.436 33.6622 338.316 34.4224C338.195 35.1826 338.056 35.8281 337.899 36.359C337.742 36.8899 337.519 37.4209 337.23 37.9518C336.94 38.4827 336.711 38.8869 336.542 39.1644C336.373 39.442 336.126 39.7497 335.8 40.0875C335.474 40.4254 335.281 40.6245 335.221 40.6848C335.16 40.7451 335.021 40.8598 334.804 41.0287C334.768 41.0649 334.744 41.089 334.732 41.1011H334.515C334.418 41.1011 334.352 41.1011 334.316 41.1011C334.279 41.1011 334.249 41.083 334.225 41.0468C334.201 41.0106 334.183 40.9563 334.171 40.8839C334.183 40.8718 334.249 40.7934 334.37 40.6486C336.24 38.7059 337.175 35.8402 337.175 32.0514C337.175 28.2625 336.24 25.3968 334.37 23.4541C334.249 23.3093 334.183 23.2309 334.171 23.2188C334.171 23.1223 334.201 23.0559 334.261 23.0197Z" fill="white"/>
</g>
</g>
<defs>
<filter id="filter0_d_3_77" x="0" y="0" width="368" height="74" filterUnits="userSpaceOnUse" color-interpolation-filters="sRGB">
<feFlood flood-opacity="0" result="BackgroundImageFix"/>
<feColorMatrix in="SourceAlpha" type="matrix" values="0 0 0 0 0 0 0 0 0 0 0 0 0 0 0 0 0 0 127 0" result="hardAlpha"/>
<feOffset dy="4"/>
<feGaussianBlur stdDeviation="2"/>
<feComposite in2="hardAlpha" operator="out"/>
<feColorMatrix type="matrix" values="0 0 0 0 0 0 0 0 0 0 0 0 0 0 0 0 0 0 0.25 0"/>
<feBlend mode="normal" in2="BackgroundImageFix" result="effect1_dropShadow_3_77"/>
<feBlend mode="normal" in="SourceGraphic" in2="effect1_dropShadow_3_77" result="shape"/>
</filter>
<clipPath id="clip0_3_77">
<rect width="312.216" height="19.976" fill="white" transform="translate(28 23)"/>
</clipPath>
</defs>
</svg>
