<svg width="396" height="396" viewBox="0 0 396 396" fill="none" xmlns="http://www.w3.org/2000/svg">
<rect x="1" y="1" width="394" height="394" fill="#0D1117" stroke="#F99F3F" stroke-width="2"/>
<line x1="218.886" y1="126.789" x2="300.886" y2="186.789" stroke="#F99F3F" stroke-width="3" stroke-dasharray="6 6"/>
<line x1="112.466" y1="166.598" x2="217.466" y2="126.598" stroke="#F99F3F" stroke-width="3" stroke-dasharray="6 6"/>
<path d="M214.826 137.436C214.514 136.98 213.892 136.863 213.436 137.174L206.005 142.251C205.549 142.563 205.431 143.185 205.743 143.641C206.054 144.097 206.677 144.214 207.133 143.903L213.738 139.39L218.251 145.995C218.563 146.451 219.185 146.569 219.641 146.257C220.097 145.946 220.214 145.323 219.903 144.867L214.826 137.436ZM198.983 223.185L214.983 138.185L213.017 137.815L197.017 222.815L198.983 223.185Z" fill="#F99F3F"/>
<path d="M305.431 197.098C304.932 196.86 304.335 197.071 304.098 197.569L300.221 205.692C299.983 206.19 300.194 206.787 300.693 207.025C301.191 207.263 301.788 207.051 302.026 206.553L305.472 199.333L312.692 202.779C313.19 203.017 313.787 202.806 314.025 202.307C314.263 201.809 314.051 201.212 313.553 200.974L305.431 197.098ZM328.943 262.666L305.943 197.666L304.057 198.334L327.057 263.334L328.943 262.666Z" fill="#F99F3F"/>
<path d="M108.964 177.733C108.817 177.201 108.266 176.889 107.733 177.036L99.0591 179.435C98.5268 179.583 98.2147 180.134 98.3619 180.666C98.5091 181.198 99.06 181.51 99.5923 181.363L107.303 179.23L109.435 186.941C109.583 187.473 110.134 187.785 110.666 187.638C111.198 187.491 111.51 186.94 111.363 186.408L108.964 177.733ZM74.87 238.493L108.87 178.493L107.13 177.507L73.13 237.507L74.87 238.493Z" fill="#F99F3F"/>
<line x1="198.441" y1="221.566" x2="328.441" y2="261.566" stroke="#F99F3F" stroke-width="3"/>
<line x1="18.9701" y1="287.909" x2="72.9701" y2="236.909" stroke="#F99F3F" stroke-width="3"/>
<line x1="73.8199" y1="236.511" x2="197.94" y2="222.504" stroke="#F99F3F" stroke-width="3"/>
<line x1="329.406" y1="262.477" x2="361.406" y2="348.477" stroke="#F99F3F" stroke-width="3"/>
<circle cx="113" cy="168" r="10" fill="#FF1D70"/>
<circle cx="228" cy="46" r="10" fill="#4B1095"/>
<circle cx="218" cy="128" r="10" fill="#FF1D70"/>
<circle cx="300" cy="188" r="10" fill="#FF1D70"/>
<circle cx="74" cy="238" r="10" fill="#FF1D70"/>
<circle cx="198" cy="223" r="10" fill="#FF1D70"/>
<circle cx="328" cy="263" r="10" fill="#FF1D70"/>
<g clip-path="url(#clip0_4_178)">
<path d="M178.578 248.548C178.592 248.465 178.612 248.355 178.64 248.218C178.668 248.08 178.75 247.819 178.888 247.434C179.025 247.049 179.163 246.726 179.301 246.465C179.438 246.204 179.658 245.949 179.961 245.702C180.264 245.454 180.567 245.338 180.87 245.351C181.172 245.365 181.468 245.413 181.757 245.496C182.046 245.578 182.253 245.702 182.377 245.867C182.5 246.032 182.611 246.183 182.707 246.32C182.803 246.458 182.858 246.589 182.872 246.712L182.913 246.857C182.913 246.884 182.92 246.898 182.934 246.898L183.161 246.671C183.987 245.791 184.957 245.351 186.072 245.351C186.306 245.351 186.519 245.365 186.712 245.393C186.905 245.42 187.083 245.468 187.249 245.537C187.414 245.606 187.544 245.674 187.641 245.743C187.737 245.812 187.84 245.894 187.95 245.991C188.061 246.087 188.129 246.176 188.157 246.259C188.184 246.341 188.24 246.43 188.322 246.527C188.405 246.623 188.432 246.705 188.405 246.774C188.377 246.843 188.398 246.905 188.467 246.96C188.535 247.015 188.549 247.063 188.508 247.104L188.673 246.898C189.54 245.867 190.565 245.351 191.749 245.351C192.492 245.351 193.091 245.537 193.545 245.908C193.999 246.279 194.233 246.822 194.247 247.537C194.247 248.238 193.985 249.324 193.462 250.795C192.939 252.266 192.678 253.146 192.678 253.435C192.692 253.627 192.726 253.758 192.781 253.827C192.836 253.895 192.939 253.93 193.091 253.93C193.476 253.93 193.834 253.723 194.164 253.311C194.495 252.899 194.763 252.335 194.969 251.62C195.011 251.469 195.052 251.379 195.093 251.352C195.135 251.325 195.245 251.311 195.424 251.311C195.699 251.311 195.837 251.366 195.837 251.476C195.837 251.489 195.809 251.593 195.754 251.785C195.644 252.184 195.492 252.576 195.3 252.96C195.107 253.345 194.791 253.73 194.35 254.115C193.91 254.5 193.435 254.686 192.926 254.672C192.279 254.672 191.811 254.486 191.522 254.115C191.233 253.744 191.088 253.359 191.088 252.96C191.088 252.699 191.336 251.874 191.832 250.486C192.327 249.097 192.582 248.053 192.595 247.352C192.595 246.54 192.293 246.135 191.687 246.135H191.584C190.4 246.135 189.402 246.829 188.59 248.218L188.446 248.465L187.765 251.228C187.311 253.029 187.049 253.998 186.98 254.136C186.801 254.507 186.505 254.693 186.093 254.693C185.914 254.693 185.769 254.644 185.659 254.548C185.549 254.452 185.473 254.37 185.432 254.301C185.391 254.232 185.37 254.163 185.37 254.095C185.37 253.943 185.604 252.96 186.072 251.146L186.815 248.135C186.856 247.929 186.877 247.668 186.877 247.352C186.877 246.54 186.574 246.135 185.969 246.135H185.865C184.682 246.135 183.684 246.829 182.872 248.218L182.728 248.465L182.046 251.228C181.592 253.029 181.331 253.998 181.262 254.136C181.083 254.507 180.787 254.693 180.374 254.693C180.195 254.693 180.051 254.651 179.941 254.569C179.83 254.486 179.755 254.404 179.714 254.321C179.672 254.239 179.658 254.17 179.672 254.115C179.672 253.937 179.934 252.809 180.457 250.733C180.993 248.616 181.262 247.51 181.262 247.413C181.303 247.207 181.324 247.022 181.324 246.857C181.324 246.362 181.152 246.114 180.808 246.114C180.505 246.114 180.25 246.307 180.044 246.692C179.837 247.077 179.679 247.496 179.569 247.95C179.459 248.403 179.376 248.651 179.321 248.692C179.294 248.719 179.184 248.733 178.991 248.733H178.702C178.619 248.651 178.578 248.589 178.578 248.548Z" fill="white"/>
<path d="M196.766 255.241C196.766 254.181 197.185 253.229 198.021 252.383C198.858 251.538 199.763 251.115 200.736 251.115C201.281 251.115 201.709 251.232 202.021 251.465C202.332 251.698 202.493 252.004 202.502 252.383C202.502 252.665 202.41 252.903 202.225 253.098C202.04 253.292 201.807 253.394 201.524 253.404C201.34 253.404 201.194 253.355 201.087 253.258C200.979 253.161 200.926 253.015 200.926 252.821C200.926 252.626 200.979 252.461 201.087 252.325C201.194 252.189 201.301 252.087 201.408 252.019C201.515 251.951 201.583 251.922 201.612 251.931H201.627C201.627 251.912 201.597 251.883 201.539 251.844C201.481 251.805 201.378 251.766 201.232 251.727C201.087 251.688 200.921 251.669 200.736 251.669C200.444 251.669 200.167 251.737 199.904 251.873C199.7 251.961 199.491 252.111 199.277 252.325C198.849 252.753 198.537 253.355 198.343 254.133C198.148 254.91 198.046 255.474 198.036 255.824C198.036 256.271 198.163 256.606 198.416 256.83C198.63 257.063 198.912 257.18 199.262 257.18H199.32C200.41 257.18 201.31 256.767 202.021 255.941C202.108 255.843 202.167 255.795 202.196 255.795C202.235 255.795 202.298 255.839 202.386 255.926C202.473 256.014 202.522 256.082 202.531 256.13C202.541 256.179 202.497 256.252 202.4 256.349C202.303 256.446 202.162 256.582 201.977 256.757C201.792 256.932 201.573 257.078 201.32 257.194C201.067 257.311 200.756 257.433 200.386 257.559C200.016 257.685 199.627 257.739 199.218 257.719C198.489 257.719 197.9 257.486 197.452 257.02C197.005 256.553 196.776 255.96 196.766 255.241Z" fill="white"/>
<path d="M205.564 249.311C205.564 248.362 205.633 247.462 205.77 246.609C205.908 245.757 206.066 245.021 206.245 244.403C206.424 243.784 206.679 243.179 207.009 242.588C207.339 241.997 207.601 241.536 207.794 241.206C207.986 240.877 208.275 240.519 208.661 240.134C209.046 239.749 209.273 239.516 209.342 239.433C209.411 239.351 209.583 239.206 209.858 239H210.126H210.209C210.402 239 210.498 239.062 210.498 239.186C210.498 239.227 210.381 239.371 210.147 239.619C209.913 239.866 209.631 240.23 209.301 240.712C208.97 241.193 208.633 241.784 208.289 242.485C207.945 243.186 207.656 244.135 207.422 245.331C207.188 246.527 207.071 247.853 207.071 249.311C207.071 250.768 207.188 252.087 207.422 253.27C207.656 254.452 207.938 255.407 208.268 256.136C208.599 256.865 208.936 257.456 209.28 257.909C209.624 258.363 209.913 258.727 210.147 259.002C210.381 259.277 210.498 259.422 210.498 259.435C210.498 259.559 210.395 259.621 210.188 259.621H210.126H209.858L209.28 259.126C207.986 257.958 207.043 256.5 206.452 254.754C205.86 253.009 205.564 251.194 205.564 249.311Z" fill="white"/>
<path d="M212.191 246.527C212.094 246.43 212.046 246.362 212.046 246.32C212.046 246.265 212.067 246.156 212.108 245.991C212.149 245.826 212.184 245.729 212.211 245.702C212.239 245.633 212.301 245.599 212.397 245.599C212.494 245.599 212.844 245.592 213.45 245.578H214.544L214.936 243.928C214.978 243.777 215.026 243.578 215.081 243.33C215.136 243.083 215.184 242.904 215.225 242.794C215.267 242.684 215.308 242.547 215.349 242.382C215.391 242.217 215.446 242.1 215.514 242.031C215.583 241.963 215.652 241.88 215.721 241.784C215.79 241.688 215.886 241.626 216.01 241.598C216.134 241.571 216.258 241.557 216.381 241.557C216.629 241.571 216.801 241.646 216.898 241.784C216.994 241.921 217.042 242.052 217.042 242.176C217.042 242.272 216.98 242.595 216.856 243.145C216.732 243.695 216.595 244.238 216.443 244.774L216.237 245.537C216.237 245.564 216.581 245.578 217.269 245.578H218.322C218.418 245.674 218.467 245.75 218.467 245.805C218.467 246.107 218.377 246.348 218.198 246.527H215.989L215.246 249.517C214.709 251.716 214.441 252.899 214.441 253.064C214.441 253.641 214.627 253.93 214.998 253.93C215.48 253.93 215.948 253.696 216.402 253.229C216.856 252.761 217.221 252.184 217.496 251.496C217.524 251.414 217.558 251.366 217.599 251.352C217.641 251.338 217.744 251.325 217.909 251.311H217.992C218.198 251.311 218.301 251.366 218.301 251.476C218.301 251.517 218.281 251.599 218.239 251.723C218.171 251.943 218.047 252.204 217.868 252.507C217.689 252.809 217.455 253.132 217.166 253.476C216.877 253.82 216.526 254.108 216.113 254.342C215.7 254.576 215.28 254.693 214.854 254.693C214.441 254.693 214.049 254.59 213.677 254.383C213.306 254.177 213.037 253.82 212.872 253.311C212.844 253.201 212.831 253.015 212.831 252.754V252.383L213.553 249.496C214.035 247.558 214.283 246.582 214.296 246.568C214.296 246.54 213.945 246.527 213.244 246.527H212.191Z" fill="white"/>
<path d="M220.345 239.021L220.428 239C220.497 239 220.565 239 220.634 239H220.882L221.46 239.495C222.754 240.663 223.696 242.121 224.288 243.867C224.88 245.612 225.176 247.427 225.176 249.311C225.176 250.245 225.107 251.146 224.969 252.012C224.832 252.878 224.674 253.613 224.495 254.218C224.316 254.823 224.061 255.428 223.731 256.033C223.4 256.638 223.139 257.098 222.946 257.415C222.754 257.731 222.471 258.081 222.1 258.466C221.728 258.851 221.508 259.078 221.439 259.147C221.37 259.215 221.212 259.346 220.964 259.539C220.923 259.58 220.896 259.607 220.882 259.621H220.634C220.524 259.621 220.448 259.621 220.407 259.621C220.366 259.621 220.331 259.6 220.304 259.559C220.276 259.518 220.256 259.456 220.242 259.374C220.256 259.36 220.331 259.27 220.469 259.106C222.602 256.892 223.669 253.627 223.669 249.311C223.669 244.994 222.602 241.729 220.469 239.516C220.331 239.351 220.256 239.261 220.242 239.247C220.242 239.137 220.276 239.062 220.345 239.021Z" fill="white"/>
</g>
<g clip-path="url(#clip1_4_178)">
<path d="M246.128 46.9672C246.229 46.3618 246.618 45.6627 247.295 44.87C247.973 44.0772 248.809 43.6736 249.803 43.6592C250.308 43.6592 250.769 43.7889 251.187 44.0484C251.605 44.3078 251.915 44.6321 252.117 45.0213C252.722 44.1132 253.45 43.6592 254.3 43.6592C254.834 43.6592 255.295 43.8178 255.684 44.1349C256.073 44.452 256.275 44.8772 256.289 45.4105C256.289 45.8285 256.189 46.1672 255.987 46.4267C255.785 46.6861 255.59 46.8447 255.403 46.9023C255.216 46.96 255.05 46.9888 254.906 46.9888C254.632 46.9888 254.408 46.9095 254.235 46.751C254.063 46.5924 253.976 46.3834 253.976 46.124C253.976 45.4609 254.336 45.0069 255.057 44.7619C254.899 44.5745 254.61 44.4808 254.192 44.4808C254.005 44.4808 253.868 44.4952 253.781 44.524C253.234 44.7547 252.83 45.2303 252.571 45.951C251.706 49.1365 251.273 50.9959 251.273 51.5292C251.273 51.9328 251.389 52.221 251.619 52.394C251.85 52.567 252.102 52.6534 252.376 52.6534C252.909 52.6534 253.436 52.4156 253.954 51.94C254.473 51.4643 254.826 50.8805 255.014 50.1887C255.057 50.0445 255.1 49.9653 255.144 49.9508C255.187 49.9364 255.302 49.922 255.49 49.9076H255.576C255.792 49.9076 255.9 49.9653 255.9 50.0806C255.9 50.095 255.886 50.1743 255.857 50.3184C255.626 51.14 255.18 51.8679 254.517 52.5021C253.854 53.1363 253.082 53.4534 252.203 53.4534C251.194 53.4534 250.43 52.9994 249.911 52.0913C249.32 52.985 248.643 53.4318 247.879 53.4318H247.749C247.043 53.4318 246.539 53.2444 246.236 52.8697C245.933 52.4949 245.775 52.0985 245.76 51.6805C245.76 51.2193 245.897 50.8445 246.171 50.5562C246.445 50.268 246.769 50.1238 247.144 50.1238C247.764 50.1238 248.074 50.4265 248.074 51.0319C248.074 51.3202 247.987 51.5724 247.814 51.7886C247.641 52.0048 247.475 52.149 247.317 52.221C247.158 52.2931 247.065 52.3291 247.036 52.3291L246.971 52.3508C246.971 52.3652 247.014 52.394 247.101 52.4372C247.187 52.4805 247.302 52.5309 247.447 52.5886C247.591 52.6462 247.728 52.6679 247.857 52.6534C248.376 52.6534 248.823 52.3291 249.198 51.6805C249.328 51.4499 249.493 50.9598 249.695 50.2103C249.897 49.4608 250.099 48.6824 250.301 47.8753C250.502 47.0681 250.618 46.5924 250.646 46.4483C250.719 46.0591 250.755 45.778 250.755 45.6051C250.755 45.2015 250.646 44.9132 250.43 44.7402C250.214 44.5673 249.969 44.4808 249.695 44.4808C249.119 44.4808 248.578 44.7114 248.074 45.1727C247.569 45.6339 247.216 46.2249 247.014 46.9456C246.985 47.0753 246.949 47.1474 246.906 47.1618C246.863 47.1762 246.748 47.1906 246.56 47.205H246.257C246.171 47.1185 246.128 47.0393 246.128 46.9672Z" fill="white"/>
<path d="M259.403 47.8104C259.403 46.8158 259.475 45.8717 259.619 44.9781C259.763 44.0844 259.929 43.3133 260.116 42.6646C260.304 42.016 260.57 41.3818 260.916 40.762C261.262 40.1422 261.536 39.6594 261.738 39.3134C261.94 38.9675 262.242 38.5927 262.646 38.1891C263.05 37.7856 263.287 37.5405 263.359 37.454C263.432 37.3676 263.612 37.2162 263.9 37H264.181H264.268C264.469 37 264.57 37.0649 264.57 37.1946C264.57 37.2378 264.448 37.3892 264.203 37.6486C263.958 37.9081 263.662 38.29 263.316 38.7945C262.97 39.299 262.617 39.9188 262.257 40.6539C261.896 41.389 261.594 42.3836 261.349 43.6376C261.104 44.8916 260.981 46.2825 260.981 47.8104C260.981 49.3383 261.104 50.722 261.349 51.9616C261.594 53.2012 261.889 54.2029 262.235 54.9669C262.581 55.7308 262.934 56.3506 263.295 56.8262C263.655 57.3019 263.958 57.6839 264.203 57.9722C264.448 58.2604 264.57 58.4118 264.57 58.4262C264.57 58.5559 264.462 58.6208 264.246 58.6208H264.181H263.9L263.295 58.1019C261.94 56.8767 260.952 55.3488 260.333 53.5183C259.713 51.6877 259.403 49.7851 259.403 47.8104Z" fill="white"/>
<path d="M266.343 44.8916C266.242 44.7907 266.192 44.7186 266.192 44.6754C266.192 44.6177 266.213 44.5024 266.257 44.3294C266.3 44.1565 266.336 44.0556 266.365 44.0267C266.394 43.9547 266.458 43.9186 266.559 43.9186C266.66 43.9186 267.028 43.9114 267.662 43.897H268.808L269.219 42.1674C269.262 42.0088 269.312 41.7998 269.37 41.5404C269.428 41.2809 269.478 41.0935 269.521 40.9782C269.565 40.8629 269.608 40.7188 269.651 40.5458C269.694 40.3728 269.752 40.2503 269.824 40.1782C269.896 40.1062 269.968 40.0197 270.04 39.9188C270.112 39.8179 270.213 39.753 270.343 39.7242C270.473 39.6954 270.602 39.681 270.732 39.681C270.992 39.6954 271.172 39.7747 271.273 39.9188C271.374 40.0629 271.424 40.1999 271.424 40.3296C271.424 40.4305 271.359 40.7692 271.229 41.3458C271.1 41.9223 270.956 42.4917 270.797 43.0538L270.581 43.8538C270.581 43.8826 270.941 43.897 271.662 43.897H272.764C272.865 43.9979 272.916 44.0772 272.916 44.1348C272.916 44.452 272.822 44.7042 272.635 44.8916H270.321L269.543 48.0266C268.981 50.3328 268.7 51.5724 268.7 51.7454C268.7 52.3507 268.894 52.6534 269.284 52.6534C269.788 52.6534 270.278 52.4084 270.754 51.9183C271.229 51.4283 271.611 50.8229 271.9 50.1022C271.928 50.0157 271.965 49.9652 272.008 49.9508C272.051 49.9364 272.159 49.922 272.332 49.9076H272.419C272.635 49.9076 272.743 49.9652 272.743 50.0806C272.743 50.1238 272.721 50.2103 272.678 50.34C272.606 50.5706 272.476 50.8445 272.289 51.1616C272.101 51.4787 271.856 51.8174 271.554 52.1778C271.251 52.5381 270.883 52.8408 270.451 53.0858C270.019 53.3309 269.579 53.4534 269.132 53.4534C268.7 53.4534 268.289 53.3453 267.9 53.1291C267.511 52.9129 267.23 52.5381 267.057 52.0048C267.028 51.8895 267.013 51.6949 267.013 51.421V51.0319L267.77 48.005C268.275 45.9726 268.534 44.9492 268.548 44.9348C268.548 44.906 268.181 44.8916 267.446 44.8916H266.343Z" fill="white"/>
<path d="M274.883 37.0216L274.97 37C275.042 37 275.114 37 275.186 37H275.445L276.051 37.5189C277.406 38.7441 278.393 40.2719 279.013 42.1025C279.633 43.9331 279.943 45.8357 279.943 47.8104C279.943 48.7905 279.871 49.7346 279.726 50.6427C279.582 51.5508 279.416 52.3219 279.229 52.9561C279.042 53.5903 278.775 54.2246 278.429 54.8588C278.083 55.493 277.809 55.9758 277.608 56.3074C277.406 56.6389 277.11 57.0064 276.721 57.41C276.332 57.8136 276.101 58.0514 276.029 58.1235C275.957 58.1956 275.791 58.3325 275.532 58.5343C275.489 58.5775 275.46 58.6064 275.445 58.6208H275.186C275.071 58.6208 274.991 58.6208 274.948 58.6208C274.905 58.6208 274.869 58.5992 274.84 58.5559C274.811 58.5127 274.79 58.4478 274.775 58.3613C274.79 58.3469 274.869 58.2532 275.013 58.0803C277.247 55.7596 278.364 52.3363 278.364 47.8104C278.364 43.2844 277.247 39.8612 275.013 37.5405C274.869 37.3676 274.79 37.2739 274.775 37.2595C274.775 37.1441 274.811 37.0649 274.883 37.0216Z" fill="white"/>
</g>
<g clip-path="url(#clip2_4_178)">
<path d="M230.418 120.042C230.431 119.964 230.45 119.86 230.476 119.73C230.502 119.599 230.58 119.352 230.711 118.988C230.841 118.623 230.971 118.317 231.101 118.07C231.231 117.822 231.44 117.581 231.726 117.347C232.013 117.113 232.299 117.002 232.585 117.015C232.872 117.028 233.152 117.074 233.425 117.152C233.699 117.23 233.894 117.347 234.011 117.503C234.128 117.66 234.232 117.803 234.324 117.933C234.415 118.063 234.467 118.187 234.48 118.304L234.519 118.441C234.519 118.467 234.525 118.48 234.538 118.48L234.753 118.265C235.534 117.432 236.452 117.015 237.507 117.015C237.728 117.015 237.93 117.028 238.112 117.054C238.295 117.08 238.464 117.126 238.62 117.191C238.776 117.256 238.9 117.321 238.991 117.386C239.082 117.451 239.18 117.529 239.284 117.62C239.388 117.712 239.453 117.796 239.479 117.874C239.505 117.952 239.557 118.037 239.636 118.128C239.714 118.219 239.74 118.298 239.714 118.363C239.688 118.428 239.707 118.486 239.772 118.538C239.837 118.59 239.85 118.636 239.811 118.675L239.968 118.48C240.788 117.503 241.758 117.015 242.877 117.015C243.581 117.015 244.147 117.191 244.577 117.542C245.006 117.894 245.228 118.408 245.241 119.085C245.241 119.749 244.993 120.778 244.498 122.171C244.004 123.564 243.756 124.397 243.756 124.671C243.769 124.853 243.802 124.977 243.854 125.042C243.906 125.107 244.004 125.139 244.147 125.139C244.511 125.139 244.85 124.944 245.162 124.553C245.475 124.163 245.729 123.629 245.924 122.952C245.963 122.809 246.002 122.724 246.041 122.698C246.08 122.672 246.184 122.659 246.354 122.659C246.614 122.659 246.744 122.711 246.744 122.815C246.744 122.828 246.718 122.926 246.666 123.108C246.562 123.486 246.419 123.857 246.237 124.221C246.054 124.586 245.755 124.951 245.338 125.315C244.922 125.68 244.472 125.855 243.991 125.842C243.379 125.842 242.936 125.667 242.663 125.315C242.389 124.964 242.253 124.599 242.253 124.221C242.253 123.974 242.487 123.193 242.956 121.878C243.424 120.563 243.665 119.573 243.678 118.909C243.678 118.141 243.392 117.757 242.819 117.757H242.721C241.602 117.757 240.658 118.415 239.889 119.73L239.753 119.964L239.108 122.581C238.679 124.287 238.431 125.204 238.366 125.335C238.197 125.686 237.917 125.862 237.526 125.862C237.357 125.862 237.22 125.816 237.116 125.725C237.012 125.634 236.941 125.556 236.901 125.491C236.862 125.426 236.843 125.361 236.843 125.296C236.843 125.152 237.064 124.221 237.507 122.503L238.21 119.652C238.249 119.456 238.269 119.209 238.269 118.909C238.269 118.141 237.982 117.757 237.409 117.757H237.312C236.192 117.757 235.248 118.415 234.48 119.73L234.343 119.964L233.699 122.581C233.269 124.287 233.022 125.204 232.957 125.335C232.787 125.686 232.507 125.862 232.117 125.862C231.947 125.862 231.811 125.823 231.707 125.745C231.602 125.667 231.531 125.589 231.492 125.51C231.453 125.432 231.44 125.367 231.453 125.315C231.453 125.146 231.7 124.078 232.195 122.112C232.703 120.107 232.957 119.059 232.957 118.968C232.996 118.773 233.015 118.597 233.015 118.441C233.015 117.972 232.852 117.738 232.527 117.738C232.24 117.738 232 117.92 231.804 118.284C231.609 118.649 231.459 119.046 231.355 119.476C231.251 119.905 231.173 120.14 231.121 120.179C231.095 120.205 230.991 120.218 230.808 120.218H230.535C230.457 120.14 230.418 120.081 230.418 120.042Z" fill="white"/>
<path d="M247.624 126.381C247.624 125.378 248.02 124.476 248.811 123.675C249.603 122.874 250.459 122.474 251.379 122.474C251.895 122.474 252.3 122.584 252.595 122.805C252.889 123.026 253.041 123.316 253.05 123.675C253.05 123.942 252.963 124.167 252.788 124.351C252.613 124.536 252.392 124.632 252.125 124.641C251.95 124.641 251.812 124.595 251.711 124.503C251.61 124.411 251.559 124.273 251.559 124.089C251.559 123.905 251.61 123.749 251.711 123.62C251.812 123.491 251.913 123.394 252.015 123.33C252.116 123.265 252.18 123.238 252.208 123.247H252.222C252.222 123.228 252.194 123.201 252.139 123.164C252.084 123.127 251.987 123.09 251.849 123.054C251.711 123.017 251.554 122.998 251.379 122.998C251.103 122.998 250.841 123.063 250.592 123.192C250.399 123.275 250.201 123.417 249.999 123.62C249.594 124.025 249.299 124.595 249.115 125.332C248.931 126.068 248.834 126.602 248.825 126.933C248.825 127.357 248.945 127.674 249.184 127.886C249.387 128.107 249.654 128.218 249.985 128.218H250.04C251.071 128.218 251.923 127.826 252.595 127.044C252.677 126.952 252.733 126.906 252.76 126.906C252.797 126.906 252.857 126.947 252.94 127.03C253.023 127.113 253.069 127.177 253.078 127.223C253.087 127.269 253.046 127.338 252.954 127.431C252.861 127.523 252.728 127.651 252.553 127.817C252.378 127.983 252.171 128.121 251.932 128.231C251.692 128.342 251.398 128.457 251.048 128.577C250.698 128.696 250.33 128.747 249.944 128.728C249.253 128.728 248.696 128.507 248.273 128.066C247.849 127.624 247.633 127.062 247.624 126.381Z" fill="white"/>
<path d="M255.947 120.765C255.947 119.866 256.012 119.014 256.142 118.206C256.272 117.399 256.422 116.703 256.591 116.117C256.76 115.531 257.001 114.958 257.314 114.398C257.626 113.838 257.874 113.402 258.056 113.09C258.238 112.777 258.511 112.439 258.876 112.074C259.241 111.71 259.455 111.488 259.52 111.41C259.586 111.332 259.748 111.195 260.009 111H260.263H260.341C260.523 111 260.614 111.059 260.614 111.176C260.614 111.215 260.503 111.352 260.282 111.586C260.061 111.82 259.794 112.165 259.481 112.621C259.169 113.077 258.85 113.636 258.524 114.3C258.199 114.964 257.926 115.863 257.704 116.996C257.483 118.128 257.372 119.385 257.372 120.765C257.372 122.145 257.483 123.395 257.704 124.514C257.926 125.634 258.192 126.539 258.505 127.229C258.817 127.919 259.136 128.479 259.462 128.909C259.787 129.338 260.061 129.683 260.282 129.944C260.503 130.204 260.614 130.341 260.614 130.354C260.614 130.471 260.516 130.529 260.321 130.529H260.263H260.009L259.462 130.061C258.238 128.954 257.346 127.574 256.786 125.921C256.227 124.267 255.947 122.548 255.947 120.765Z" fill="white"/>
<path d="M262.216 118.128C262.124 118.037 262.079 117.972 262.079 117.933C262.079 117.881 262.098 117.777 262.137 117.62C262.176 117.464 262.209 117.373 262.235 117.347C262.261 117.282 262.32 117.249 262.411 117.249C262.502 117.249 262.834 117.243 263.407 117.23H264.442L264.813 115.668C264.852 115.524 264.898 115.336 264.95 115.101C265.002 114.867 265.047 114.698 265.086 114.593C265.125 114.489 265.165 114.359 265.204 114.203C265.243 114.047 265.295 113.936 265.36 113.871C265.425 113.806 265.49 113.728 265.555 113.636C265.62 113.545 265.711 113.487 265.829 113.461C265.946 113.435 266.063 113.422 266.18 113.422C266.414 113.435 266.577 113.506 266.668 113.636C266.759 113.767 266.805 113.89 266.805 114.008C266.805 114.099 266.746 114.405 266.629 114.925C266.512 115.446 266.382 115.96 266.239 116.468L266.043 117.191C266.043 117.217 266.369 117.23 267.02 117.23H268.016C268.107 117.321 268.153 117.393 268.153 117.445C268.153 117.731 268.068 117.959 267.899 118.128H265.809L265.106 120.96C264.598 123.043 264.344 124.163 264.344 124.319C264.344 124.866 264.52 125.139 264.872 125.139C265.327 125.139 265.77 124.918 266.2 124.475C266.629 124.033 266.974 123.486 267.235 122.835C267.261 122.757 267.293 122.711 267.332 122.698C267.371 122.685 267.469 122.672 267.625 122.659H267.703C267.899 122.659 267.996 122.711 267.996 122.815C267.996 122.854 267.977 122.933 267.938 123.05C267.873 123.258 267.755 123.505 267.586 123.792C267.417 124.078 267.196 124.384 266.922 124.71C266.649 125.035 266.317 125.309 265.926 125.53C265.536 125.751 265.138 125.862 264.735 125.862C264.344 125.862 263.973 125.764 263.622 125.569C263.27 125.374 263.016 125.035 262.86 124.553C262.834 124.449 262.821 124.274 262.821 124.026V123.675L263.505 120.94C263.96 119.105 264.195 118.18 264.208 118.167C264.208 118.141 263.876 118.128 263.212 118.128H262.216Z" fill="white"/>
<path d="M274.191 121.019C274.191 121.019 274.191 120.934 274.191 120.765C274.191 120.595 274.282 120.465 274.464 120.374H280.304V117.445L280.323 114.515C280.453 114.346 280.577 114.261 280.694 114.261C280.864 114.261 280.994 114.359 281.085 114.554V120.374H286.905C287.1 120.478 287.198 120.608 287.198 120.765C287.198 120.921 287.1 121.051 286.905 121.155H281.085V126.975C280.981 127.157 280.864 127.249 280.733 127.249H280.694H280.655C280.499 127.249 280.382 127.157 280.304 126.975V121.155H274.464C274.282 121.064 274.191 120.934 274.191 120.765V121.019Z" fill="white"/>
<path d="M296.791 114.359L296.537 114.457C296.354 114.522 296.094 114.587 295.755 114.652C295.417 114.717 295.039 114.763 294.623 114.789H294.252V113.89H294.623C295.235 113.864 295.801 113.767 296.322 113.597C296.843 113.428 297.207 113.272 297.415 113.129C297.624 112.985 297.806 112.842 297.962 112.699C297.988 112.66 298.066 112.64 298.197 112.64C298.314 112.64 298.424 112.68 298.529 112.758V118.597L298.548 124.456C298.639 124.547 298.717 124.606 298.783 124.632C298.848 124.658 299.004 124.684 299.251 124.71C299.499 124.736 299.902 124.749 300.462 124.749H300.97V125.647H300.755C300.482 125.608 299.447 125.589 297.65 125.589C295.879 125.589 294.857 125.608 294.584 125.647H294.349V124.749H294.857C295.144 124.749 295.391 124.749 295.599 124.749C295.808 124.749 295.97 124.742 296.087 124.729C296.205 124.716 296.309 124.697 296.4 124.671C296.491 124.645 296.543 124.632 296.556 124.632C296.569 124.632 296.608 124.599 296.673 124.534C296.738 124.469 296.778 124.443 296.791 124.456V114.359Z" fill="white"/>
<path d="M303.567 111.02L303.645 111C303.71 111 303.776 111 303.841 111H304.075L304.622 111.469C305.846 112.575 306.738 113.955 307.297 115.609C307.857 117.262 308.137 118.981 308.137 120.765C308.137 121.65 308.072 122.503 307.942 123.323C307.812 124.143 307.662 124.84 307.493 125.413C307.323 125.986 307.083 126.558 306.77 127.131C306.458 127.704 306.21 128.14 306.028 128.44C305.846 128.739 305.579 129.071 305.227 129.436C304.876 129.8 304.667 130.015 304.602 130.08C304.537 130.145 304.387 130.269 304.153 130.451C304.114 130.49 304.088 130.516 304.075 130.529H303.841C303.737 130.529 303.665 130.529 303.626 130.529C303.587 130.529 303.554 130.51 303.528 130.471C303.502 130.432 303.483 130.373 303.47 130.295C303.483 130.282 303.554 130.197 303.684 130.041C305.702 127.945 306.711 124.853 306.711 120.765C306.711 116.677 305.702 113.584 303.684 111.488C303.554 111.332 303.483 111.247 303.47 111.234C303.47 111.13 303.502 111.059 303.567 111.02Z" fill="white"/>
</g>
<g clip-path="url(#clip3_4_178)">
<path d="M293.409 166.813C293.422 166.737 293.441 166.636 293.466 166.509C293.492 166.382 293.568 166.141 293.695 165.786C293.822 165.43 293.949 165.132 294.076 164.891C294.202 164.65 294.406 164.415 294.685 164.187C294.964 163.958 295.243 163.85 295.522 163.863C295.801 163.876 296.074 163.92 296.341 163.996C296.607 164.072 296.798 164.187 296.912 164.339C297.026 164.491 297.128 164.631 297.216 164.758C297.305 164.885 297.356 165.005 297.369 165.119L297.407 165.253C297.407 165.278 297.413 165.291 297.426 165.291L297.635 165.081C298.397 164.269 299.291 163.863 300.319 163.863C300.535 163.863 300.732 163.876 300.909 163.901C301.087 163.926 301.252 163.971 301.404 164.034C301.557 164.098 301.677 164.161 301.766 164.225C301.855 164.288 301.95 164.364 302.052 164.453C302.153 164.542 302.216 164.624 302.242 164.701C302.267 164.777 302.318 164.859 302.394 164.948C302.47 165.037 302.496 165.113 302.47 165.176C302.445 165.24 302.464 165.297 302.527 165.348C302.591 165.399 302.604 165.443 302.565 165.481L302.718 165.291C303.517 164.339 304.463 163.863 305.554 163.863C306.239 163.863 306.791 164.034 307.21 164.377C307.629 164.72 307.845 165.221 307.857 165.881C307.857 166.528 307.616 167.531 307.134 168.888C306.652 170.246 306.411 171.058 306.411 171.325C306.423 171.503 306.455 171.623 306.506 171.687C306.557 171.75 306.652 171.782 306.791 171.782C307.147 171.782 307.477 171.591 307.781 171.211C308.086 170.83 308.333 170.31 308.524 169.65C308.562 169.51 308.6 169.428 308.638 169.402C308.676 169.377 308.777 169.364 308.942 169.364C309.196 169.364 309.323 169.415 309.323 169.517C309.323 169.529 309.298 169.624 309.247 169.802C309.145 170.17 309.006 170.532 308.828 170.887C308.651 171.242 308.359 171.598 307.953 171.953C307.546 172.308 307.109 172.48 306.639 172.467C306.043 172.467 305.611 172.296 305.345 171.953C305.078 171.61 304.945 171.255 304.945 170.887C304.945 170.646 305.173 169.885 305.63 168.603C306.087 167.321 306.322 166.357 306.335 165.709C306.335 164.961 306.055 164.586 305.497 164.586H305.402C304.31 164.586 303.39 165.227 302.642 166.509L302.508 166.737L301.88 169.288C301.461 170.951 301.22 171.845 301.157 171.972C300.992 172.315 300.719 172.486 300.338 172.486C300.173 172.486 300.04 172.442 299.939 172.353C299.837 172.264 299.767 172.188 299.729 172.124C299.691 172.061 299.672 171.998 299.672 171.934C299.672 171.794 299.888 170.887 300.319 169.212L301.005 166.433C301.043 166.242 301.062 166.001 301.062 165.709C301.062 164.961 300.782 164.586 300.224 164.586H300.129C299.038 164.586 298.117 165.227 297.369 166.509L297.236 166.737L296.607 169.288C296.189 170.951 295.947 171.845 295.884 171.972C295.719 172.315 295.446 172.486 295.065 172.486C294.9 172.486 294.767 172.448 294.666 172.372C294.564 172.296 294.494 172.22 294.456 172.143C294.418 172.067 294.406 172.004 294.418 171.953C294.418 171.788 294.659 170.748 295.142 168.831C295.637 166.877 295.884 165.855 295.884 165.767C295.922 165.576 295.941 165.405 295.941 165.253C295.941 164.796 295.782 164.567 295.465 164.567C295.186 164.567 294.951 164.745 294.761 165.1C294.571 165.456 294.425 165.843 294.323 166.261C294.222 166.68 294.145 166.909 294.095 166.947C294.069 166.972 293.968 166.985 293.79 166.985H293.524C293.447 166.909 293.409 166.852 293.409 166.813Z" fill="white"/>
<path d="M312.199 167.057C312.199 166.842 312.284 166.653 312.455 166.492C312.625 166.33 312.823 166.245 313.047 166.236C313.209 166.236 313.343 166.29 313.451 166.398C313.558 166.505 313.617 166.64 313.626 166.801C313.626 167.008 313.536 167.196 313.357 167.367C313.177 167.537 312.98 167.627 312.764 167.636C312.63 167.636 312.504 167.591 312.388 167.501C312.271 167.412 312.208 167.264 312.199 167.057ZM310.005 171.27C310.005 171.198 310.046 171.059 310.127 170.852C310.207 170.646 310.315 170.417 310.45 170.166C310.584 169.915 310.782 169.686 311.042 169.48C311.302 169.273 311.571 169.175 311.849 169.184C312.199 169.184 312.491 169.287 312.724 169.493C312.957 169.699 313.078 169.978 313.087 170.327C313.087 170.48 313.025 170.731 312.899 171.081C312.773 171.431 312.594 171.902 312.361 172.494C312.127 173.086 311.939 173.593 311.795 174.015C311.751 174.212 311.728 174.356 311.728 174.446C311.728 174.67 311.804 174.782 311.957 174.782C312.038 174.782 312.123 174.769 312.213 174.742C312.302 174.715 312.406 174.652 312.522 174.553C312.639 174.455 312.76 174.298 312.886 174.082C313.011 173.867 313.123 173.602 313.222 173.288C313.249 173.181 313.271 173.118 313.289 173.1C313.307 173.082 313.384 173.073 313.518 173.073C313.698 173.073 313.787 173.118 313.787 173.208C313.787 173.279 313.747 173.418 313.666 173.625C313.585 173.831 313.473 174.06 313.33 174.311C313.186 174.562 312.984 174.787 312.724 174.984C312.464 175.181 312.186 175.28 311.89 175.28C311.603 175.28 311.338 175.186 311.096 174.997C310.853 174.809 310.728 174.522 310.719 174.136C310.719 173.984 310.741 173.84 310.786 173.705C310.831 173.571 311.024 173.06 311.365 172.171C311.706 171.265 311.903 170.722 311.957 170.543C312.011 170.363 312.042 170.188 312.051 170.018C312.051 169.803 311.975 169.695 311.822 169.695H311.795C311.526 169.695 311.28 169.843 311.055 170.139C310.831 170.435 310.66 170.812 310.544 171.27C310.535 171.279 310.526 171.292 310.517 171.31C310.508 171.328 310.503 171.341 310.503 171.35C310.503 171.359 310.494 171.368 310.477 171.377C310.459 171.386 310.445 171.391 310.436 171.391C310.427 171.391 310.409 171.391 310.382 171.391C310.355 171.391 310.32 171.391 310.275 171.391H310.086C310.032 171.337 310.005 171.296 310.005 171.27Z" fill="white"/>
<path d="M315.12 171.942C315.12 171.942 315.12 171.884 315.12 171.768C315.12 171.651 315.182 171.561 315.308 171.498H319.332V169.48L319.345 167.461C319.435 167.344 319.52 167.286 319.601 167.286C319.718 167.286 319.808 167.353 319.87 167.488V171.498H323.881C324.015 171.57 324.083 171.66 324.083 171.768C324.083 171.875 324.015 171.965 323.881 172.037H319.87V176.047C319.799 176.173 319.718 176.236 319.628 176.236H319.601H319.574C319.467 176.236 319.386 176.173 319.332 176.047V172.037H315.308C315.182 171.974 315.12 171.884 315.12 171.768V171.942Z" fill="white"/>
<path d="M327.703 167.353L327.528 167.421C327.402 167.465 327.223 167.51 326.99 167.555C326.756 167.6 326.496 167.631 326.209 167.649H325.953V167.03H326.209C326.631 167.012 327.021 166.945 327.38 166.828C327.739 166.712 327.99 166.604 328.134 166.505C328.277 166.407 328.403 166.308 328.511 166.209C328.528 166.182 328.582 166.169 328.672 166.169C328.753 166.169 328.829 166.196 328.901 166.25V170.274L328.914 174.311C328.977 174.374 329.031 174.414 329.076 174.432C329.121 174.45 329.228 174.468 329.399 174.486C329.569 174.504 329.847 174.513 330.233 174.513H330.583V175.132H330.435C330.247 175.105 329.533 175.092 328.295 175.092C327.075 175.092 326.371 175.105 326.182 175.132H326.021V174.513H326.371C326.568 174.513 326.739 174.513 326.882 174.513C327.026 174.513 327.138 174.509 327.219 174.5C327.299 174.491 327.371 174.477 327.434 174.459C327.497 174.441 327.533 174.432 327.542 174.432C327.55 174.432 327.577 174.41 327.622 174.365C327.667 174.32 327.694 174.302 327.703 174.311V167.353Z" fill="white"/>
<path d="M334.309 167.518C334.309 166.642 334.373 165.811 334.5 165.024C334.627 164.237 334.772 163.558 334.937 162.987C335.102 162.416 335.337 161.858 335.642 161.312C335.946 160.767 336.187 160.341 336.365 160.037C336.543 159.732 336.809 159.402 337.165 159.047C337.52 158.692 337.729 158.476 337.793 158.4C337.856 158.324 338.015 158.19 338.269 158H338.516H338.592C338.77 158 338.859 158.057 338.859 158.171C338.859 158.209 338.751 158.343 338.535 158.571C338.319 158.799 338.059 159.136 337.755 159.58C337.45 160.024 337.139 160.57 336.822 161.217C336.505 161.864 336.238 162.74 336.023 163.844C335.807 164.948 335.699 166.173 335.699 167.518C335.699 168.863 335.807 170.081 336.023 171.173C336.238 172.264 336.498 173.146 336.803 173.819C337.108 174.491 337.418 175.037 337.736 175.456C338.053 175.874 338.319 176.211 338.535 176.465C338.751 176.718 338.859 176.852 338.859 176.864C338.859 176.979 338.764 177.036 338.573 177.036H338.516H338.269L337.736 176.579C336.543 175.5 335.674 174.155 335.128 172.543C334.582 170.932 334.309 169.256 334.309 167.518Z" fill="white"/>
<path d="M340.42 164.948C340.331 164.859 340.286 164.796 340.286 164.758C340.286 164.707 340.306 164.605 340.344 164.453C340.382 164.301 340.413 164.212 340.439 164.187C340.464 164.123 340.521 164.091 340.61 164.091C340.699 164.091 341.023 164.085 341.581 164.072H342.59L342.951 162.55C342.99 162.41 343.034 162.226 343.085 161.997C343.135 161.769 343.18 161.604 343.218 161.503C343.256 161.401 343.294 161.274 343.332 161.122C343.37 160.97 343.421 160.862 343.484 160.798C343.548 160.735 343.611 160.659 343.675 160.57C343.738 160.481 343.827 160.424 343.941 160.398C344.056 160.373 344.17 160.36 344.284 160.36C344.512 160.373 344.671 160.443 344.76 160.57C344.849 160.697 344.893 160.817 344.893 160.931C344.893 161.02 344.836 161.319 344.722 161.826C344.608 162.334 344.481 162.835 344.341 163.33L344.151 164.034C344.151 164.06 344.468 164.072 345.103 164.072H346.073C346.162 164.161 346.207 164.231 346.207 164.282C346.207 164.561 346.124 164.783 345.959 164.948H343.922L343.237 167.708C342.742 169.739 342.495 170.83 342.495 170.982C342.495 171.515 342.666 171.782 343.009 171.782C343.453 171.782 343.884 171.566 344.303 171.135C344.722 170.703 345.058 170.17 345.312 169.536C345.337 169.459 345.369 169.415 345.407 169.402C345.445 169.39 345.54 169.377 345.693 169.364H345.769C345.959 169.364 346.054 169.415 346.054 169.517C346.054 169.555 346.035 169.631 345.997 169.745C345.934 169.948 345.82 170.189 345.655 170.468C345.49 170.748 345.274 171.046 345.007 171.363C344.741 171.68 344.417 171.947 344.037 172.163C343.656 172.378 343.269 172.486 342.875 172.486C342.495 172.486 342.133 172.391 341.79 172.201C341.448 172.01 341.2 171.68 341.048 171.211C341.023 171.109 341.01 170.938 341.01 170.697V170.354L341.676 167.689C342.12 165.9 342.349 164.999 342.361 164.986C342.361 164.961 342.038 164.948 341.391 164.948H340.42Z" fill="white"/>
<path d="M352.094 167.765C352.094 167.765 352.094 167.683 352.094 167.518C352.094 167.353 352.183 167.226 352.361 167.137H358.052V164.282L358.071 161.426C358.198 161.261 358.319 161.179 358.433 161.179C358.598 161.179 358.725 161.274 358.814 161.464V167.137H364.486C364.677 167.239 364.772 167.366 364.772 167.518C364.772 167.67 364.677 167.797 364.486 167.899H358.814V173.571C358.712 173.749 358.598 173.838 358.471 173.838H358.433H358.395C358.243 173.838 358.129 173.749 358.052 173.571V167.899H352.361C352.183 167.81 352.094 167.683 352.094 167.518V167.765Z" fill="white"/>
<path d="M374.122 161.274L373.875 161.369C373.697 161.433 373.443 161.496 373.113 161.56C372.783 161.623 372.415 161.668 372.009 161.693H371.648V160.817H372.009C372.606 160.792 373.158 160.697 373.665 160.532C374.173 160.367 374.528 160.214 374.731 160.075C374.935 159.935 375.112 159.796 375.264 159.656C375.29 159.618 375.366 159.599 375.493 159.599C375.607 159.599 375.715 159.637 375.816 159.713V165.405L375.836 171.116C375.924 171.204 376.001 171.261 376.064 171.287C376.127 171.312 376.28 171.338 376.521 171.363C376.762 171.388 377.155 171.401 377.701 171.401H378.196V172.277H377.987C377.72 172.239 376.711 172.22 374.96 172.22C373.234 172.22 372.238 172.239 371.971 172.277H371.743V171.401H372.238C372.517 171.401 372.758 171.401 372.961 171.401C373.164 171.401 373.323 171.395 373.437 171.382C373.551 171.369 373.653 171.35 373.742 171.325C373.83 171.3 373.881 171.287 373.894 171.287C373.907 171.287 373.945 171.255 374.008 171.192C374.072 171.128 374.11 171.103 374.122 171.116V161.274Z" fill="white"/>
<path d="M380.728 158.019L380.804 158C380.867 158 380.931 158 380.994 158H381.223L381.756 158.457C382.949 159.536 383.818 160.881 384.363 162.492C384.909 164.104 385.182 165.779 385.182 167.518C385.182 168.381 385.119 169.212 384.992 170.011C384.865 170.811 384.719 171.49 384.554 172.048C384.389 172.607 384.154 173.165 383.85 173.723C383.545 174.282 383.304 174.707 383.126 174.999C382.949 175.291 382.688 175.614 382.346 175.97C382.003 176.325 381.8 176.534 381.737 176.598C381.673 176.661 381.527 176.782 381.299 176.959C381.261 176.998 381.235 177.023 381.223 177.036H380.994C380.893 177.036 380.823 177.036 380.785 177.036C380.747 177.036 380.715 177.017 380.69 176.979C380.664 176.94 380.645 176.883 380.633 176.807C380.645 176.795 380.715 176.712 380.842 176.56C382.809 174.517 383.792 171.503 383.792 167.518C383.792 163.533 382.809 160.519 380.842 158.476C380.715 158.324 380.645 158.241 380.633 158.228C380.633 158.127 380.664 158.057 380.728 158.019Z" fill="white"/>
</g>
<g clip-path="url(#clip4_4_178)">
<path d="M50.4137 136.907C50.4265 136.83 50.4458 136.728 50.4714 136.599C50.4971 136.471 50.574 136.228 50.7023 135.868C50.8305 135.509 50.9588 135.208 51.087 134.964C51.2153 134.721 51.4205 134.483 51.7027 134.252C51.9848 134.022 52.267 133.913 52.5491 133.925C52.8313 133.938 53.107 133.983 53.3764 134.06C53.6457 134.137 53.8381 134.252 53.9535 134.406C54.0689 134.56 54.1715 134.701 54.2613 134.83C54.3511 134.958 54.4024 135.08 54.4152 135.195L54.4537 135.33C54.4537 135.355 54.4601 135.368 54.4729 135.368L54.6846 135.157C55.4541 134.336 56.3583 133.925 57.3971 133.925C57.6152 133.925 57.814 133.938 57.9935 133.964C58.1731 133.989 58.3398 134.034 58.4937 134.098C58.6476 134.163 58.7695 134.227 58.8592 134.291C58.949 134.355 59.0452 134.432 59.1478 134.522C59.2504 134.612 59.3145 134.695 59.3402 134.772C59.3658 134.849 59.4171 134.932 59.4941 135.022C59.571 135.112 59.5967 135.189 59.571 135.253C59.5454 135.317 59.5646 135.375 59.6288 135.426C59.6929 135.477 59.7057 135.522 59.6672 135.561L59.8211 135.368C60.6291 134.406 61.5846 133.925 62.6876 133.925C63.3802 133.925 63.9381 134.098 64.3613 134.445C64.7846 134.791 65.0026 135.298 65.0154 135.965C65.0154 136.619 64.7718 137.632 64.2844 139.004C63.797 140.377 63.5533 141.197 63.5533 141.467C63.5662 141.646 63.5982 141.768 63.6495 141.832C63.7008 141.896 63.797 141.928 63.9381 141.928C64.2972 141.928 64.6307 141.736 64.9385 141.351C65.2463 140.967 65.4964 140.441 65.6888 139.774C65.7272 139.633 65.7657 139.549 65.8042 139.524C65.8427 139.498 65.9453 139.485 66.112 139.485C66.3685 139.485 66.4968 139.536 66.4968 139.639C66.4968 139.652 66.4711 139.748 66.4198 139.928C66.3172 140.3 66.1761 140.665 65.9966 141.024C65.817 141.383 65.522 141.742 65.1116 142.102C64.7012 142.461 64.2587 142.634 63.7842 142.621C63.1814 142.621 62.7453 142.448 62.476 142.102C62.2067 141.755 62.072 141.396 62.072 141.024C62.072 140.781 62.3029 140.011 62.7646 138.716C63.2263 137.42 63.4636 136.446 63.4764 135.791C63.4764 135.035 63.1942 134.656 62.6299 134.656H62.5337C61.4307 134.656 60.5009 135.304 59.7442 136.599L59.6095 136.83L58.9747 139.408C58.5514 141.088 58.3077 141.993 58.2436 142.121C58.0769 142.467 57.8011 142.64 57.4164 142.64C57.2496 142.64 57.115 142.595 57.0124 142.506C56.9098 142.416 56.8392 142.339 56.8008 142.275C56.7623 142.211 56.743 142.146 56.743 142.082C56.743 141.941 56.9611 141.024 57.3971 139.331L58.0897 136.522C58.1282 136.33 58.1474 136.086 58.1474 135.791C58.1474 135.035 57.8653 134.656 57.3009 134.656H57.2048C56.1018 134.656 55.1719 135.304 54.4152 136.599L54.2806 136.83L53.6457 139.408C53.2225 141.088 52.9788 141.993 52.9147 142.121C52.7479 142.467 52.4722 142.64 52.0874 142.64C51.9207 142.64 51.786 142.602 51.6834 142.525C51.5808 142.448 51.5103 142.371 51.4718 142.294C51.4333 142.217 51.4205 142.153 51.4333 142.102C51.4333 141.935 51.677 140.883 52.1644 138.947C52.6646 136.971 52.9147 135.939 52.9147 135.849C52.9531 135.657 52.9724 135.484 52.9724 135.33C52.9724 134.868 52.812 134.637 52.4914 134.637C52.2093 134.637 51.972 134.817 51.7796 135.176C51.5872 135.535 51.4397 135.926 51.3371 136.349C51.2345 136.773 51.1576 137.003 51.1063 137.042C51.0806 137.068 50.978 137.08 50.7985 137.08H50.5291C50.4522 137.003 50.4137 136.946 50.4137 136.907Z" fill="white"/>
<path d="M69.4034 137.154C69.4034 136.936 69.4896 136.745 69.6618 136.582C69.8341 136.419 70.0336 136.333 70.2603 136.324C70.4235 136.324 70.5595 136.378 70.6683 136.487C70.7772 136.596 70.8361 136.732 70.8452 136.895C70.8452 137.104 70.7545 137.294 70.5731 137.466C70.3918 137.639 70.1923 137.729 69.9747 137.738C69.8387 137.738 69.7117 137.693 69.5938 137.602C69.476 137.512 69.4125 137.362 69.4034 137.154ZM67.1864 141.411C67.1864 141.338 67.2272 141.198 67.3088 140.989C67.3904 140.781 67.4992 140.549 67.6352 140.295C67.7713 140.042 67.9707 139.81 68.2337 139.602C68.4967 139.393 68.7687 139.293 69.0498 139.303C69.4034 139.303 69.6981 139.407 69.9339 139.615C70.1696 139.824 70.292 140.105 70.3011 140.459C70.3011 140.613 70.2376 140.867 70.1107 141.22C69.9837 141.574 69.8024 142.05 69.5666 142.648C69.3309 143.247 69.1405 143.759 68.9954 144.185C68.95 144.385 68.9274 144.53 68.9274 144.621C68.9274 144.847 69.0044 144.961 69.1586 144.961C69.2402 144.961 69.3263 144.947 69.417 144.92C69.5077 144.893 69.612 144.829 69.7299 144.729C69.8477 144.63 69.9701 144.471 70.0971 144.253C70.224 144.036 70.3374 143.768 70.4371 143.451C70.4643 143.342 70.487 143.279 70.5051 143.261C70.5233 143.242 70.6003 143.233 70.7364 143.233C70.9177 143.233 71.0084 143.279 71.0084 143.369C71.0084 143.442 70.9676 143.582 70.886 143.791C70.8044 144 70.691 144.231 70.5459 144.485C70.4009 144.739 70.1968 144.965 69.9339 145.165C69.6709 145.364 69.3898 145.464 69.0906 145.464C68.8004 145.464 68.5329 145.369 68.2881 145.178C68.0433 144.988 67.9163 144.698 67.9073 144.308C67.9073 144.154 67.9299 144.009 67.9753 143.873C68.0206 143.737 68.2156 143.22 68.5601 142.322C68.9047 141.406 69.1042 140.858 69.1586 140.676C69.213 140.495 69.2447 140.318 69.2538 140.146C69.2538 139.928 69.1767 139.819 69.0226 139.819H68.9954C68.7234 139.819 68.474 139.969 68.2473 140.268C68.0206 140.567 67.8483 140.948 67.7305 141.411C67.7214 141.42 67.7123 141.433 67.7033 141.452C67.6942 141.47 67.6897 141.483 67.6897 141.492C67.6897 141.501 67.6806 141.51 67.6624 141.52C67.6443 141.529 67.6307 141.533 67.6216 141.533C67.6126 141.533 67.5944 141.533 67.5672 141.533C67.54 141.533 67.5038 141.533 67.4584 141.533H67.268C67.2136 141.479 67.1864 141.438 67.1864 141.411Z" fill="white"/>
<path d="M72.7357 142.091C72.7357 142.091 72.7357 142.032 72.7357 141.914C72.7357 141.796 72.7992 141.705 72.9262 141.642H80.8286C80.9646 141.715 81.0326 141.805 81.0326 141.914C81.0326 142.023 80.9646 142.113 80.8286 142.186H72.9262C72.7992 142.123 72.7357 142.032 72.7357 141.914V142.091Z" fill="white"/>
<path d="M85.0722 137.453L84.8954 137.521C84.7684 137.566 84.5871 137.611 84.3513 137.657C84.1156 137.702 83.8526 137.734 83.5624 137.752H83.304V137.126H83.5624C83.9886 137.108 84.3831 137.04 84.7458 136.922C85.1085 136.804 85.3624 136.696 85.5074 136.596C85.6525 136.496 85.7795 136.396 85.8883 136.297C85.9064 136.269 85.9608 136.256 86.0515 136.256C86.1331 136.256 86.2102 136.283 86.2827 136.337V140.404L86.2963 144.485C86.3598 144.548 86.4142 144.589 86.4595 144.607C86.5049 144.625 86.6137 144.643 86.786 144.661C86.9583 144.68 87.2393 144.689 87.6293 144.689H87.9829V145.314H87.8333C87.6429 145.287 86.922 145.274 85.6707 145.274C84.4375 145.274 83.7257 145.287 83.5352 145.314H83.372V144.689H83.7257C83.9251 144.689 84.0974 144.689 84.2425 144.689C84.3876 144.689 84.5009 144.684 84.5825 144.675C84.6642 144.666 84.7367 144.652 84.8002 144.634C84.8636 144.616 84.8999 144.607 84.909 144.607C84.918 144.607 84.9452 144.584 84.9906 144.539C85.0359 144.494 85.0631 144.476 85.0722 144.485V137.453Z" fill="white"/>
<path d="M91.7487 137.619C91.7487 136.734 91.8129 135.894 91.9411 135.099C92.0694 134.304 92.2169 133.618 92.3836 133.04C92.5503 132.463 92.7876 131.899 93.0954 131.347C93.4032 130.796 93.6469 130.366 93.8265 130.058C94.006 129.751 94.2754 129.417 94.6345 129.058C94.9936 128.699 95.2052 128.481 95.2693 128.404C95.3335 128.327 95.4938 128.192 95.7503 128H96.0004H96.0773C96.2569 128 96.3467 128.058 96.3467 128.173C96.3467 128.212 96.2376 128.346 96.0196 128.577C95.8016 128.808 95.5387 129.148 95.2309 129.597C94.923 130.046 94.6088 130.597 94.2882 131.251C93.9675 131.905 93.6982 132.79 93.4802 133.906C93.2621 135.022 93.1531 136.26 93.1531 137.619C93.1531 138.979 93.2621 140.21 93.4802 141.313C93.6982 142.416 93.9611 143.307 94.2689 143.987C94.5768 144.667 94.891 145.218 95.2116 145.641C95.5322 146.065 95.8016 146.404 96.0196 146.661C96.2376 146.918 96.3467 147.052 96.3467 147.065C96.3467 147.18 96.2505 147.238 96.0581 147.238H96.0004H95.7503L95.2116 146.776C94.006 145.686 93.1275 144.327 92.576 142.698C92.0245 141.069 91.7487 139.376 91.7487 137.619Z" fill="white"/>
<path d="M97.9242 135.022C97.8344 134.932 97.7895 134.868 97.7895 134.83C97.7895 134.778 97.8088 134.676 97.8472 134.522C97.8857 134.368 97.9178 134.278 97.9434 134.252C97.9691 134.188 98.0268 134.156 98.1166 134.156C98.2064 134.156 98.5334 134.15 99.0977 134.137H100.117L100.483 132.598C100.521 132.457 100.566 132.271 100.618 132.04C100.669 131.809 100.714 131.642 100.752 131.54C100.791 131.437 100.829 131.309 100.868 131.155C100.906 131.001 100.957 130.892 101.022 130.828C101.086 130.764 101.15 130.687 101.214 130.597C101.278 130.507 101.368 130.45 101.483 130.424C101.599 130.398 101.714 130.386 101.83 130.386C102.06 130.398 102.221 130.469 102.31 130.597C102.4 130.725 102.445 130.847 102.445 130.963C102.445 131.052 102.387 131.354 102.272 131.867C102.157 132.38 102.028 132.886 101.887 133.387L101.695 134.098C101.695 134.124 102.016 134.137 102.657 134.137H103.638C103.728 134.227 103.773 134.297 103.773 134.349C103.773 134.631 103.689 134.855 103.522 135.022H101.464L100.771 137.811C100.271 139.864 100.021 140.967 100.021 141.12C100.021 141.659 100.194 141.928 100.541 141.928C100.989 141.928 101.426 141.71 101.849 141.274C102.272 140.838 102.612 140.3 102.868 139.658C102.894 139.581 102.926 139.536 102.965 139.524C103.003 139.511 103.099 139.498 103.253 139.485H103.33C103.522 139.485 103.619 139.536 103.619 139.639C103.619 139.678 103.599 139.755 103.561 139.87C103.497 140.075 103.381 140.319 103.215 140.601C103.048 140.883 102.83 141.185 102.561 141.505C102.291 141.826 101.964 142.095 101.579 142.313C101.195 142.531 100.804 142.64 100.406 142.64C100.021 142.64 99.6556 142.544 99.3093 142.352C98.9631 142.159 98.713 141.826 98.5591 141.351C98.5334 141.249 98.5206 141.076 98.5206 140.832V140.486L99.1939 137.792C99.6428 135.984 99.8737 135.073 99.8865 135.06C99.8865 135.035 99.5594 135.022 98.9053 135.022H97.9242Z" fill="white"/>
<path d="M109.723 137.869C109.723 137.869 109.723 137.786 109.723 137.619C109.723 137.452 109.813 137.324 109.992 137.234H115.744V134.349L115.764 131.463C115.892 131.296 116.014 131.213 116.129 131.213C116.296 131.213 116.424 131.309 116.514 131.501V137.234H122.247C122.439 137.337 122.536 137.465 122.536 137.619C122.536 137.773 122.439 137.901 122.247 138.004H116.514V143.737C116.411 143.916 116.296 144.006 116.168 144.006H116.129H116.091C115.937 144.006 115.821 143.916 115.744 143.737V138.004H109.992C109.813 137.914 109.723 137.786 109.723 137.619V137.869Z" fill="white"/>
<path d="M131.985 131.309L131.735 131.405C131.556 131.469 131.299 131.533 130.966 131.598C130.632 131.662 130.26 131.707 129.85 131.732H129.484V130.847H129.85C130.453 130.822 131.011 130.725 131.524 130.559C132.037 130.392 132.396 130.238 132.601 130.097C132.806 129.956 132.986 129.815 133.14 129.674C133.165 129.635 133.242 129.616 133.37 129.616C133.486 129.616 133.595 129.654 133.698 129.731V135.484L133.717 141.255C133.807 141.345 133.883 141.403 133.948 141.428C134.012 141.454 134.166 141.48 134.409 141.505C134.653 141.531 135.051 141.544 135.602 141.544H136.102V142.429H135.891C135.621 142.39 134.602 142.371 132.832 142.371C131.088 142.371 130.081 142.39 129.811 142.429H129.581V141.544H130.081C130.363 141.544 130.607 141.544 130.812 141.544C131.017 141.544 131.177 141.537 131.293 141.524C131.408 141.512 131.511 141.492 131.601 141.467C131.69 141.441 131.742 141.428 131.754 141.428C131.767 141.428 131.806 141.396 131.87 141.332C131.934 141.268 131.973 141.242 131.985 141.255V131.309Z" fill="white"/>
<path d="M138.661 128.019L138.738 128C138.802 128 138.866 128 138.93 128H139.161L139.7 128.462C140.905 129.552 141.784 130.911 142.335 132.54C142.887 134.169 143.163 135.862 143.163 137.619C143.163 138.491 143.099 139.331 142.97 140.139C142.842 140.947 142.695 141.633 142.528 142.198C142.361 142.762 142.124 143.326 141.816 143.891C141.508 144.455 141.265 144.885 141.085 145.18C140.905 145.475 140.642 145.802 140.296 146.161C139.95 146.52 139.745 146.732 139.681 146.796C139.616 146.86 139.469 146.982 139.238 147.161C139.2 147.2 139.174 147.225 139.161 147.238H138.93C138.828 147.238 138.757 147.238 138.719 147.238C138.68 147.238 138.648 147.219 138.622 147.18C138.597 147.142 138.578 147.084 138.565 147.007C138.578 146.994 138.648 146.911 138.776 146.757C140.764 144.692 141.758 141.646 141.758 137.619C141.758 133.592 140.764 130.546 138.776 128.481C138.648 128.327 138.578 128.244 138.565 128.231C138.565 128.128 138.597 128.058 138.661 128.019Z" fill="white"/>
</g>
<g clip-path="url(#clip5_4_178)">
<path d="M60.4249 261.216C60.4382 261.136 60.4581 261.03 60.4846 260.897C60.5112 260.765 60.5908 260.513 60.7235 260.141C60.8562 259.77 60.9889 259.458 61.1216 259.206C61.2543 258.953 61.4666 258.708 61.7586 258.469C62.0505 258.23 62.3424 258.117 62.6344 258.131C62.9263 258.144 63.2116 258.19 63.4903 258.27C63.7689 258.35 63.968 258.469 64.0874 258.628C64.2068 258.788 64.313 258.934 64.4059 259.066C64.4988 259.199 64.5519 259.325 64.5651 259.444L64.6049 259.584C64.6049 259.61 64.6116 259.624 64.6249 259.624L64.8438 259.405C65.64 258.555 66.5755 258.131 67.6504 258.131C67.876 258.131 68.0817 258.144 68.2674 258.171C68.4532 258.197 68.6257 258.243 68.785 258.31C68.9442 258.376 69.0703 258.443 69.1632 258.509C69.256 258.575 69.3556 258.655 69.4617 258.748C69.5679 258.841 69.6342 258.927 69.6608 259.007C69.6873 259.086 69.7404 259.172 69.82 259.265C69.8996 259.358 69.9262 259.438 69.8996 259.504C69.8731 259.57 69.893 259.63 69.9594 259.683C70.0257 259.736 70.039 259.783 69.9992 259.823L70.1584 259.624C70.9944 258.628 71.983 258.131 73.1242 258.131C73.8408 258.131 74.418 258.31 74.8559 258.668C75.2939 259.026 75.5194 259.551 75.5327 260.241C75.5327 260.917 75.2806 261.966 74.7763 263.386C74.2721 264.805 74.0199 265.655 74.0199 265.933C74.0332 266.119 74.0664 266.245 74.1195 266.312C74.1725 266.378 74.2721 266.411 74.418 266.411C74.7896 266.411 75.1346 266.212 75.4531 265.814C75.7716 265.416 76.0303 264.872 76.2294 264.182C76.2692 264.036 76.309 263.95 76.3488 263.923C76.3886 263.896 76.4948 263.883 76.6673 263.883C76.9327 263.883 77.0654 263.936 77.0654 264.042C77.0654 264.056 77.0388 264.155 76.9858 264.341C76.8796 264.726 76.7336 265.104 76.5479 265.476C76.3621 265.847 76.0569 266.219 75.6322 266.59C75.2076 266.962 74.7498 267.141 74.2588 267.128C73.6351 267.128 73.1839 266.949 72.9053 266.59C72.6266 266.232 72.4873 265.86 72.4873 265.476C72.4873 265.223 72.7261 264.427 73.2038 263.087C73.6816 261.747 73.9271 260.738 73.9403 260.061C73.9403 259.279 73.6484 258.887 73.0645 258.887H72.965C71.8238 258.887 70.8617 259.557 70.0788 260.897L69.9394 261.136L69.2826 263.804C68.8447 265.542 68.5926 266.477 68.5262 266.61C68.3537 266.968 68.0684 267.148 67.6703 267.148C67.4978 267.148 67.3585 267.101 67.2523 267.008C67.1461 266.915 67.0731 266.836 67.0333 266.769C66.9935 266.703 66.9736 266.637 66.9736 266.57C66.9736 266.424 67.1992 265.476 67.6504 263.724L68.367 260.818C68.4068 260.619 68.4267 260.367 68.4267 260.061C68.4267 259.279 68.1347 258.887 67.5509 258.887H67.4513C66.3101 258.887 65.3481 259.557 64.5651 260.897L64.4258 261.136L63.7689 263.804C63.331 265.542 63.0789 266.477 63.0126 266.61C62.84 266.968 62.5547 267.148 62.1566 267.148C61.9841 267.148 61.8448 267.108 61.7386 267.028C61.6325 266.949 61.5595 266.869 61.5197 266.789C61.4799 266.71 61.4666 266.643 61.4799 266.59C61.4799 266.418 61.732 265.33 62.2363 263.326C62.7538 261.282 63.0126 260.214 63.0126 260.121C63.0524 259.922 63.0723 259.743 63.0723 259.584C63.0723 259.106 62.9064 258.867 62.5747 258.867C62.2827 258.867 62.0372 259.053 61.8382 259.425C61.6391 259.796 61.4865 260.201 61.3804 260.639C61.2742 261.077 61.1946 261.315 61.1415 261.355C61.115 261.382 61.0088 261.395 60.823 261.395H60.5444C60.4647 261.315 60.4249 261.256 60.4249 261.216Z" fill="white"/>
<path d="M80.0728 261.471C80.0728 261.246 80.1619 261.049 80.3402 260.88C80.5184 260.711 80.7248 260.622 80.9594 260.612C81.1282 260.612 81.269 260.669 81.3815 260.781C81.4941 260.894 81.5551 261.034 81.5645 261.203C81.5645 261.419 81.4707 261.616 81.283 261.794C81.0954 261.973 80.889 262.066 80.6638 262.076C80.5231 262.076 80.3918 262.029 80.2698 261.935C80.1478 261.841 80.0822 261.687 80.0728 261.471ZM77.7789 265.875C77.7789 265.8 77.8211 265.655 77.9056 265.439C77.99 265.223 78.1026 264.984 78.2433 264.722C78.384 264.459 78.5904 264.22 78.8625 264.004C79.1346 263.788 79.416 263.685 79.7069 263.694C80.0728 263.694 80.3777 263.802 80.6216 264.018C80.8655 264.234 80.9922 264.525 81.0016 264.89C81.0016 265.05 80.9359 265.313 80.8046 265.678C80.6732 266.044 80.4856 266.537 80.2416 267.156C79.9977 267.775 79.8007 268.305 79.6506 268.746C79.6037 268.953 79.5802 269.103 79.5802 269.197C79.5802 269.431 79.66 269.548 79.8195 269.548C79.9039 269.548 79.993 269.534 80.0868 269.506C80.1807 269.478 80.2886 269.412 80.4105 269.309C80.5325 269.206 80.6591 269.042 80.7905 268.817C80.9218 268.592 81.0391 268.315 81.1423 267.986C81.1704 267.874 81.1939 267.808 81.2127 267.789C81.2314 267.771 81.3112 267.761 81.4519 267.761C81.6395 267.761 81.7334 267.808 81.7334 267.902C81.7334 267.977 81.6911 268.122 81.6067 268.338C81.5223 268.554 81.405 268.793 81.2549 269.056C81.1048 269.319 80.8937 269.553 80.6216 269.76C80.3495 269.966 80.0587 270.069 79.7491 270.069C79.4489 270.069 79.1721 269.971 78.9188 269.774C78.6655 269.577 78.5342 269.276 78.5248 268.873C78.5248 268.713 78.5482 268.563 78.5951 268.423C78.642 268.282 78.8438 267.747 79.2003 266.818C79.5568 265.871 79.7632 265.303 79.8195 265.116C79.8758 264.928 79.9086 264.745 79.918 264.567C79.918 264.342 79.8382 264.229 79.6787 264.229H79.6506C79.3691 264.229 79.1111 264.384 78.8766 264.693C78.642 265.003 78.4638 265.397 78.3418 265.875C78.3324 265.885 78.3231 265.899 78.3137 265.918C78.3043 265.936 78.2996 265.951 78.2996 265.96C78.2996 265.969 78.2902 265.979 78.2715 265.988C78.2527 265.997 78.2386 266.002 78.2292 266.002C78.2199 266.002 78.2011 266.002 78.173 266.002C78.1448 266.002 78.1073 266.002 78.0604 266.002H77.8634C77.8071 265.946 77.7789 265.904 77.7789 265.875Z" fill="white"/>
<path d="M83.5206 266.579C83.5206 266.579 83.5206 266.518 83.5206 266.396C83.5206 266.274 83.5863 266.18 83.7176 266.115H91.8939C92.0346 266.19 92.105 266.284 92.105 266.396C92.105 266.509 92.0346 266.603 91.8939 266.678H83.7176C83.5863 266.612 83.5206 266.518 83.5206 266.396V266.579Z" fill="white"/>
<path d="M96.2846 261.78L96.1016 261.851C95.9703 261.898 95.7826 261.945 95.5387 261.991C95.2948 262.038 95.0227 262.071 94.7225 262.09H94.4551V261.443H94.7225C95.1634 261.424 95.5715 261.353 95.9468 261.231C96.3221 261.11 96.5848 260.997 96.7349 260.894C96.885 260.791 97.0163 260.687 97.1289 260.584C97.1477 260.556 97.204 260.542 97.2978 260.542C97.3822 260.542 97.462 260.57 97.537 260.626V264.834L97.5511 269.056C97.6168 269.122 97.6731 269.164 97.72 269.183C97.7669 269.201 97.8795 269.22 98.0577 269.239C98.236 269.258 98.5268 269.267 98.9302 269.267H99.2961V269.914H99.1413C98.9443 269.886 98.1985 269.872 96.9038 269.872C95.6278 269.872 94.8914 269.886 94.6943 269.914H94.5255V269.267H94.8914C95.0978 269.267 95.276 269.267 95.4261 269.267C95.5762 269.267 95.6935 269.262 95.7779 269.253C95.8624 269.244 95.9374 269.23 96.0031 269.211C96.0688 269.192 96.1063 269.183 96.1157 269.183C96.1251 269.183 96.1532 269.159 96.2001 269.112C96.247 269.065 96.2752 269.047 96.2846 269.056V261.78Z" fill="white"/>
<path d="M103.193 261.952C103.193 261.037 103.259 260.168 103.392 259.345C103.524 258.522 103.677 257.812 103.849 257.215C104.022 256.618 104.267 256.034 104.586 255.463C104.904 254.893 105.156 254.448 105.342 254.13C105.528 253.811 105.807 253.466 106.178 253.095C106.55 252.723 106.769 252.498 106.835 252.418C106.901 252.338 107.067 252.199 107.333 252H107.591H107.671C107.857 252 107.95 252.06 107.95 252.179C107.95 252.219 107.837 252.358 107.611 252.597C107.386 252.836 107.114 253.188 106.795 253.652C106.477 254.117 106.152 254.687 105.82 255.364C105.488 256.041 105.21 256.956 104.984 258.111C104.758 259.265 104.646 260.546 104.646 261.952C104.646 263.359 104.758 264.633 104.984 265.774C105.21 266.915 105.482 267.838 105.8 268.541C106.119 269.244 106.444 269.815 106.775 270.253C107.107 270.691 107.386 271.042 107.611 271.308C107.837 271.573 107.95 271.712 107.95 271.726C107.95 271.845 107.85 271.905 107.651 271.905H107.591H107.333L106.775 271.427C105.528 270.299 104.619 268.893 104.048 267.207C103.478 265.522 103.193 263.77 103.193 261.952Z" fill="white"/>
<path d="M109.582 259.265C109.489 259.172 109.443 259.106 109.443 259.066C109.443 259.013 109.463 258.907 109.502 258.748C109.542 258.589 109.575 258.496 109.602 258.469C109.628 258.403 109.688 258.37 109.781 258.37C109.874 258.37 110.212 258.363 110.796 258.35H111.851L112.229 256.757C112.269 256.611 112.316 256.419 112.369 256.18C112.422 255.941 112.468 255.769 112.508 255.662C112.548 255.556 112.588 255.424 112.627 255.264C112.667 255.105 112.72 254.992 112.787 254.926C112.853 254.86 112.919 254.78 112.986 254.687C113.052 254.594 113.145 254.535 113.264 254.508C113.384 254.481 113.503 254.468 113.623 254.468C113.862 254.481 114.027 254.554 114.12 254.687C114.213 254.82 114.26 254.946 114.26 255.065C114.26 255.158 114.2 255.47 114.08 256.001C113.961 256.532 113.828 257.056 113.682 257.573L113.483 258.31C113.483 258.336 113.815 258.35 114.479 258.35H115.494C115.587 258.443 115.633 258.516 115.633 258.569C115.633 258.861 115.547 259.093 115.374 259.265H113.244L112.528 262.151C112.01 264.275 111.752 265.416 111.752 265.575C111.752 266.132 111.931 266.411 112.289 266.411C112.753 266.411 113.205 266.186 113.643 265.734C114.08 265.283 114.432 264.726 114.698 264.062C114.724 263.983 114.757 263.936 114.797 263.923C114.837 263.91 114.936 263.896 115.096 263.883H115.175C115.374 263.883 115.474 263.936 115.474 264.042C115.474 264.082 115.454 264.162 115.414 264.281C115.348 264.494 115.228 264.746 115.056 265.038C114.883 265.33 114.658 265.641 114.379 265.973C114.1 266.305 113.762 266.584 113.364 266.809C112.966 267.035 112.561 267.148 112.15 267.148C111.752 267.148 111.373 267.048 111.015 266.849C110.657 266.65 110.398 266.305 110.239 265.814C110.212 265.708 110.199 265.529 110.199 265.277V264.918L110.896 262.132C111.36 260.261 111.599 259.318 111.612 259.305C111.612 259.279 111.274 259.265 110.597 259.265H109.582Z" fill="white"/>
<path d="M117.444 252.02L117.524 252C117.59 252 117.657 252 117.723 252H117.962L118.519 252.478C119.767 253.606 120.676 255.012 121.246 256.698C121.817 258.383 122.102 260.134 122.102 261.952C122.102 262.855 122.036 263.724 121.903 264.56C121.77 265.396 121.618 266.106 121.445 266.69C121.273 267.274 121.027 267.858 120.709 268.441C120.39 269.025 120.138 269.47 119.952 269.775C119.767 270.08 119.495 270.419 119.136 270.79C118.778 271.162 118.566 271.381 118.499 271.447C118.433 271.513 118.28 271.639 118.042 271.825C118.002 271.865 117.975 271.892 117.962 271.905H117.723C117.617 271.905 117.544 271.905 117.504 271.905C117.464 271.905 117.431 271.885 117.405 271.845C117.378 271.805 117.358 271.746 117.345 271.666C117.358 271.653 117.431 271.566 117.564 271.407C119.621 269.271 120.649 266.119 120.649 261.952C120.649 257.786 119.621 254.634 117.564 252.498C117.431 252.338 117.358 252.252 117.345 252.239C117.345 252.133 117.378 252.06 117.444 252.02Z" fill="white"/>
</g>
<g clip-path="url(#clip6_4_178)">
<path d="M261.438 289.504C261.452 289.422 261.472 289.312 261.5 289.176C261.527 289.039 261.609 288.779 261.746 288.395C261.883 288.012 262.02 287.691 262.157 287.431C262.293 287.171 262.512 286.918 262.814 286.671C263.115 286.425 263.416 286.309 263.717 286.322C264.018 286.336 264.312 286.384 264.599 286.466C264.887 286.548 265.092 286.671 265.215 286.835C265.338 287 265.448 287.15 265.544 287.287C265.639 287.424 265.694 287.554 265.708 287.677L265.749 287.821C265.749 287.848 265.756 287.862 265.769 287.862L265.995 287.636C266.816 286.76 267.781 286.322 268.889 286.322C269.122 286.322 269.334 286.336 269.526 286.363C269.717 286.391 269.895 286.439 270.06 286.507C270.224 286.575 270.354 286.644 270.45 286.712C270.545 286.781 270.648 286.863 270.757 286.959C270.867 287.054 270.935 287.143 270.963 287.225C270.99 287.308 271.045 287.397 271.127 287.492C271.209 287.588 271.236 287.67 271.209 287.739C271.182 287.807 271.202 287.869 271.271 287.923C271.339 287.978 271.353 288.026 271.312 288.067L271.476 287.862C272.338 286.835 273.357 286.322 274.534 286.322C275.273 286.322 275.869 286.507 276.32 286.877C276.772 287.246 277.004 287.787 277.018 288.498C277.018 289.196 276.758 290.277 276.238 291.741C275.718 293.206 275.458 294.081 275.458 294.369C275.472 294.56 275.506 294.69 275.561 294.759C275.615 294.827 275.718 294.861 275.869 294.861C276.252 294.861 276.608 294.656 276.936 294.246C277.264 293.835 277.531 293.274 277.737 292.562C277.778 292.412 277.819 292.323 277.86 292.296C277.901 292.268 278.01 292.255 278.188 292.255C278.462 292.255 278.599 292.309 278.599 292.419C278.599 292.432 278.571 292.535 278.517 292.727C278.407 293.124 278.257 293.514 278.065 293.897C277.873 294.28 277.559 294.663 277.121 295.046C276.683 295.429 276.211 295.614 275.704 295.6C275.061 295.6 274.596 295.416 274.309 295.046C274.021 294.677 273.878 294.294 273.878 293.897C273.878 293.637 274.124 292.816 274.616 291.433C275.109 290.051 275.362 289.011 275.376 288.313C275.376 287.506 275.075 287.102 274.473 287.102H274.37C273.193 287.102 272.201 287.793 271.394 289.176L271.25 289.422L270.573 292.172C270.121 293.965 269.861 294.93 269.793 295.067C269.615 295.436 269.321 295.621 268.91 295.621C268.732 295.621 268.588 295.573 268.479 295.477C268.369 295.381 268.294 295.299 268.253 295.231C268.212 295.163 268.192 295.094 268.192 295.026C268.192 294.875 268.424 293.897 268.889 292.09L269.628 289.093C269.669 288.888 269.69 288.628 269.69 288.313C269.69 287.506 269.389 287.102 268.787 287.102H268.684C267.507 287.102 266.515 287.793 265.708 289.176L265.564 289.422L264.887 292.172C264.435 293.965 264.175 294.93 264.107 295.067C263.929 295.436 263.635 295.621 263.224 295.621C263.046 295.621 262.902 295.58 262.793 295.498C262.684 295.416 262.608 295.334 262.567 295.251C262.526 295.169 262.512 295.101 262.526 295.046C262.526 294.868 262.786 293.746 263.306 291.68C263.84 289.572 264.107 288.471 264.107 288.375C264.148 288.17 264.168 287.985 264.168 287.821C264.168 287.328 263.997 287.082 263.655 287.082C263.354 287.082 263.101 287.273 262.896 287.657C262.69 288.04 262.533 288.457 262.423 288.909C262.314 289.36 262.232 289.607 262.177 289.648C262.15 289.675 262.04 289.689 261.849 289.689H261.561C261.479 289.607 261.438 289.545 261.438 289.504Z" fill="white"/>
<path d="M281.7 289.767C281.7 289.534 281.792 289.331 281.976 289.157C282.16 288.983 282.372 288.891 282.614 288.881C282.788 288.881 282.934 288.939 283.05 289.056C283.166 289.172 283.229 289.317 283.238 289.491C283.238 289.713 283.142 289.917 282.948 290.1C282.755 290.284 282.542 290.381 282.31 290.391C282.164 290.391 282.029 290.342 281.903 290.246C281.777 290.149 281.71 289.989 281.7 289.767ZM279.335 294.309C279.335 294.232 279.378 294.082 279.465 293.859C279.552 293.637 279.668 293.39 279.813 293.119C279.959 292.848 280.171 292.601 280.452 292.379C280.733 292.156 281.023 292.05 281.323 292.06C281.7 292.06 282.014 292.171 282.266 292.393C282.518 292.616 282.648 292.916 282.658 293.293C282.658 293.458 282.59 293.729 282.455 294.106C282.319 294.483 282.126 294.991 281.874 295.63C281.623 296.268 281.419 296.815 281.265 297.27C281.216 297.483 281.192 297.637 281.192 297.734C281.192 297.976 281.274 298.097 281.439 298.097C281.526 298.097 281.618 298.082 281.715 298.053C281.811 298.024 281.923 297.957 282.048 297.85C282.174 297.744 282.305 297.574 282.44 297.342C282.576 297.11 282.697 296.825 282.803 296.486C282.832 296.37 282.856 296.302 282.876 296.283C282.895 296.263 282.977 296.254 283.122 296.254C283.316 296.254 283.413 296.302 283.413 296.399C283.413 296.476 283.369 296.626 283.282 296.849C283.195 297.071 283.074 297.318 282.919 297.589C282.764 297.86 282.547 298.102 282.266 298.315C281.985 298.527 281.686 298.634 281.366 298.634C281.057 298.634 280.771 298.532 280.51 298.329C280.249 298.126 280.113 297.816 280.104 297.4C280.104 297.236 280.128 297.081 280.176 296.936C280.225 296.791 280.433 296.239 280.8 295.281C281.168 294.304 281.381 293.719 281.439 293.525C281.497 293.332 281.531 293.143 281.54 292.959C281.54 292.727 281.458 292.611 281.294 292.611H281.265C280.974 292.611 280.708 292.771 280.466 293.09C280.225 293.409 280.041 293.816 279.915 294.309C279.905 294.319 279.896 294.333 279.886 294.353C279.876 294.372 279.871 294.387 279.871 294.396C279.871 294.406 279.862 294.416 279.842 294.425C279.823 294.435 279.809 294.44 279.799 294.44C279.789 294.44 279.77 294.44 279.741 294.44C279.712 294.44 279.673 294.44 279.625 294.44H279.422C279.364 294.382 279.335 294.338 279.335 294.309Z" fill="white"/>
<path d="M284.849 295.035C284.849 295.035 284.849 294.972 284.849 294.846C284.849 294.72 284.917 294.624 285.052 294.556H289.392V292.379L289.406 290.202C289.503 290.076 289.595 290.013 289.682 290.013C289.808 290.013 289.904 290.086 289.972 290.231V294.556H294.297C294.442 294.633 294.515 294.73 294.515 294.846C294.515 294.962 294.442 295.059 294.297 295.136H289.972V299.461C289.895 299.596 289.808 299.664 289.711 299.664H289.682H289.653C289.537 299.664 289.45 299.596 289.392 299.461V295.136H285.052C284.917 295.069 284.849 294.972 284.849 294.846V295.035Z" fill="white"/>
<path d="M298.418 290.086L298.23 290.159C298.094 290.207 297.901 290.255 297.649 290.304C297.398 290.352 297.117 290.386 296.808 290.405H296.532V289.738H296.808C297.262 289.718 297.683 289.646 298.07 289.52C298.457 289.394 298.728 289.278 298.883 289.172C299.038 289.065 299.173 288.959 299.289 288.852C299.309 288.823 299.367 288.809 299.463 288.809C299.55 288.809 299.633 288.838 299.71 288.896V293.235L299.725 297.589C299.792 297.657 299.85 297.7 299.899 297.72C299.947 297.739 300.063 297.758 300.247 297.778C300.431 297.797 300.731 297.807 301.147 297.807H301.524V298.474H301.364C301.161 298.445 300.392 298.431 299.057 298.431C297.741 298.431 296.982 298.445 296.779 298.474H296.604V297.807H296.982C297.195 297.807 297.378 297.807 297.533 297.807C297.688 297.807 297.809 297.802 297.896 297.792C297.983 297.782 298.06 297.768 298.128 297.749C298.196 297.729 298.235 297.72 298.244 297.72C298.254 297.72 298.283 297.695 298.331 297.647C298.38 297.599 298.409 297.579 298.418 297.589V290.086Z" fill="white"/>
<path d="M305.542 290.263C305.542 289.319 305.611 288.423 305.748 287.574C305.884 286.726 306.042 285.994 306.22 285.378C306.398 284.762 306.651 284.16 306.979 283.572C307.308 282.983 307.568 282.525 307.759 282.196C307.951 281.868 308.238 281.512 308.621 281.129C309.004 280.746 309.23 280.513 309.299 280.431C309.367 280.349 309.538 280.205 309.812 280H310.079H310.161C310.352 280 310.448 280.062 310.448 280.185C310.448 280.226 310.332 280.369 310.099 280.616C309.867 280.862 309.586 281.225 309.258 281.704C308.929 282.183 308.594 282.771 308.252 283.469C307.91 284.167 307.622 285.111 307.39 286.302C307.157 287.492 307.041 288.813 307.041 290.263C307.041 291.714 307.157 293.028 307.39 294.205C307.622 295.381 307.903 296.333 308.231 297.058C308.56 297.783 308.895 298.372 309.237 298.823C309.579 299.275 309.867 299.637 310.099 299.911C310.332 300.185 310.448 300.328 310.448 300.342C310.448 300.465 310.346 300.527 310.14 300.527H310.079H309.812L309.237 300.034C307.951 298.871 307.013 297.42 306.425 295.683C305.836 293.945 305.542 292.138 305.542 290.263Z" fill="white"/>
<path d="M312.131 287.492C312.036 287.397 311.988 287.328 311.988 287.287C311.988 287.232 312.008 287.123 312.049 286.959C312.09 286.794 312.125 286.699 312.152 286.671C312.179 286.603 312.241 286.569 312.337 286.569C312.432 286.569 312.781 286.562 313.384 286.548H314.471L314.861 284.906C314.903 284.755 314.95 284.557 315.005 284.311C315.06 284.064 315.108 283.886 315.149 283.777C315.19 283.667 315.231 283.531 315.272 283.366C315.313 283.202 315.368 283.086 315.436 283.017C315.505 282.949 315.573 282.867 315.641 282.771C315.71 282.675 315.806 282.614 315.929 282.586C316.052 282.559 316.175 282.545 316.298 282.545C316.545 282.559 316.716 282.634 316.812 282.771C316.907 282.908 316.955 283.038 316.955 283.161C316.955 283.257 316.894 283.579 316.77 284.126C316.647 284.673 316.51 285.214 316.36 285.748L316.155 286.507C316.155 286.534 316.497 286.548 317.181 286.548H318.228C318.324 286.644 318.372 286.719 318.372 286.774C318.372 287.075 318.283 287.314 318.105 287.492H315.908L315.169 290.469C314.636 292.658 314.369 293.835 314.369 293.999C314.369 294.574 314.554 294.861 314.923 294.861C315.402 294.861 315.867 294.629 316.319 294.164C316.77 293.698 317.133 293.124 317.407 292.439C317.434 292.357 317.468 292.309 317.509 292.296C317.55 292.282 317.653 292.268 317.817 292.255H317.899C318.105 292.255 318.207 292.309 318.207 292.419C318.207 292.46 318.187 292.542 318.146 292.665C318.077 292.884 317.954 293.144 317.776 293.445C317.598 293.746 317.366 294.068 317.078 294.41C316.791 294.752 316.442 295.039 316.032 295.272C315.621 295.505 315.204 295.621 314.779 295.621C314.369 295.621 313.979 295.518 313.609 295.313C313.24 295.108 312.973 294.752 312.809 294.246C312.781 294.136 312.768 293.951 312.768 293.691V293.322L313.486 290.448C313.965 288.519 314.211 287.547 314.225 287.533C314.225 287.506 313.876 287.492 313.178 287.492H312.131Z" fill="white"/>
<path d="M320.24 280.021L320.322 280C320.39 280 320.458 280 320.527 280H320.773L321.348 280.493C322.634 281.656 323.572 283.106 324.16 284.844C324.749 286.582 325.043 288.389 325.043 290.263C325.043 291.194 324.974 292.09 324.838 292.952C324.701 293.815 324.543 294.547 324.365 295.149C324.188 295.751 323.934 296.353 323.606 296.955C323.277 297.557 323.017 298.016 322.826 298.331C322.634 298.645 322.354 298.994 321.984 299.377C321.615 299.761 321.396 299.986 321.327 300.055C321.259 300.123 321.102 300.253 320.855 300.445C320.814 300.486 320.787 300.513 320.773 300.527H320.527C320.417 300.527 320.342 300.527 320.301 300.527C320.26 300.527 320.226 300.506 320.198 300.465C320.171 300.424 320.151 300.363 320.137 300.281C320.151 300.267 320.226 300.178 320.363 300.014C322.484 297.81 323.544 294.56 323.544 290.263C323.544 285.966 322.484 282.716 320.363 280.513C320.226 280.349 320.151 280.26 320.137 280.246C320.137 280.137 320.171 280.062 320.24 280.021Z" fill="white"/>
</g>
<defs>
<clipPath id="clip0_4_178">
<rect width="49" height="20.621" fill="white" transform="translate(177 239)"/>
</clipPath>
<clipPath id="clip1_4_178">
<rect width="37" height="21.6208" fill="white" transform="translate(245 37)"/>
</clipPath>
<clipPath id="clip2_4_178">
<rect width="80" height="19.5295" fill="white" transform="translate(230 111)"/>
</clipPath>
<clipPath id="clip3_4_178">
<rect width="94" height="19.0356" fill="white" transform="translate(293 158)"/>
</clipPath>
<clipPath id="clip4_4_178">
<rect width="95" height="19.2381" fill="white" transform="translate(50 128)"/>
</clipPath>
<clipPath id="clip5_4_178">
<rect width="64" height="19.9049" fill="white" transform="translate(60 252)"/>
</clipPath>
<clipPath id="clip6_4_178">
<rect width="66" height="20.5269" fill="white" transform="translate(261 280)"/>
</clipPath>
</defs>
</svg>
